<svg width="23" height="23" viewBox="0 0 23 23" fill="none" xmlns="http://www.w3.org/2000/svg">
<path fill-rule="evenodd" clip-rule="evenodd" d="M3.24794 3.24794C1.875 4.62087 1.875 6.83058 1.875 11.25C1.875 15.6694 1.875 17.8791 3.24794 19.2521C4.62087 20.625 6.83058 20.625 11.25 20.625C15.6694 20.625 17.8791 20.625 19.2521 19.2521C20.625 17.8791 20.625 15.6694 20.625 11.25C20.625 6.83058 20.625 4.62087 19.2521 3.24794C17.8791 1.875 15.6694 1.875 11.25 1.875C6.83058 1.875 4.62087 1.875 3.24794 3.24794ZM16.4777 9.82513C16.7263 9.52681 16.6859 9.08344 16.3876 8.83484C16.0893 8.58624 15.6459 8.62655 15.3973 8.92487L13.7128 10.9464C13.3651 11.3635 13.1517 11.617 12.9758 11.7758C12.8943 11.8495 12.8459 11.8788 12.8227 11.8901C12.818 11.8923 12.8146 11.8937 12.8125 11.8945C12.8125 11.8945 12.8085 11.8929 12.8053 11.8915L12.8023 11.8901C12.7791 11.8788 12.7307 11.8495 12.6492 11.7758C12.4733 11.617 12.2599 11.3635 11.9122 10.9464L11.6381 10.6174C11.3302 10.2478 11.0526 9.91462 10.7933 9.68047C10.5111 9.4257 10.1558 9.1988 9.6875 9.1988C9.21923 9.1988 8.86386 9.4257 8.58173 9.68047C8.32242 9.91462 8.04481 10.2478 7.73688 10.6174L6.02234 12.6749C5.77374 12.9732 5.81405 13.4166 6.11237 13.6652C6.41069 13.9138 6.85406 13.8734 7.10266 13.5751L8.78724 11.5536C9.13486 11.1365 9.34833 10.883 9.52419 10.7242C9.60575 10.6505 9.65412 10.6212 9.67731 10.6099C9.6798 10.6087 9.68191 10.6078 9.68365 10.607L9.6875 10.6055C9.68962 10.6063 9.69298 10.6077 9.69769 10.6099C9.72088 10.6212 9.76926 10.6505 9.85081 10.7242C10.0267 10.883 10.2401 11.1365 10.5878 11.5536L10.8619 11.8826C11.1698 12.2522 11.4474 12.5854 11.7067 12.8195C11.9889 13.0743 12.3442 13.3012 12.8125 13.3012C13.2808 13.3012 13.6361 13.0743 13.9183 12.8195C14.1776 12.5854 14.4552 12.2522 14.7631 11.8826L16.4777 9.82513Z" fill="white"/>
</svg>
