<svg width="20" height="20" viewBox="0 0 20 20" fill="none" xmlns="http://www.w3.org/2000/svg">
<path fill-rule="evenodd" clip-rule="evenodd" d="M2.24794 2.24794C0.875 3.62087 0.875 5.83058 0.875 10.25C0.875 14.6694 0.875 16.8791 2.24794 18.2521C3.62087 19.625 5.83058 19.625 10.25 19.625C14.6694 19.625 16.8791 19.625 18.2521 18.2521C19.625 16.8791 19.625 14.6694 19.625 10.25C19.625 5.83058 19.625 3.62087 18.2521 2.24794C16.8791 0.875 14.6694 0.875 10.25 0.875C5.83058 0.875 3.62087 0.875 2.24794 2.24794ZM15.4777 8.82513C15.7263 8.52681 15.6859 8.08344 15.3876 7.83484C15.0893 7.58624 14.6459 7.62655 14.3973 7.92487L12.7128 9.94637C12.3651 10.3635 12.1517 10.617 11.9758 10.7758C11.8943 10.8495 11.8459 10.8788 11.8227 10.8901C11.818 10.8923 11.8146 10.8937 11.8125 10.8945C11.8125 10.8945 11.8085 10.8929 11.8053 10.8915L11.8023 10.8901C11.7791 10.8788 11.7307 10.8495 11.6492 10.7758C11.4733 10.617 11.2599 10.3635 10.9122 9.94637L10.6381 9.61742C10.3302 9.24782 10.0526 8.91462 9.79327 8.68047C9.51114 8.4257 9.15577 8.1988 8.6875 8.1988C8.21923 8.1988 7.86386 8.4257 7.58173 8.68047C7.32242 8.91462 7.04481 9.24782 6.73688 9.61743L5.02234 11.6749C4.77374 11.9732 4.81405 12.4166 5.11237 12.6652C5.41069 12.9138 5.85406 12.8734 6.10266 12.5751L7.78724 10.5536C8.13486 10.1365 8.34833 9.88297 8.52419 9.72416C8.60575 9.65052 8.65412 9.62117 8.67731 9.60995C8.6798 9.60874 8.68191 9.60779 8.68365 9.60705L8.6875 9.60551C8.68962 9.60629 8.69298 9.60767 8.69769 9.60995C8.72088 9.62117 8.76926 9.65052 8.85081 9.72416C9.02667 9.88297 9.24014 10.1365 9.58776 10.5536L9.86188 10.8826C10.1698 11.2522 10.4474 11.5854 10.7067 11.8195C10.9889 12.0743 11.3442 12.3012 11.8125 12.3012C12.2808 12.3012 12.6361 12.0743 12.9183 11.8195C13.1776 11.5854 13.4552 11.2522 13.7631 10.8826L15.4777 8.82513Z" fill="#010101"/>
</svg>
