<svg width="23" height="23" viewBox="0 0 23 23" fill="none" xmlns="http://www.w3.org/2000/svg">
<path fill-rule="evenodd" clip-rule="evenodd" d="M1.875 1.42188C1.48667 1.42188 1.17188 1.73667 1.17188 2.125C1.17188 2.51333 1.48667 2.82812 1.875 2.82812H3.75V11.7601C3.75 13.0164 3.75 13.6445 4.00134 14.1984C4.25269 14.7524 4.72544 15.166 5.67091 15.9933L7.54591 17.6339C9.3108 19.1782 10.1932 19.9503 11.25 19.9503C12.3068 19.9503 13.1892 19.1782 14.9541 17.6339L16.8291 15.9933C17.7746 15.166 18.2473 14.7524 18.4987 14.1984C18.75 13.6445 18.75 13.0164 18.75 11.7601V2.82812H20.625C21.0133 2.82812 21.3281 2.51333 21.3281 2.125C21.3281 1.73667 21.0133 1.42188 20.625 1.42188H1.875ZM7.96875 11.7344C7.58042 11.7344 7.26562 12.0492 7.26562 12.4375C7.26562 12.8258 7.58042 13.1406 7.96875 13.1406H14.5312C14.9196 13.1406 15.2344 12.8258 15.2344 12.4375C15.2344 12.0492 14.9196 11.7344 14.5312 11.7344H7.96875ZM7.26562 7.75C7.26562 7.36167 7.58042 7.04688 7.96875 7.04688H14.5312C14.9196 7.04688 15.2344 7.36167 15.2344 7.75C15.2344 8.13833 14.9196 8.45312 14.5312 8.45312H7.96875C7.58042 8.45312 7.26562 8.13833 7.26562 7.75Z" fill="white"/>
</svg>
