<svg width="22" height="21" viewBox="0 0 22 21" fill="none" xmlns="http://www.w3.org/2000/svg">
<path d="M11 21C5.20085 21 0.5 16.2991 0.5 10.5C0.5 4.70085 5.20085 0 11 0C16.7991 0 21.5 4.70085 21.5 10.5C21.5 16.2991 16.7991 21 11 21ZM11 18.9C13.2278 18.9 15.3644 18.015 16.9397 16.4397C18.515 14.8644 19.4 12.7278 19.4 10.5C19.4 8.27218 18.515 6.13561 16.9397 4.5603C15.3644 2.985 13.2278 2.1 11 2.1C8.77218 2.1 6.63561 2.985 5.0603 4.5603C3.485 6.13561 2.6 8.27218 2.6 10.5C2.6 12.7278 3.485 14.8644 5.0603 16.4397C6.63561 18.015 8.77218 18.9 11 18.9V18.9ZM5.75 11.55H15.2V13.65H11V16.8L5.75 11.55ZM11 7.35V4.2L16.25 9.45H6.8V7.35H11Z" fill="#1C1C1C"/>
</svg>
