<svg width="28" height="29" viewBox="0 0 28 29" fill="none" xmlns="http://www.w3.org/2000/svg">
<path d="M14 25.001C8.20085 25.001 3.5 20.3001 3.5 14.501C3.5 8.70183 8.20085 4.00098 14 4.00098C19.7991 4.00098 24.5 8.70183 24.5 14.501C24.5 20.3001 19.7991 25.001 14 25.001ZM14 22.901C16.2278 22.901 18.3644 22.016 19.9397 20.4407C21.515 18.8654 22.4 16.7288 22.4 14.501C22.4 12.2732 21.515 10.1366 19.9397 8.56128C18.3644 6.98597 16.2278 6.10098 14 6.10098C11.7722 6.10098 9.63561 6.98597 8.0603 8.56128C6.485 10.1366 5.6 12.2732 5.6 14.501C5.6 16.7288 6.485 18.8654 8.0603 20.4407C9.63561 22.016 11.7722 22.901 14 22.901ZM8.75 15.551H18.2V17.651H14V20.801L8.75 15.551ZM14 11.351V8.20098L19.25 13.451H9.8V11.351H14Z" fill="white"/>
</svg>
