<svg width="18" height="19" viewBox="0 0 18 19" fill="none" xmlns="http://www.w3.org/2000/svg">
<path fill-rule="evenodd" clip-rule="evenodd" d="M3 4.25122V14.7512C3 15.9939 4.00736 17.0012 5.25 17.0012H12.75C13.9926 17.0012 15 15.9939 15 14.7512V7.25122C15 6.00858 13.9926 5.00122 12.75 5.00122H3.75C3.33579 5.00122 3 4.66543 3 4.25122ZM5.4375 9.50122C5.4375 9.19056 5.68934 8.93872 6 8.93872H12C12.3107 8.93872 12.5625 9.19056 12.5625 9.50122C12.5625 9.81188 12.3107 10.0637 12 10.0637H6C5.68934 10.0637 5.4375 9.81188 5.4375 9.50122ZM5.4375 12.1262C5.4375 11.8156 5.68934 11.5637 6 11.5637H10.125C10.4357 11.5637 10.6875 11.8156 10.6875 12.1262C10.6875 12.4369 10.4357 12.6887 10.125 12.6887H6C5.68934 12.6887 5.4375 12.4369 5.4375 12.1262Z" fill="#010101"/>
<path d="M3.30659 3.56654C3.56795 3.68376 3.75 3.94623 3.75 4.25122H12.75C13.009 4.25122 13.2603 4.28404 13.5 4.34573V3.73075C13.5 2.81793 12.6915 2.11673 11.7879 2.24583L3.6897 3.40271C3.54534 3.42333 3.41453 3.48153 3.30659 3.56654Z" fill="#010101"/>
</svg>
