<svg width="22" height="23" viewBox="0 0 22 23" fill="none" xmlns="http://www.w3.org/2000/svg">
<path fill-rule="evenodd" clip-rule="evenodd" d="M1.14648 19.5C1.14648 19.1203 1.45429 18.8125 1.83398 18.8125H20.1673C20.547 18.8125 20.8548 19.1203 20.8548 19.5C20.8548 19.8797 20.547 20.1875 20.1673 20.1875H1.83398C1.45429 20.1875 1.14648 19.8797 1.14648 19.5Z" fill="white"/>
<path d="M6.87565 15.8333C6.01892 15.8333 5.59055 15.8333 5.27148 15.6491C5.06246 15.5284 4.88888 15.3549 4.7682 15.1458C4.58398 14.8268 4.58398 14.3984 4.58398 13.5417L4.58398 5.29167C4.58398 4.43494 4.58398 4.00657 4.7682 3.6875C4.88888 3.47847 5.06246 3.3049 5.27148 3.18422C5.59055 3 6.01892 3 6.87565 3C7.73238 3 8.16075 3 8.47982 3.18421C8.68884 3.3049 8.86242 3.47847 8.9831 3.6875C9.16732 4.00657 9.16732 4.43494 9.16732 5.29167V13.5417C9.16732 14.3984 9.16732 14.8268 8.9831 15.1458C8.86242 15.3549 8.68884 15.5284 8.47982 15.6491C8.16075 15.8333 7.73238 15.8333 6.87565 15.8333Z" fill="white"/>
<path d="M15.1257 15.8333C14.2689 15.8333 13.8406 15.8333 13.5215 15.6491C13.3125 15.5284 13.1389 15.3549 13.0182 15.1458C12.834 14.8268 12.834 14.3984 12.834 13.5417V8.04167C12.834 7.18494 12.834 6.75657 13.0182 6.4375C13.1389 6.22847 13.3125 6.0549 13.5215 5.93422C13.8406 5.75 14.2689 5.75 15.1257 5.75C15.9824 5.75 16.4107 5.75 16.7298 5.93422C16.9388 6.0549 17.1124 6.22847 17.2331 6.4375C17.4173 6.75657 17.4173 7.18494 17.4173 8.04167V13.5417C17.4173 14.3984 17.4173 14.8268 17.2331 15.1458C17.1124 15.3549 16.9388 15.5284 16.7298 15.6491C16.4107 15.8333 15.9824 15.8333 15.1257 15.8333Z" fill="white"/>
</svg>
