<svg width="22" height="23" viewBox="0 0 22 23" fill="none" xmlns="http://www.w3.org/2000/svg">
<path fill-rule="evenodd" clip-rule="evenodd" d="M1.14453 19.5C1.14453 19.1203 1.45234 18.8125 1.83203 18.8125H20.1654C20.5451 18.8125 20.8529 19.1203 20.8529 19.5C20.8529 19.8797 20.5451 20.1875 20.1654 20.1875H1.83203C1.45234 20.1875 1.14453 19.8797 1.14453 19.5Z" fill="#010101"/>
<path d="M6.8737 15.8333C6.01697 15.8333 5.5886 15.8333 5.26953 15.6491C5.0605 15.5284 4.88693 15.3549 4.76625 15.1458C4.58203 14.8268 4.58203 14.3984 4.58203 13.5417L4.58203 5.29167C4.58203 4.43494 4.58203 4.00657 4.76625 3.6875C4.88693 3.47847 5.0605 3.3049 5.26953 3.18422C5.5886 3 6.01697 3 6.8737 3C7.73043 3 8.15879 3 8.47786 3.18421C8.68689 3.3049 8.86047 3.47847 8.98115 3.6875C9.16536 4.00657 9.16536 4.43494 9.16537 5.29167V13.5417C9.16537 14.3984 9.16536 14.8268 8.98115 15.1458C8.86047 15.3549 8.68689 15.5284 8.47786 15.6491C8.15879 15.8333 7.73043 15.8333 6.8737 15.8333Z" fill="#010101"/>
<path d="M15.1237 15.8333C14.267 15.8333 13.8386 15.8333 13.5195 15.6491C13.3105 15.5284 13.1369 15.3549 13.0162 15.1458C12.832 14.8268 12.832 14.3984 12.832 13.5417V8.04167C12.832 7.18494 12.832 6.75657 13.0162 6.4375C13.1369 6.22847 13.3105 6.0549 13.5195 5.93422C13.8386 5.75 14.267 5.75 15.1237 5.75C15.9804 5.75 16.4088 5.75 16.7279 5.93422C16.9369 6.0549 17.1105 6.22847 17.2311 6.4375C17.4154 6.75657 17.4154 7.18494 17.4154 8.04167V13.5417C17.4154 14.3984 17.4154 14.8268 17.2311 15.1458C17.1105 15.3549 16.9369 15.5284 16.7279 15.6491C16.4088 15.8333 15.9804 15.8333 15.1237 15.8333Z" fill="#010101"/>
</svg>
