<svg width="23" height="23" viewBox="0 0 23 23" fill="none" xmlns="http://www.w3.org/2000/svg">
<path d="M7.26562 2.34375C7.26562 1.95542 6.95083 1.64062 6.5625 1.64062C6.17417 1.64062 5.85938 1.95542 5.85938 2.34375V3.8243C4.51 3.93236 3.62416 4.19754 2.97335 4.84835C2.32254 5.49916 2.05736 6.385 1.9493 7.73438H20.5507C20.4426 6.385 20.1775 5.49916 19.5266 4.84835C18.8758 4.19754 17.99 3.93236 16.6406 3.8243V2.34375C16.6406 1.95542 16.3258 1.64062 15.9375 1.64062C15.5492 1.64062 15.2344 1.95542 15.2344 2.34375V3.7621C14.6107 3.75 13.9116 3.75 13.125 3.75H9.375C8.58841 3.75 7.88931 3.75 7.26562 3.7621V2.34375Z" fill="#010101"/>
<path fill-rule="evenodd" clip-rule="evenodd" d="M20.625 11.25V13.125C20.625 16.6605 20.625 18.4283 19.5266 19.5266C18.4283 20.625 16.6605 20.625 13.125 20.625H9.375C5.83947 20.625 4.0717 20.625 2.97335 19.5266C1.875 18.4283 1.875 16.6605 1.875 13.125V11.25C1.875 10.4634 1.875 9.76431 1.8871 9.14062H20.6129C20.625 9.76431 20.625 10.4634 20.625 11.25ZM15.4688 16.875C16.2454 16.875 16.875 16.2454 16.875 15.4688C16.875 14.6921 16.2454 14.0625 15.4688 14.0625C14.6921 14.0625 14.0625 14.6921 14.0625 15.4688C14.0625 16.2454 14.6921 16.875 15.4688 16.875Z" fill="#010101"/>
</svg>
