<svg width="24" height="24" viewBox="0 0 24 24" fill="none" xmlns="http://www.w3.org/2000/svg">
<rect width="24" height="24" rx="12" fill="white" fill-opacity="0.25"/>
<path fill-rule="evenodd" clip-rule="evenodd" d="M19.1904 12.0005C19.1904 15.9714 15.9714 19.1904 12.0005 19.1904C8.02959 19.1904 4.81055 15.9714 4.81055 12.0005C4.81055 8.02959 8.02959 4.81055 12.0005 4.81055C15.9714 4.81055 19.1904 8.02959 19.1904 12.0005ZM14.8983 9.8217C15.1089 10.0323 15.1089 10.3737 14.8983 10.5843L11.3033 14.1793C11.0927 14.3899 10.7513 14.3899 10.5407 14.1793L9.1027 12.7413C8.89212 12.5307 8.89212 12.1893 9.1027 11.9787C9.31329 11.7681 9.65472 11.7681 9.86531 11.9787L10.922 13.0354L12.5288 11.4285L14.1357 9.8217C14.3463 9.61111 14.6877 9.61111 14.8983 9.8217Z" fill="#BFBFBF"/>
</svg>
