<svg width="22" height="22" viewBox="0 0 22 22" fill="none" xmlns="http://www.w3.org/2000/svg">
<path d="M8.96634 3.56665C9.48322 3.12617 9.74167 2.90592 10.0119 2.77677C10.6369 2.47805 11.3634 2.47805 11.9884 2.77677C12.2586 2.90592 12.517 3.12617 13.0339 3.56665C13.2396 3.74197 13.3425 3.82962 13.4524 3.90325C13.7042 4.07203 13.987 4.18918 14.2844 4.24789C14.4141 4.27351 14.5489 4.28426 14.8183 4.30576C15.4953 4.35978 15.8337 4.38679 16.1161 4.48654C16.7693 4.71724 17.283 5.23099 17.5137 5.88414C17.6135 6.16653 17.6405 6.50501 17.6945 7.18198C17.716 7.45141 17.7268 7.58613 17.7524 7.71587C17.8111 8.01328 17.9282 8.29608 18.097 8.5479C18.1706 8.65776 18.2583 8.76062 18.4336 8.96634C18.8741 9.48322 19.0943 9.74167 19.2235 10.0119C19.5222 10.6369 19.5222 11.3634 19.2235 11.9884C19.0943 12.2586 18.8741 12.517 18.4336 13.0339C18.2583 13.2396 18.1706 13.3425 18.097 13.4524C17.9282 13.7042 17.8111 13.987 17.7524 14.2844C17.7268 14.4141 17.716 14.5489 17.6945 14.8183C17.6405 15.4953 17.6135 15.8337 17.5137 16.1161C17.283 16.7693 16.7693 17.283 16.1161 17.5137C15.8337 17.6135 15.4953 17.6405 14.8183 17.6945C14.5489 17.716 14.4141 17.7268 14.2844 17.7524C13.987 17.8111 13.7042 17.9282 13.4524 18.097C13.3425 18.1706 13.2396 18.2583 13.0339 18.4336C12.517 18.8741 12.2586 19.0943 11.9884 19.2235C11.3634 19.5222 10.6369 19.5222 10.0119 19.2235C9.74167 19.0943 9.48322 18.8741 8.96634 18.4336C8.76062 18.2583 8.65776 18.1706 8.5479 18.097C8.29608 17.9282 8.01328 17.8111 7.71587 17.7524C7.58613 17.7268 7.45141 17.716 7.18198 17.6945C6.50501 17.6405 6.16653 17.6135 5.88414 17.5137C5.23099 17.283 4.71724 16.7693 4.48654 16.1161C4.38679 15.8337 4.35978 15.4953 4.30576 14.8183C4.28426 14.5489 4.27351 14.4141 4.24789 14.2844C4.18918 13.987 4.07203 13.7042 3.90325 13.4524C3.82962 13.3425 3.74197 13.2396 3.56665 13.0339C3.12617 12.517 2.90592 12.2586 2.77677 11.9884C2.47805 11.3634 2.47805 10.6369 2.77677 10.0119C2.90592 9.74167 3.12617 9.48322 3.56665 8.96634C3.74197 8.76062 3.82962 8.65776 3.90325 8.5479C4.07203 8.29608 4.18918 8.01328 4.24789 7.71587C4.27351 7.58613 4.28426 7.45141 4.30576 7.18198C4.35978 6.50502 4.38679 6.16653 4.48654 5.88414C4.71724 5.23099 5.23099 4.71724 5.88414 4.48654C6.16653 4.38679 6.50502 4.35978 7.18198 4.30576C7.45141 4.28426 7.58613 4.27351 7.71587 4.24789C8.01328 4.18918 8.29608 4.07203 8.5479 3.90325C8.65776 3.82962 8.76062 3.74197 8.96634 3.56665Z" fill="white"/>
<path d="M7.79102 11.459L9.62435 13.2923L14.2077 8.70898" stroke="black" stroke-width="1.46667" stroke-linecap="round" stroke-linejoin="round"/>
</svg>
