<svg width="13" height="13" viewBox="0 0 13 13" fill="none" xmlns="http://www.w3.org/2000/svg">
<path fill-rule="evenodd" clip-rule="evenodd" d="M6.5 11.75C8.98528 11.75 11 9.73528 11 7.25C11 4.76472 8.98528 2.75 6.5 2.75C4.01472 2.75 2 4.76472 2 7.25C2 9.73528 4.01472 11.75 6.5 11.75ZM6.5 4.875C6.70711 4.875 6.875 5.04289 6.875 5.25V7.25C6.875 7.45711 6.70711 7.625 6.5 7.625C6.29289 7.625 6.125 7.45711 6.125 7.25V5.25C6.125 5.04289 6.29289 4.875 6.5 4.875Z" fill="#010101"/>
<path fill-rule="evenodd" clip-rule="evenodd" d="M5.125 1.75C5.125 1.54289 5.29289 1.375 5.5 1.375H7.5C7.70711 1.375 7.875 1.54289 7.875 1.75C7.875 1.95711 7.70711 2.125 7.5 2.125H5.5C5.29289 2.125 5.125 1.95711 5.125 1.75Z" fill="#010101"/>
</svg>
