<?xml version="1.0" encoding="UTF-8"?>
<svg version="1.1" xmlns="http://www.w3.org/2000/svg" width="512" height="512">
<path d="M0 0 C0.89489787 -0.00384115 1.78979574 -0.00768229 2.71181172 -0.01163983 C3.70118491 -0.01077335 4.6905581 -0.00990687 5.7099123 -0.00901413 C7.27927657 -0.01347081 7.27927657 -0.01347081 8.88034517 -0.01801753 C12.40942372 -0.02673504 15.93846847 -0.02821536 19.46755695 -0.02970505 C21.98848258 -0.03433111 24.50940751 -0.03935548 27.03033161 -0.04475021 C33.89616697 -0.05789773 40.76199114 -0.06436038 47.62783694 -0.06876087 C51.91447718 -0.07152195 56.20111516 -0.07575911 60.48775387 -0.08026505 C72.35426377 -0.09246041 84.22077186 -0.10275843 96.0872879 -0.10614014 C97.22705528 -0.10646949 97.22705528 -0.10646949 98.38984825 -0.10680549 C99.53236408 -0.10713291 99.53236408 -0.10713291 100.69796103 -0.10746694 C102.24143962 -0.1079104 103.78491821 -0.10835697 105.3283968 -0.10880661 C106.47682803 -0.10913875 106.47682803 -0.10913875 107.64845989 -0.10947761 C120.04966196 -0.1134242 132.45080522 -0.13087275 144.85198458 -0.15416613 C157.58167374 -0.17788363 170.3113334 -0.19034221 183.04104501 -0.19150805 C190.18921631 -0.19242472 197.33731103 -0.1981746 204.48546124 -0.21632767 C211.21017469 -0.23334497 217.93471804 -0.23497826 224.6594553 -0.22618866 C227.12857101 -0.22541666 229.59769445 -0.22978237 232.06679058 -0.23964691 C235.43628658 -0.25231971 238.80526389 -0.24651452 242.17475605 -0.23606491 C243.15297563 -0.24412132 244.13119521 -0.25217772 245.13905782 -0.26047826 C253.01569274 -0.20330929 258.9349385 1.46837451 264.75979328 7.13142776 C268.18466794 12.42889576 268.12589311 16.92487477 267.94729328 23.00642776 C267.93375813 23.88556839 267.92022297 24.76470901 267.90627766 25.67049026 C267.87115951 27.82440328 267.81736022 29.9779978 267.75979328 32.13142776 C268.38958088 32.11571732 269.01936848 32.10000687 269.66824055 32.08382034 C272.55283153 32.02102544 275.43727815 31.98229719 278.32229328 31.94392776 C279.31293781 31.91879105 280.30358234 31.89365433 281.32424641 31.86775589 C288.75244953 31.79372064 293.67269859 32.53546177 299.50979328 37.44392776 C304.26387316 43.12241207 305.19490818 47.66553244 305.05276203 54.81111526 C305.04851719 55.62387924 305.04427235 56.43664322 305.03989887 57.27403641 C305.02320132 59.85184735 304.9855669 62.42885596 304.94729328 65.00642776 C304.93223486 66.76162475 304.91854848 68.51683408 304.90627766 70.27205276 C304.8733272 74.55881689 304.82160781 78.84498663 304.75979328 83.13142776 C305.93952717 83.31101028 305.93952717 83.31101028 307.14309406 83.49422073 C330.96632858 87.2646208 350.6775986 99.25986304 365.75979328 118.13142776 C380.29949627 138.45072748 386.51571037 163.44200332 382.54494953 188.15877151 C379.50382396 204.57922985 372.83366204 219.55046444 361.75979328 232.13142776 C361.13717609 232.87392776 360.51455891 233.61642776 359.87307453 234.38142776 C356.75827623 238.05702489 353.67981803 241.28050067 349.75979328 244.13142776 C350.72533278 249.7987523 352.99703964 254.62433098 355.38479328 259.81892776 C355.79858234 260.78121292 356.21237141 261.74349808 356.63869953 262.73494339 C359.17660276 268.46144451 359.17660276 268.46144451 364.34182453 271.67439651 C366.03371906 271.90062698 366.03371906 271.90062698 367.75979328 272.13142776 C378.46629615 275.93233036 382.47056978 285.02853014 387.11501789 294.74104691 C387.74749802 296.07908764 388.37907195 297.41755707 389.00979328 298.75642776 C389.66785417 300.14382226 390.326141 301.53110961 390.9846468 302.918293 C391.97494148 305.00721084 392.96344597 307.0968981 393.9470644 309.18896866 C395.90022949 313.34096384 397.9065872 317.46082528 399.95901203 321.56502151 C405.30705194 332.43000614 409.40067432 341.299714 406.11135578 353.54549026 C402.5556689 362.25529207 392.99846913 366.29230156 384.94729328 369.94392776 C384.10231281 370.33773636 383.25733234 370.73154495 382.38674641 371.13728714 C374.63188791 374.72829786 367.82365165 376.69690286 359.24807453 374.48299026 C348.55468739 370.23468366 344.6672894 360.54684867 340.07229328 350.69392776 C339.46409578 349.40987108 338.85511747 348.12618396 338.24538898 346.84285355 C336.39975729 342.94695606 334.57728311 339.04051697 332.75979328 335.13142776 C332.47567585 334.52156021 332.19155842 333.91169266 331.89883137 333.28334427 C319.67059269 307.02953816 319.67059269 307.02953816 320.75979328 297.13142776 C321.75979328 294.94783401 321.75979328 294.94783401 322.94729328 293.00642776 C324.13442266 290.8832107 324.79475922 289.67847544 324.63869953 287.23689651 C323.87096118 284.74293903 322.87369566 282.49562873 321.75979328 280.13142776 C321.44800129 279.46240433 321.1362093 278.79338089 320.81496906 278.10408401 C319.37911959 275.02564408 317.94008077 271.94997999 316.45412922 268.89534378 C313.75979328 263.3356129 313.75979328 263.3356129 313.75979328 261.13142776 C311.11979328 261.79142776 308.47979328 262.45142776 305.75979328 263.13142776 C305.75759344 264.357262 305.75759344 264.357262 305.75534916 265.60786057 C305.71827462 285.50572944 305.65925125 305.40342807 305.57589054 325.30115891 C305.53610524 334.92362111 305.50371015 344.54600159 305.48879719 354.16853714 C305.47577805 362.55693414 305.44880666 370.94515128 305.40518022 379.33344698 C305.38257131 383.77376424 305.36688226 388.21385972 305.36790943 392.65423965 C305.36865638 396.83714389 305.35069174 401.01955797 305.31862545 405.20233536 C305.310135 406.73410684 305.30837073 408.26593335 305.31399059 409.79771805 C305.36697527 426.46479826 305.36697527 426.46479826 298.94338703 432.97127151 C298.36717609 433.33349808 297.79096516 433.69572464 297.19729328 434.06892776 C296.61850422 434.4492012 296.03971516 434.82947464 295.44338703 435.22127151 C291.20765227 437.51112349 287.09666282 437.26851029 282.42661762 437.25168228 C281.13645372 437.25296392 281.13645372 437.25296392 279.82022589 437.25427145 C276.92742078 437.25592345 274.03467317 437.25040942 271.14187336 437.24495316 C269.07249166 437.2446712 267.00310986 437.24482919 264.93372822 437.24539566 C259.30597746 437.2456833 253.67824789 437.23979196 248.05050206 437.2328217 C242.17281307 437.22658261 236.29512362 437.22598392 230.41743183 437.2247963 C219.28274692 437.22168463 208.14807179 437.21347344 197.0133912 437.20344681 C184.33883615 437.19228058 171.66428064 437.18677393 158.98972189 437.18175137 C132.91307359 437.1712907 106.83643398 437.15369442 80.75979328 437.13142776 C80.79459797 438.36119339 80.82940266 439.59095901 80.86526203 440.85799026 C80.89341373 442.49078903 80.92071241 444.12360267 80.94729328 445.75642776 C80.97243 446.56466995 80.99756672 447.37291214 81.02346516 448.20564651 C81.0855103 453.29334798 80.59893187 456.72976559 77.75979328 461.13142776 C72.68127726 465.98913874 68.46378327 468.37633387 61.42217731 468.39212418 C59.8367664 468.40275139 59.8367664 468.40275139 58.21932697 468.41359329 C56.49549793 468.40987717 56.49549793 468.40987717 54.73684406 468.40608597 C52.9091901 468.41375237 52.9091901 468.41375237 51.04461384 468.42157364 C47.70975342 468.43308129 44.37514179 468.43554487 41.04027891 468.43301034 C38.25214031 468.43193887 35.46402451 468.43682859 32.6758908 468.44161576 C26.09527968 468.45270324 19.51472563 468.45315288 12.93410969 468.44710159 C6.15567532 468.44106401 -0.62255137 468.45336895 -7.40095031 468.47467166 C-13.22957582 468.49231287 -19.05813537 468.49828499 -24.88678658 468.49503392 C-28.36399397 468.49322465 -31.84105325 468.49582127 -35.31823635 468.50974846 C-39.19839594 468.52470863 -43.07829305 468.51533462 -46.95846844 468.50374222 C-48.10363934 468.51138596 -49.24881023 468.51902969 -50.42868328 468.52690506 C-58.03579768 468.47668892 -63.1403318 467.81798603 -69.05270672 462.69392776 C-72.99721076 458.07322303 -73.49181873 455.07532828 -73.50763226 448.97117996 C-73.51216337 448.24920689 -73.51669448 447.52723382 -73.5213629 446.78338277 C-73.53402518 444.36368821 -73.53238537 441.9442182 -73.53073406 439.52449417 C-73.53671817 437.78981613 -73.54352344 436.05514076 -73.55108929 434.3204689 C-73.56876828 429.60762907 -73.57344546 424.89486184 -73.57472086 420.18199205 C-73.5766196 416.24807447 -73.58397682 412.31417381 -73.59106505 408.38026273 C-73.60735374 399.09906684 -73.61223355 389.81790975 -73.61081219 380.5367012 C-73.60961053 370.96180743 -73.630716 361.38713898 -73.66229951 351.81230223 C-73.68844824 343.59222751 -73.69918008 335.37222645 -73.69790137 327.15211046 C-73.69739133 322.24240156 -73.70309754 317.33289289 -73.72425747 312.4232254 C-73.74361628 307.8053429 -73.74378052 303.18785212 -73.72922421 298.56995583 C-73.72713209 296.87605658 -73.73186098 295.18213296 -73.74394512 293.48827553 C-73.75938741 291.17360415 -73.75009763 288.86028521 -73.73468304 286.54564285 C-73.73577257 285.25111002 -73.73686211 283.95657719 -73.73798466 282.62281609 C-73.00736432 277.49828342 -70.58460473 274.47582578 -66.99020672 270.88142776 C-63.46146468 268.63586465 -60.30943446 268.07814606 -56.24020672 267.13142776 C-56.23781837 266.07952161 -56.23543001 265.02761545 -56.23296928 263.94383335 C-56.17420863 238.36397135 -56.09834712 212.78420381 -56.00449181 187.20444584 C-55.95950137 174.83433063 -55.92009419 162.46424443 -55.89377117 150.09407425 C-55.87081741 139.31387016 -55.83744876 128.53375759 -55.79150516 117.75362605 C-55.76753761 112.04415089 -55.74883197 106.33476658 -55.74259281 100.62524223 C-55.73655796 95.25314268 -55.71661603 89.88127567 -55.68593121 84.50926208 C-55.6771253 82.53599599 -55.67343366 80.56269955 -55.67519855 78.5894146 C-55.67684609 75.89777044 -55.6601966 73.20683959 -55.63893414 70.51529312 C-55.64378171 69.73221293 -55.64862929 68.94913273 -55.65362376 68.14232284 C-55.56213077 61.13705285 -52.75132869 57.57308091 -48.42770672 52.38142776 C-47.63493328 51.42494339 -46.84215984 50.46845901 -46.02536297 49.48299026 C-45.58466473 48.95350784 -45.14396648 48.42402542 -44.68991375 47.87849808 C-43.09420156 45.95547409 -41.50832174 44.02461982 -39.92380047 42.09236526 C-34.00994544 34.88400847 -28.06011747 27.71144745 -22.01779461 20.61043167 C-17.24960831 14.9920898 -12.64377716 9.2466699 -8.14255047 3.41267776 C-5.47646507 0.2155651 -3.99727216 0.00641961 0 0 Z " fill="#176B5C" transform="translate(89.24020671844482,21.868572235107422)"/>
<path d="M0 0 C31.14345249 -0.06840747 62.28688515 -0.12151334 93.4303949 -0.15319599 C97.10545219 -0.1569482 100.78050934 -0.16083116 104.45556641 -0.16479492 C105.18721778 -0.16558185 105.91886916 -0.16636878 106.67269179 -0.16717956 C118.52638892 -0.18024081 130.3800425 -0.2038986 142.23371378 -0.23145839 C154.3926638 -0.25949261 166.55159098 -0.27617205 178.710572 -0.28226548 C186.21600738 -0.28638606 193.72131965 -0.29941009 201.22671714 -0.3237494 C206.97756911 -0.34145121 212.72834184 -0.34337064 218.47921562 -0.33932304 C220.84155219 -0.34015077 223.20389328 -0.34614971 225.56620216 -0.35761642 C228.78358678 -0.37247225 232.00043833 -0.36897868 235.21783447 -0.36076355 C236.15946544 -0.36950207 237.10109641 -0.3782406 238.07126164 -0.38724393 C244.32739393 -0.34386227 244.32739393 -0.34386227 247.58132172 1.31967163 C249.85905678 4.01749459 249.52317574 6.95557687 249.45410156 10.31713867 C249.45468567 11.05884811 249.45526978 11.80055756 249.45587158 12.56474304 C249.45308486 15.01629444 249.42196706 17.4666298 249.390625 19.91796875 C249.38316465 21.61761307 249.37747075 23.317266 249.37347412 25.016922 C249.35820142 29.49042509 249.31890585 33.9634087 249.2746582 38.43670654 C249.23374057 43.00135266 249.21547063 47.56608272 249.1953125 52.13085938 C249.15241292 61.08746783 249.08414204 70.04369072 249 79 C248.05753418 79.52601807 247.11506836 80.05203613 246.14404297 80.59399414 C244.88496554 81.30332527 243.62602078 82.01289192 242.3671875 82.72265625 C241.7486792 83.06703735 241.1301709 83.41141846 240.49291992 83.76623535 C221.11967123 94.72657756 207.39200596 113.33515282 201.28515625 134.65307617 C199.63311657 140.7404505 198.25268854 146.69331526 198 153 C197.9484375 154.00933594 197.896875 155.01867187 197.84375 156.05859375 C197.16158 181.09991763 205.92878206 203.2130376 222.234375 222.14453125 C228.58495365 228.701414 235.70500055 233.81215065 243.72290039 238.14697266 C244.71165665 238.68262848 245.7004129 239.2182843 246.71913147 239.77017212 C247.47181808 240.17601532 248.2245047 240.58185852 249 241 C249.09341112 258.40230919 249.16396329 275.80454022 249.20724869 293.20704269 C249.22788041 301.28720222 249.2560125 309.36720604 249.30175781 317.44726562 C249.3416071 324.48925481 249.36742838 331.53113123 249.37635398 338.57323003 C249.38157203 342.30257069 249.39384851 346.03158877 249.42292023 349.76082611 C249.45509962 353.92240249 249.45596065 358.08341684 249.45410156 362.24511719 C249.46848267 363.48373505 249.48286377 364.72235291 249.49768066 365.99850464 C249.49218201 367.13149994 249.48668335 368.26449524 249.48101807 369.43182373 C249.48470524 370.41629864 249.48839241 371.40077354 249.49219131 372.41508102 C248.83558909 375.86346278 247.86860699 376.99233754 245 379 C241.85285568 379.49219131 241.85285568 379.49219131 238.06512451 379.48101807 C237.36750291 379.48443577 236.66988131 379.48785347 235.95111966 379.49137473 C233.61380479 379.49796279 231.27763871 379.47596395 228.94042969 379.45410156 C227.26498441 379.45297328 225.58953715 379.45360658 223.91409302 379.45587158 C219.36471526 379.4570204 214.81575838 379.43348401 210.26647854 379.40557575 C205.5125739 379.38059004 200.75865988 379.37822233 196.00469971 379.37347412 C187.00200086 379.36103602 177.99949604 379.32820311 168.99688268 379.28807616 C158.7479192 379.24338443 148.49894652 379.22137795 138.24990988 379.20129442 C117.16647419 379.15947117 96.08330454 379.08610838 75 379 C75 364.81 75 350.62 75 336 C78.89731934 335.98018066 82.79463867 335.96036133 86.81005859 335.93994141 C99.6584025 335.87316198 112.50666231 335.79562195 125.3549099 335.71247292 C133.14804487 335.66230339 140.94116909 335.61586109 148.734375 335.578125 C155.52516499 335.54523341 162.31587261 335.5054181 169.10657179 335.45720994 C172.70379967 335.43191659 176.30097271 335.41014385 179.89826584 335.39665604 C183.90934889 335.38148724 187.92016841 335.35086414 191.93115234 335.31884766 C193.13020706 335.31668747 194.32926178 335.31452728 195.56465149 335.31230164 C197.19691429 335.29555641 197.19691429 335.29555641 198.8621521 335.2784729 C199.81159887 335.27294214 200.76104565 335.26741138 201.73926353 335.26171303 C204.2000675 335.21399981 204.2000675 335.21399981 206 333 C206.33333333 330 206.33333333 330 206 327 C203.42765746 324.42765746 202.4385165 324.74236029 198.8621521 324.7215271 C197.7739769 324.71036362 196.6858017 324.69920013 195.56465149 324.68769836 C193.76606941 324.68445808 193.76606941 324.68445808 191.93115234 324.68115234 C190.67264969 324.67110672 189.41414703 324.6610611 188.11750793 324.65071106 C184.66113806 324.6233468 181.20480908 324.60824276 177.7483592 324.59528303 C174.13815065 324.57968047 170.52802598 324.55288116 166.9178772 324.5272522 C160.07915199 324.48041332 153.24041109 324.44369403 146.40160716 324.41057932 C138.61689297 324.37239394 130.83226292 324.32297446 123.04761958 324.27259517 C107.03180097 324.16919933 91.01594755 324.08144712 75 324 C75 312.78 75 301.56 75 290 C78.89731934 289.98018066 82.79463867 289.96036133 86.81005859 289.93994141 C99.6584025 289.87316198 112.50666231 289.79562195 125.3549099 289.71247292 C133.14804487 289.66230339 140.94116909 289.61586109 148.734375 289.578125 C155.52516499 289.54523341 162.31587261 289.5054181 169.10657179 289.45720994 C172.70379967 289.43191659 176.30097271 289.41014385 179.89826584 289.39665604 C183.90934889 289.38148724 187.92016841 289.35086414 191.93115234 289.31884766 C193.13020706 289.31668747 194.32926178 289.31452728 195.56465149 289.31230164 C197.19691429 289.29555641 197.19691429 289.29555641 198.8621521 289.2784729 C199.81159887 289.27294214 200.76104565 289.26741138 201.73926353 289.26171303 C204.2000675 289.21399981 204.2000675 289.21399981 206 287 C205.83582968 283.43407381 205.83582968 283.43407381 205 280 C202.47758839 278.73879419 200.724477 278.86112655 197.90011597 278.84178162 C196.2804744 278.82709839 196.2804744 278.82709839 194.62811279 278.81211853 C192.84355682 278.80348534 192.84355682 278.80348534 191.02294922 278.79467773 C189.77420013 278.78477814 188.52545105 278.77487854 187.23886108 278.76467896 C183.80934188 278.73845517 180.37984641 278.71660803 176.9502883 278.69667697 C173.36812915 278.67483406 169.78601268 278.64743709 166.20388794 278.62062073 C159.41827854 278.57067088 152.63264548 278.52574057 145.84698975 278.48259836 C138.12275751 278.43324555 130.39856806 278.37832018 122.6743772 278.32291877 C106.78295767 278.20906355 90.89149881 278.10223224 75 278 C74.87665283 277.17508057 74.75330566 276.35016113 74.6262207 275.50024414 C74.45695068 274.41864014 74.28768066 273.33703613 74.11328125 272.22265625 C73.94868408 271.15023682 73.78408691 270.07781738 73.61450195 268.97290039 C72.58980239 264.01550407 70.55263509 261.12566044 66.5 258.1875 C62.75586064 256.4090338 59.54719621 255.87538416 55.41888428 255.84178162 C54.50465698 255.8319928 53.59042969 255.82220398 52.64849854 255.81211853 C51.65299988 255.80636307 50.65750122 255.8006076 49.63183594 255.79467773 C48.57786621 255.78477814 47.52389648 255.77487854 46.43798828 255.76467896 C42.95347339 255.73308591 39.46894486 255.70831508 35.984375 255.68359375 C33.56870163 255.66302234 31.15303185 255.64202582 28.73736572 255.62062073 C22.37848819 255.56541945 16.01957827 255.51600153 9.66064453 255.46777344 C3.1721712 255.41754428 -3.3162551 255.36186558 -9.8046875 255.30664062 C-22.53641788 255.1990828 -35.26818843 255.09744746 -48 255 C-48.02332583 229.20127874 -48.04097762 203.40255905 -48.05181217 177.60382938 C-48.0569758 165.62593802 -48.06401977 153.64805319 -48.07543945 141.67016602 C-48.08538424 131.23431517 -48.09185294 120.79846907 -48.09408849 110.36261362 C-48.09539595 104.83324405 -48.098484 99.30388802 -48.10573006 93.77452278 C-48.11248705 88.57654127 -48.11461762 83.37857897 -48.11310768 78.18059349 C-48.11338415 76.26690695 -48.11539117 74.35321981 -48.11920547 72.43953705 C-48.12413771 69.83870069 -48.12300004 67.23793807 -48.12025452 64.63710022 C-48.12316736 63.8696053 -48.1260802 63.10211038 -48.12908131 62.31135803 C-48.11412121 57.11412121 -48.11412121 57.11412121 -47 56 C-44.49010857 55.8892751 -42.0031139 55.83837817 -39.4921875 55.82421875 C-37.93227845 55.80100157 -36.37238261 55.77688349 -34.8125 55.75195312 C-32.35049872 55.7169704 -29.88897625 55.68757665 -27.42675781 55.67407227 C-25.05213836 55.65849392 -22.67892943 55.61820357 -20.3046875 55.57421875 C-19.57837128 55.57612717 -18.85205505 55.57803558 -18.10372925 55.58000183 C-12.8951586 55.45676235 -9.01111476 54.42369992 -5 51 C-0.91001781 45.28892169 -0.39996978 39.6522664 -0.390625 32.8125 C-0.37408875 31.86938965 -0.35755249 30.9262793 -0.34051514 29.95458984 C-0.29228921 26.96965864 -0.27072077 23.98523594 -0.25 21 C-0.22181907 18.96481852 -0.19188869 16.92966046 -0.16015625 14.89453125 C-0.08653709 9.92972941 -0.03680751 4.96520567 0 0 Z " fill="#A6ECB2" transform="translate(95,35)"/>
<path d="M0 0 C1.04321411 -0.00563965 2.08642822 -0.0112793 3.16125488 -0.01708984 C4.31041382 -0.01304138 5.45957275 -0.00899292 6.64355469 -0.00482178 C7.8500769 -0.00832642 9.05659912 -0.01183105 10.29968262 -0.01544189 C13.61372989 -0.02275082 16.9275284 -0.02101698 20.24156189 -0.01468372 C23.70531557 -0.00962971 27.16905842 -0.0143135 30.6328125 -0.01745605 C36.45021479 -0.02109746 42.26756634 -0.01629206 48.08496094 -0.0067749 C54.81624543 0.00411001 61.54740878 0.00058455 68.27869034 -0.01042771 C74.0519731 -0.01949566 79.82521934 -0.02078829 85.59850693 -0.01555037 C89.04929338 -0.01242795 92.50002284 -0.01202876 95.95080566 -0.01862335 C99.79635347 -0.02545866 103.64176493 -0.01599209 107.48730469 -0.00482178 C109.21104309 -0.01089447 109.21104309 -0.01089447 110.96960449 -0.01708984 C112.53442566 -0.00863037 112.53442566 -0.00863037 114.13085938 0 C115.04083679 0.00075405 115.95081421 0.0015081 116.8883667 0.002285 C119.06542969 0.25396729 119.06542969 0.25396729 121.06542969 2.25396729 C121.31990528 5.13101864 121.31990528 5.13101864 121.3261261 8.8901825 C121.32995165 9.579895 121.33377719 10.2696075 121.33771867 10.98022038 C121.34807758 13.3025842 121.34405113 15.62470212 121.34008789 17.94708252 C121.34443278 19.60751577 121.34961518 21.26794701 121.35557556 22.92837524 C121.36900099 27.44693165 121.3695403 31.9654046 121.36701226 36.48397708 C121.36594492 40.25155918 121.37081983 44.01912423 121.37561768 47.78670269 C121.38672517 56.67269506 121.38714334 65.55864516 121.38110352 74.44464111 C121.37506178 83.62189247 121.38737695 92.79899058 121.40867358 101.97621578 C121.42626762 109.84631151 121.43229442 117.71635837 121.42903584 125.58647305 C121.42721929 130.2909566 121.42989604 134.99533086 121.44375038 139.69979668 C121.45628841 144.12307459 121.45442302 148.54611299 121.44133949 152.96938705 C121.43896532 154.59519976 121.4417383 156.2210291 121.44996262 157.84682274 C121.46036139 160.06175262 121.45238585 162.27586856 121.43965149 164.49076843 C121.43981923 165.73166953 121.43998697 166.97257063 121.4401598 168.25107479 C121.06542969 171.25396729 121.06542969 171.25396729 119.85280132 173.15285778 C117.47992419 174.61466769 115.8772282 174.63139206 113.09326172 174.63491821 C112.06694641 174.64337769 111.0406311 174.65183716 109.98321533 174.66055298 C108.85792419 174.65448029 107.73263306 174.64840759 106.57324219 174.64215088 C104.79490997 174.65003632 104.79490997 174.65003632 102.98065186 174.65808105 C99.72854204 174.6690326 96.47679772 174.66645142 93.2246933 174.6569438 C89.82280198 174.64935322 86.42093524 174.65639113 83.01904297 174.66110229 C77.30594493 174.66656162 71.5929632 174.65936367 65.87988281 174.64508057 C59.27294405 174.6287536 52.666283 174.63404199 46.05935097 174.65055978 C40.38877801 174.66416968 34.71828871 174.66609678 29.0477047 174.65824378 C25.66003237 174.65356448 22.27249062 174.65294931 18.88482666 174.66285324 C15.10889733 174.67044556 11.33350628 174.65889383 7.55761719 174.64215088 C6.43232605 174.64822357 5.30703491 174.65429626 4.14764404 174.66055298 C3.12132874 174.65209351 2.09501343 174.64363403 1.03759766 174.63491821 C0.14458954 174.63378714 -0.74841858 174.63265606 -1.66848755 174.63149071 C-3.93457031 174.25396729 -3.93457031 174.25396729 -5.72194195 173.15285778 C-7.55759947 170.27834757 -7.3092503 167.88030934 -7.30879211 164.49076843 C-7.31276652 163.79949594 -7.31674093 163.10822345 -7.32083577 162.39600331 C-7.33047822 160.07428029 -7.31862945 157.75316367 -7.30688477 155.43145752 C-7.30931207 153.76925427 -7.3130308 152.10705248 -7.31794739 150.44485474 C-7.32736766 145.92636947 -7.31792185 141.40810039 -7.30461526 136.88963199 C-7.29331727 132.16733175 -7.29740694 127.44504241 -7.29936218 122.72273254 C-7.3002456 114.79275978 -7.28915417 106.86287244 -7.27075195 98.93292236 C-7.24957632 89.7550868 -7.24607571 80.57737634 -7.25231391 71.39952129 C-7.25800139 62.58155245 -7.25236967 53.76362782 -7.24114037 44.94566536 C-7.23648693 41.18771614 -7.23562372 37.4297939 -7.23772621 33.67184258 C-7.23960488 29.25022481 -7.23153784 24.82873503 -7.21566582 20.40714645 C-7.21141043 18.78091906 -7.21058079 17.1546787 -7.21335602 15.5284481 C-7.21656047 13.31555077 -7.20754052 11.10304005 -7.19526672 8.8901825 C-7.19321385 7.64965842 -7.19116098 6.40913435 -7.18904591 5.13101864 C-6.74319127 0.09027323 -4.47846408 0.00371107 0 0 Z " fill="#66C173" transform="translate(35.9345703125,302.74603271484375)"/>
<path d="M0 0 C12.49856453 9.66306929 21.45889885 22.18027065 27 37 C27.31839844 37.83789062 27.63679687 38.67578125 27.96484375 39.5390625 C30.14243347 46.50333562 30.27737235 53.38985486 30.3125 60.625 C30.31805908 61.59083008 30.32361816 62.55666016 30.3293457 63.55175781 C30.12220216 84.30860265 21.61920979 102.52582157 7.546875 117.6171875 C-10.20338802 134.22402867 -31.40304661 139.93391843 -55.13574219 139.17041016 C-74.94119663 137.99207678 -92.2265671 127.29996599 -105.6875 113.3125 C-121.92956241 94.51354762 -125.6752919 72.20909476 -124 48 C-123.17658498 42.30306597 -121.34229869 37.26160266 -119 32 C-118.72124023 31.36562012 -118.44248047 30.73124023 -118.15527344 30.07763672 C-113.68559369 20.16068945 -107.74198962 12.56969014 -100 5 C-99.37867188 4.34644531 -98.75734375 3.69289062 -98.1171875 3.01953125 C-71.19505838 -23.35932621 -28.94844286 -20.20028705 0 0 Z " fill="#A5EAB0" transform="translate(429,133)"/>
<path d="M0 0 C1.17230919 -0.00786278 1.17230919 -0.00786278 2.36830139 -0.0158844 C4.01822728 -0.02229634 5.66819892 -0.02097829 7.31811523 -0.01245117 C9.83595629 -0.00394577 12.35152387 -0.03270295 14.86914062 -0.06445312 C16.47525974 -0.06606548 18.08138285 -0.06548694 19.6875 -0.0625 C20.43660141 -0.07373398 21.18570282 -0.08496796 21.95750427 -0.09654236 C25.26779461 -0.05264768 27.66464024 0.30583854 30.61273193 1.83988953 C34.09667641 5.77312965 33.57327094 9.3453147 33.4777832 14.43457031 C33.4788784 15.95700348 33.4788784 15.95700348 33.47999573 17.51019287 C33.47651192 20.86541155 33.43761143 24.21924255 33.3984375 27.57421875 C33.38911224 29.9001998 33.38199478 32.22619068 33.3769989 34.55218506 C33.35790675 40.67463284 33.3087858 46.79648769 33.253479 52.91870117 C33.20233494 59.16577126 33.17949515 65.41293715 33.15429688 71.66015625 C33.10067007 83.91822929 33.01532964 96.17586222 32.91015625 108.43359375 C38.52015625 108.43359375 44.13015625 108.43359375 49.91015625 108.43359375 C49.88920898 105.84410889 49.86826172 103.25462402 49.84667969 100.58666992 C49.78046857 92.04118228 49.73624444 83.49568344 49.70290756 74.95000744 C49.68201242 69.76755926 49.65365957 64.58537337 49.60839844 59.40307617 C49.56500949 54.40398383 49.54103367 49.40514413 49.53064728 44.40587807 C49.5232434 42.49642266 49.50878568 40.58698144 49.48723602 38.67763329 C49.45829418 36.00768278 49.45419634 33.33878272 49.45605469 30.66870117 C49.44167358 29.87532349 49.42729248 29.0819458 49.41247559 28.26452637 C49.45270339 22.94042057 49.45270339 22.94042057 51.70758057 20.44216919 C55.07608526 18.89970637 58.40326356 19.02596613 62.03515625 19.0703125 C63.21102295 19.06956474 63.21102295 19.06956474 64.41064453 19.06880188 C66.06480449 19.07113797 67.71896829 19.08083914 69.37304688 19.09741211 C71.90136587 19.1210117 74.42863001 19.11796887 76.95703125 19.11132812 C78.56641252 19.11690513 80.17578936 19.12401515 81.78515625 19.1328125 C82.53941895 19.13190109 83.29368164 19.13098969 84.07080078 19.13005066 C87.79734415 19.18025524 90.80955632 19.2274351 93.91015625 21.43359375 C95.4913165 24.59591425 95.03952747 27.99201082 95.02368164 31.46337891 C95.02382767 32.29272446 95.02397369 33.12207001 95.02412415 33.97654724 C95.02342596 36.7252766 95.01563796 39.47393869 95.0078125 42.22265625 C95.00594799 44.12551842 95.00452424 46.02838107 95.00352478 47.9312439 C94.99970224 52.94540731 94.98987418 57.95954186 94.9788208 62.97369385 C94.96860104 68.08792734 94.96402595 73.20216549 94.95898438 78.31640625 C94.9482517 88.35548144 94.93117841 98.3945352 94.91015625 108.43359375 C96.07933594 108.3871875 97.24851562 108.34078125 98.453125 108.29296875 C100.00127645 108.25543781 101.54945564 108.21903906 103.09765625 108.18359375 C103.86658203 108.15007812 104.63550781 108.1165625 105.42773438 108.08203125 C109.55626056 108.01115526 111.41170789 108.10427319 114.9609375 110.44921875 C115.92580078 111.43148437 115.92580078 111.43148437 116.91015625 112.43359375 C116.42698315 117.86929113 116.42698315 117.86929113 114.3757019 120.10900307 C110.88018683 121.98693491 107.58152869 121.84777568 103.71142578 121.81454468 C102.4609656 121.82156464 102.4609656 121.82156464 101.18524361 121.82872641 C98.38765754 121.8407068 95.59055858 121.83120732 92.79296875 121.82177734 C90.78903924 121.82584169 88.78511197 121.8311828 86.78118896 121.83770752 C81.33499423 121.85140316 75.88896968 121.84607316 70.44277191 121.83657026 C64.7484643 121.82898533 59.05417145 121.83601603 53.35986328 121.84072876 C43.79652281 121.84618971 34.2332518 121.83898577 24.66992188 121.82470703 C13.60676825 121.8083799 2.54378048 121.81366817 -8.51936913 121.83018625 C-18.0107433 121.84379142 -27.50206749 121.84572551 -36.99344826 121.83787024 C-42.6653986 121.8331884 -48.33727095 121.83258291 -54.00921631 121.84247971 C-59.34112071 121.85113298 -64.67281087 121.8451574 -70.00469208 121.82779694 C-71.96388137 121.82382333 -73.92308862 121.82498101 -75.88227081 121.83158493 C-78.55213005 121.83975599 -81.22129833 121.82953275 -83.89111328 121.81454468 C-84.67048689 121.82123684 -85.4498605 121.82792901 -86.25285149 121.83482397 C-89.42635143 121.80015464 -91.73850332 121.61839367 -94.5710144 120.12853432 C-96.08984375 118.43359375 -96.08984375 118.43359375 -96.58984375 114.93359375 C-96.08984375 111.43359375 -96.08984375 111.43359375 -94.60546875 109.7265625 C-90.87714499 107.81029672 -87.46351853 108.11274108 -83.33984375 108.24609375 C-82.54707031 108.25962891 -81.75429687 108.27316406 -80.9375 108.28710938 C-78.98798811 108.32234152 -77.03882749 108.37614554 -75.08984375 108.43359375 C-75.10094681 107.63037186 -75.11204987 106.82714996 -75.12348938 105.99958801 C-75.22375988 98.42238534 -75.29984267 90.84550524 -75.34890461 83.26781178 C-75.37497628 79.37218184 -75.41032802 75.47710102 -75.46704102 71.58178711 C-75.52145039 67.82107349 -75.55128258 64.06088731 -75.56422997 60.29981041 C-75.5734541 58.86644883 -75.59146746 57.43311547 -75.61849403 55.99997902 C-75.65489134 53.98961269 -75.65688702 51.97871328 -75.6574707 49.96801758 C-75.66857376 48.82440262 -75.67967682 47.68078766 -75.69111633 46.5025177 C-74.89613533 42.44489674 -73.29559699 40.96350814 -70.08984375 38.43359375 C-67.16048139 37.9339278 -64.8239432 37.72989134 -61.90234375 37.76953125 C-60.73215698 37.7623558 -60.73215698 37.7623558 -59.53833008 37.7550354 C-57.89434789 37.75164367 -56.2502976 37.76079544 -54.60644531 37.78173828 C-52.0967708 37.80851983 -49.59156746 37.78197175 -47.08203125 37.75 C-45.48045893 37.75330423 -43.87888937 37.75971076 -42.27734375 37.76953125 C-41.15839722 37.75434952 -41.15839722 37.75434952 -40.0168457 37.73886108 C-36.27292106 37.82265073 -34.35423822 38.22493908 -31.38825989 40.56562805 C-28.61580454 44.0251003 -28.47968971 45.58772777 -28.5222168 49.96801758 C-28.52259445 51.2689888 -28.52297211 52.56996002 -28.52336121 53.91035461 C-28.5488908 55.32045458 -28.57497072 56.73054467 -28.6015625 58.140625 C-28.61089472 59.59078246 -28.6180089 61.04095575 -28.6230011 62.49113464 C-28.6420394 66.29735275 -28.69111069 70.10260807 -28.746521 73.90844727 C-28.7977832 77.79625424 -28.82052988 81.68421768 -28.84570312 85.57226562 C-28.89923475 93.19319688 -28.98714218 100.81313744 -29.08984375 108.43359375 C-23.47984375 108.43359375 -17.86984375 108.43359375 -12.08984375 108.43359375 C-12.0987262 107.12480759 -12.10760864 105.81602142 -12.11676025 104.46757507 C-12.19774392 92.15114406 -12.25776008 79.83476686 -12.29709244 67.5181303 C-12.3179932 61.18555824 -12.34635668 54.85320059 -12.39160156 48.52075195 C-12.43496988 42.41292518 -12.45896209 36.30530502 -12.46935272 30.1973362 C-12.47676027 27.86364296 -12.49122489 25.52996141 -12.51276398 23.19635582 C-12.54167748 19.93493323 -12.54580472 16.67437132 -12.54394531 13.4128418 C-12.55832642 12.44180008 -12.57270752 11.47075836 -12.58752441 10.47029114 C-12.54723901 3.96729723 -12.54723901 3.96729723 -10.29142761 1.33514404 C-6.9148356 -0.047573 -3.59105845 -0.014035 0 0 Z " fill="#196D5D" transform="translate(186.08984375,154.56640625)"/>
<path d="M0 0 C0.33 0 0.66 0 1 0 C1.09262149 12.05654515 1.16372524 24.11300586 1.20724869 36.16983414 C1.22813628 41.76813561 1.25647564 47.36619394 1.30175781 52.96435547 C1.34517327 58.36544947 1.36912828 63.76630938 1.37950897 69.16756439 C1.38690804 71.22970007 1.40135647 73.29182274 1.42292023 75.35385895 C1.45189678 78.23911876 1.45595838 81.12340749 1.45410156 84.00878906 C1.46848267 84.86402664 1.48286377 85.71926422 1.49768066 86.60041809 C1.49218201 87.38843307 1.48668335 88.17644806 1.48101807 88.98834229 C1.48470524 89.67046909 1.48839241 90.3525959 1.49219131 91.05539322 C0.73630518 94.04183621 -0.54108831 95.17954172 -3 97 C-6.14714432 97.49219131 -6.14714432 97.49219131 -9.93487549 97.48101807 C-10.63249709 97.48443577 -11.33011869 97.48785347 -12.04888034 97.49137473 C-14.38619521 97.49796279 -16.72236129 97.47596395 -19.05957031 97.45410156 C-20.73501559 97.45297328 -22.41046285 97.45360658 -24.08590698 97.45587158 C-28.63528474 97.4570204 -33.18424162 97.43348401 -37.73352146 97.40557575 C-42.4874261 97.38059004 -47.24134012 97.37822233 -51.99530029 97.37347412 C-60.99799914 97.36103602 -70.00050396 97.32820311 -79.00311732 97.28807616 C-89.2520808 97.24338443 -99.50105348 97.22137795 -109.75009012 97.20129442 C-130.83352581 97.15947117 -151.91669546 97.08610838 -173 97 C-173 82.81 -173 68.62 -173 54 C-167.154021 53.970271 -167.154021 53.970271 -161.18994141 53.93994141 C-148.3415975 53.87316198 -135.49333769 53.79562195 -122.6450901 53.71247292 C-114.85195513 53.66230339 -107.05883091 53.61586109 -99.265625 53.578125 C-92.47483501 53.54523341 -85.68412739 53.5054181 -78.89342821 53.45720994 C-75.29620033 53.43191659 -71.69902729 53.41014385 -68.10173416 53.39665604 C-64.09065111 53.38148724 -60.07983159 53.35086414 -56.06884766 53.31884766 C-54.86979294 53.31668747 -53.67073822 53.31452728 -52.43534851 53.31230164 C-50.80308571 53.29555641 -50.80308571 53.29555641 -49.1378479 53.2784729 C-47.71367774 53.27017676 -47.71367774 53.27017676 -46.26073647 53.26171303 C-43.7999325 53.21399981 -43.7999325 53.21399981 -42 51 C-41.66666667 48 -41.66666667 48 -42 45 C-44.57234254 42.42765746 -45.5614835 42.74236029 -49.1378479 42.7215271 C-50.2260231 42.71036362 -51.3141983 42.69920013 -52.43534851 42.68769836 C-54.23393059 42.68445808 -54.23393059 42.68445808 -56.06884766 42.68115234 C-57.32735031 42.67110672 -58.58585297 42.6610611 -59.88249207 42.65071106 C-63.33886194 42.6233468 -66.79519092 42.60824276 -70.2516408 42.59528303 C-73.86184935 42.57968047 -77.47197402 42.55288116 -81.0821228 42.5272522 C-87.92084801 42.48041332 -94.75958891 42.44369403 -101.59839284 42.41057932 C-109.38310703 42.37239394 -117.16773708 42.32297446 -124.95238042 42.27259517 C-140.96819325 42.16919937 -156.98405269 42.07996395 -173 42 C-173 41.67 -173 41.34 -173 41 C-172.3981444 41.00498599 -171.7962888 41.00997198 -171.17619514 41.01510906 C-156.44888126 41.13327493 -141.72220122 41.18943342 -126.99444771 41.17878246 C-119.87163529 41.17508617 -112.74998041 41.19144576 -105.62744141 41.25708008 C-99.41045344 41.31431658 -93.19475667 41.33182564 -86.97754753 41.3040064 C-83.69279144 41.29063335 -80.4111771 41.30146331 -77.12665176 41.34822655 C-59.88717002 41.57785284 -48.6717395 39.69744166 -35 29 C-33.50791627 27.91477502 -32.01112433 26.83599513 -30.50979614 25.76359558 C-22.89327098 20.31908239 -15.84827228 14.38439644 -9 8 C-6.84154063 6.09294189 -4.6699015 4.20200694 -2.49609375 2.3125 C-1.64347059 1.56450684 -0.80201622 0.80201622 0 0 Z " fill="#8DE398" transform="translate(343,317)"/>
<path d="M0 0 C2.23030023 1.43584688 4.34966001 2.92411817 6.453125 4.5390625 C7.278125 5.15265625 8.103125 5.76625 8.953125 6.3984375 C18.56480922 14.62844211 24.16101609 26.13481699 25.453125 38.5390625 C25.86413236 45.80019261 25.86975766 52.63439776 23.453125 59.5390625 C23.19660156 60.32796875 22.94007813 61.116875 22.67578125 61.9296875 C18.45592722 73.7380344 9.61869787 83.5215791 -1.484375 89.3515625 C-3.15912565 90.10955362 -4.84671203 90.83993006 -6.546875 91.5390625 C-7.29195313 91.85875 -8.03703125 92.1784375 -8.8046875 92.5078125 C-19.48473137 96.41779466 -32.31637446 95.88435941 -42.828125 91.8125 C-57.5873965 84.89939295 -66.70920692 75.34119043 -72.63671875 60.0703125 C-76.44243475 49.48617529 -76.07808512 35.62999171 -71.86328125 25.203125 C-64.47785423 10.25694925 -54.09212231 0.91636102 -38.2890625 -4.59765625 C-25.5836878 -7.52864561 -11.36430767 -6.51878998 0 0 Z " fill="#A7ECB2" transform="translate(406.546875,150.4609375)"/>
<path d="M0 0 C8.0704358 0.61458229 16.01385781 1.69225335 24 3 C24.09339201 23.40113317 24.16395401 43.80222303 24.20724869 64.20352554 C24.22788442 73.67595816 24.25602428 83.14825804 24.30175781 92.62060547 C24.34159469 100.87556189 24.36742546 109.13042219 24.37635398 117.38547206 C24.38157409 121.75754234 24.39386405 126.12933764 24.42292023 130.50131989 C24.45003969 134.61516339 24.45845211 138.72861824 24.45243073 142.84254265 C24.45353253 144.35346271 24.46150732 145.86439557 24.4768219 147.37523842 C24.49669696 149.43685649 24.49195013 151.49700335 24.48101807 153.55865479 C24.48470524 154.7127396 24.48839241 155.86682442 24.49219131 157.0558815 C24 160 24 160 22.49115753 162.37252045 C18.96768461 164.67441427 15.7309326 164.54076617 11.66046143 164.48101807 C10.81174839 164.48443577 9.96303535 164.48785347 9.08860373 164.49137473 C6.24004244 164.49797199 3.39242002 164.47594724 0.54394531 164.45410156 C-1.4960274 164.45297348 -3.53600174 164.45360617 -5.57597351 164.45587158 C-11.11909002 164.4570212 -16.66186166 164.43347166 -22.20489788 164.40557575 C-27.99581348 164.38060341 -33.78673662 164.37822339 -39.57769775 164.37347412 C-50.54596603 164.3610321 -61.51407519 164.32819381 -72.48227334 164.28807616 C-84.96820042 164.24339667 -97.45413503 164.22138102 -109.94012213 164.20129442 C-135.62683935 164.15946233 -161.31340406 164.08828247 -187 164 C-187 157.4 -187 150.8 -187 144 C-183.75348854 143.99453156 -183.75348854 143.99453156 -180.44139099 143.98895264 C-160.06161771 143.95273187 -139.68199185 143.89454337 -119.30233669 143.81609726 C-108.82452069 143.77629437 -98.34677993 143.74390821 -87.86889648 143.72900391 C-78.73596266 143.71599389 -69.6031943 143.6890458 -60.47035366 143.64538693 C-55.63492058 143.62275755 -50.79969171 143.60709021 -45.96420097 143.60811615 C-41.41114612 143.60886189 -36.85854293 143.59094584 -32.30560493 143.55883217 C-30.63634425 143.55032647 -28.96703294 143.54858781 -27.29776001 143.55419731 C-25.01381273 143.56084897 -22.73129764 143.54289111 -20.44749451 143.51898193 C-19.17081122 143.51529476 -17.89412794 143.51160759 -16.57875729 143.50780869 C-10.92992497 142.70626617 -7.22033675 140.541478 -3.625 136 C-1.31603831 131.7373015 -0.87460553 128.44206991 -0.84178162 123.62164307 C-0.8319928 122.53071854 -0.82220398 121.43979401 -0.81211853 120.31581116 C-0.80636307 119.12394699 -0.8006076 117.93208282 -0.79467773 116.70410156 C-0.78477814 115.44530685 -0.77487854 114.18651215 -0.76467896 112.88957214 C-0.73767249 109.44159208 -0.71663992 105.9935984 -0.69667697 102.54557133 C-0.67479111 98.94073575 -0.64741515 95.33594197 -0.62062073 91.73114014 C-0.57072898 84.90663934 -0.52577712 78.08211529 -0.48259836 71.25756907 C-0.4331959 63.48734266 -0.37828894 55.71715819 -0.32291877 47.94697237 C-0.20915274 31.96468703 -0.10230201 15.98236308 0 0 Z " fill="#8CE197" transform="translate(357,282)"/>
<path d="M0 0 C1.04321411 -0.00563965 2.08642822 -0.0112793 3.16125488 -0.01708984 C4.31041382 -0.01304138 5.45957275 -0.00899292 6.64355469 -0.00482178 C7.8500769 -0.00832642 9.05659912 -0.01183105 10.29968262 -0.01544189 C13.61372989 -0.02275082 16.9275284 -0.02101698 20.24156189 -0.01468372 C23.70531557 -0.00962971 27.16905842 -0.0143135 30.6328125 -0.01745605 C36.45021479 -0.02109746 42.26756634 -0.01629206 48.08496094 -0.0067749 C54.81624543 0.00411001 61.54740878 0.00058455 68.27869034 -0.01042771 C74.0519731 -0.01949566 79.82521934 -0.02078829 85.59850693 -0.01555037 C89.04929338 -0.01242795 92.50002284 -0.01202876 95.95080566 -0.01862335 C99.79635347 -0.02545866 103.64176493 -0.01599209 107.48730469 -0.00482178 C109.21104309 -0.01089447 109.21104309 -0.01089447 110.96960449 -0.01708984 C112.53442566 -0.00863037 112.53442566 -0.00863037 114.13085938 0 C115.04083679 0.00075405 115.95081421 0.0015081 116.8883667 0.002285 C119.06542969 0.25396729 119.06542969 0.25396729 121.06542969 2.25396729 C121.25334883 4.87422449 121.31728754 7.38788043 121.29248047 10.00836182 C121.29277252 10.80844666 121.29306458 11.60853149 121.29336548 12.43286133 C121.29196925 15.08427682 121.27639438 17.73541323 121.26074219 20.38677979 C121.2570131 22.22238003 121.25416564 24.05798226 121.25216675 25.89358521 C121.24452209 30.7302396 121.22486649 35.56677431 121.20275879 40.40338135 C121.18231826 45.33663311 121.17316887 50.26990416 121.16308594 55.20318604 C121.14162136 64.88683244 121.10747541 74.57038992 121.06542969 84.25396729 C119.62020352 84.25989078 118.17497036 84.26412419 116.72973633 84.26763916 C115.92492325 84.270177 115.12011017 84.27271484 114.29090881 84.27532959 C110.81640222 84.24197791 107.49939443 83.75345307 104.06542969 83.25396729 C103.40542969 81.60396729 102.74542969 79.95396729 102.06542969 78.25396729 C101.47342773 78.28538818 100.88142578 78.31680908 100.27148438 78.34918213 C72.08233165 79.63643246 48.6746982 69.1169631 24.06542969 56.25396729 C24.06542969 55.92396729 24.06542969 55.59396729 24.06542969 55.25396729 C49.80542969 54.92396729 75.54542969 54.59396729 102.06542969 54.25396729 C102.39542969 44.02396729 102.72542969 33.79396729 103.06542969 23.25396729 C72.04542969 23.25396729 41.02542969 23.25396729 9.06542969 23.25396729 C9.06542969 30.84396729 9.06542969 38.43396729 9.06542969 46.25396729 C2.8006858 43.74806973 -2.54321983 41.52947613 -6.93457031 36.25396729 C-8.34885998 30.40323473 -8.06959424 24.85030287 -7.74707031 18.87896729 C-7.70898854 17.29444161 -7.67574219 15.70979193 -7.64746094 14.12506104 C-7.27660792 0.00602975 -7.27660792 0.00602975 0 0 Z " fill="#A6EBB1" transform="translate(35.9345703125,302.74603271484375)"/>
<path d="M0 0 C5.13144643 1.83973079 8.93034754 5.07573284 11.390625 9.953125 C12.56761521 13.90660492 12.29521126 17.9244445 12 22 C12.69818848 22.25160889 13.39637695 22.50321777 14.11572266 22.76245117 C17.36799593 24.15789499 20.16791593 25.89249564 23.1484375 27.80078125 C24.32987251 28.5384831 25.51219222 29.27476965 26.6953125 30.00976562 C28.54265772 31.16054261 30.38353047 32.31801872 32.2109375 33.50024414 C33.98828377 34.64612713 35.78391584 35.75673179 37.5859375 36.86328125 C38.6486084 37.53657471 39.7112793 38.20986816 40.80615234 38.90356445 C44.09209221 40.39672039 44.09209221 40.39672039 47.74829102 38.71655273 C48.82135498 38.15009033 49.89441895 37.58362793 51 37 C53.44140625 36.671875 53.44140625 36.671875 55.5625 36.75 C56.325625 36.76546875 57.08875 36.7809375 57.875 36.796875 C60 37 60 37 63.0625 38 C66.03774934 38.30574775 66.03774934 38.30574775 67.96875 36.42578125 C70.04118189 34.33401698 72.02968735 32.187868 74 30 C77.11393043 26.96201909 78.28650312 26.09841336 82.625 25.5 C86 26 86 26 88 27.6875 C89.29266664 30.6767916 88.97039491 31.91029921 88 35 C86.109375 37.28125 86.109375 37.28125 83.75 39.5 C82.94175781 40.27214844 82.13351562 41.04429687 81.30078125 41.83984375 C80.54152344 42.55269531 79.78226563 43.26554687 79 44 C77.97448402 45.01612911 76.95246662 46.03583348 75.9375 47.0625 C75.298125 47.701875 74.65875 48.34125 74 49 C74.33 49.66 74.66 50.32 75 51 C75.62760583 57.15053712 74.1811231 61.80513842 71 67 C67.66228086 70.67759133 64.31929755 72.79584827 59.29296875 73.23828125 C53.01293881 73.38837002 48.8369328 73.47416284 44 69 C38.63911383 63.19237331 37.74059035 58.65258474 38 51 C37.29496338 50.7417041 36.58992676 50.4834082 35.86352539 50.21728516 C32.76107033 48.89843096 30.04763728 47.30086398 27.18359375 45.5234375 C26.08982422 44.853125 24.99605469 44.1828125 23.86914062 43.4921875 C22.14657815 42.43131557 20.42583709 41.36774176 18.70825195 40.29882812 C17.03818682 39.26172743 15.36097249 38.23616722 13.68359375 37.2109375 C12.19170532 36.28740479 12.19170532 36.28740479 10.66967773 35.34521484 C7.9028845 33.70000791 7.9028845 33.70000791 4 34 C2.948125 34.495 2.948125 34.495 1.875 35 C-3.20894608 36.76832907 -8.78925941 36.57810431 -13.97265625 35.22265625 C-17.10450928 34.69220025 -17.10450928 34.69220025 -19.71875 36.703125 C-20.6365625 37.54359375 -21.554375 38.3840625 -22.5 39.25 C-23.5422884 40.1780126 -24.58664725 41.10370379 -25.6328125 42.02734375 C-26.17711914 42.51444824 -26.72142578 43.00155273 -27.28222656 43.50341797 C-30.21753778 46.06075989 -33.29761866 48.42974636 -36.375 50.8125 C-38.05158744 52.11493375 -39.72578981 53.41916816 -41.38793945 54.73999023 C-42.48203147 55.59514833 -43.59635899 56.42491105 -44.72729492 57.23071289 C-47.46930714 59.27313707 -48.87492821 60.43678851 -49.62890625 63.83203125 C-49.60699219 64.81558594 -49.58507812 65.79914063 -49.5625 66.8125 C-49.79009368 72.7813278 -50.9264355 76.57544953 -55 81 C-60.09986783 85.16315741 -64.52622248 85.69485244 -71.05859375 85.44140625 C-75.60910391 84.75852757 -78.73833584 83.24598309 -82 80 C-85.55945668 75.16641962 -86.49227634 70.90731612 -86 65 C-87.175625 64.67 -88.35125 64.34 -89.5625 64 C-94.28274344 62.43915273 -98.56524311 60.27216467 -102.9375 57.9375 C-103.60015869 57.58494141 -104.26281738 57.23238281 -104.94555664 56.86914062 C-107.59787553 55.42795279 -109.85428459 54.14571541 -112 52 C-112.32618658 48.93384617 -112.42932497 46.83181713 -111 44.0625 C-107.7231456 42.3216711 -104.47080918 43.16669511 -101 44 C-97.79873064 45.33168684 -94.78611324 46.95513772 -91.75 48.625 C-90.1883058 49.48240074 -88.6207661 50.32926216 -87.046875 51.1640625 C-86.36463867 51.53998535 -85.68240234 51.9159082 -84.97949219 52.30322266 C-82.53370444 53.16413512 -81.40437514 52.89443736 -79 52 C-78.113125 51.484375 -77.22625 50.96875 -76.3125 50.4375 C-72.09828253 48.60868865 -68.53255016 48.41832273 -64 49 C-63.071875 49.45375 -62.14375 49.9075 -61.1875 50.375 C-58.16354153 51.30532354 -58.16354153 51.30532354 -56.24804688 50.12231445 C-54.23481614 48.60945588 -52.36977568 46.9995122 -50.5 45.3125 C-49.0895855 44.10164765 -47.67810573 42.89203516 -46.265625 41.68359375 C-45.55728516 41.06726074 -44.84894531 40.45092773 -44.11914062 39.81591797 C-40.90942126 37.06546951 -37.5874196 34.4677467 -34.25 31.875 C-33.39245117 31.20271362 -33.39245117 31.20271362 -32.51757812 30.5168457 C-30.26076279 28.74871352 -28.05568538 27.03435906 -25.61328125 25.52734375 C-23.73902699 24.08087508 -23.73902699 24.08087508 -23.71484375 21.51171875 C-23.78832031 20.57972656 -23.86179687 19.64773437 -23.9375 18.6875 C-24.08882002 13.89569941 -23.88984269 11.00849147 -21 7 C-14.28748354 0.4117894 -9.49743009 -1.03543411 0 0 Z " fill="#186C5C" transform="translate(202,88)"/>
<path d="M0 0 C3.11856307 2.66474232 6.0851991 5.42745166 8.875 8.4375 C9.40609375 8.9634375 9.9371875 9.489375 10.484375 10.03125 C21.4412854 21.47297944 26.43066659 36.82020966 26.22241211 52.44482422 C25.59539486 69.83161924 18.42932164 85.45800994 5.875 97.4375 C5.33617187 97.99566406 4.79734375 98.55382812 4.2421875 99.12890625 C-6.41613836 109.38553641 -22.0773698 114.02300544 -36.5 113.8125 C-37.51368652 113.80162354 -38.52737305 113.79074707 -39.57177734 113.77954102 C-56.68241985 113.41510441 -70.29948983 107.28193066 -82.46484375 95.26171875 C-93.94985153 83.0683845 -100.67683679 67.51000023 -100.54663086 50.70141602 C-99.9326861 33.50083164 -93.355513 18.52484646 -81.125 6.4375 C-80.43664062 5.72722656 -79.74828125 5.01695312 -79.0390625 4.28515625 C-58.47958312 -15.62467415 -22.75892768 -17.40165088 0 0 Z M-74.9375 17.125 C-85.54393269 29.5942112 -88.19653203 43.13818766 -87.36767578 59.01123047 C-86.24147779 70.27094441 -79.3927138 80.97639243 -71.125 88.4375 C-70.63644531 88.91832031 -70.14789063 89.39914063 -69.64453125 89.89453125 C-59.68282893 99.24102155 -46.75875234 102.06745537 -33.484375 101.74609375 C-19.93727885 101.03324437 -8.11066919 94.35687186 1.09375 84.60546875 C10.66400563 72.95746026 13.77023957 60.30842397 12.875 45.4375 C10.99319672 31.77050502 4.98864668 19.92924787 -5.875 11.3125 C-27.56936646 -4.20125345 -56.26811093 -2.32488193 -74.9375 17.125 Z " fill="#196D5D" transform="translate(419.125,143.5625)"/>
<path d="M0 0 C31.02 0 62.04 0 94 0 C94 10.23 94 20.46 94 31 C81.89163462 31.1529894 69.7832379 31.30174941 57.67472935 31.4429636 C52.05289146 31.50869892 46.43108925 31.57632307 40.80932617 31.64819336 C35.38886445 31.71742183 29.96836519 31.78178097 24.54780388 31.84269524 C22.47483134 31.8668597 20.40187886 31.89280953 18.32895088 31.92053413 C15.43621079 31.958925 12.54346588 31.99109344 9.65063477 32.02172852 C8.78461136 32.03467453 7.91858795 32.04762054 7.02632141 32.06095886 C5.01752584 32.07899823 3.00836647 32.0452683 1 32 C0.67 31.67 0.34 31.34 0 31 C0 20.77 0 10.54 0 0 Z " fill="#176B5C" transform="translate(45,326)"/>
<path d="M0 0 C4.38196421 3.63383448 6.60243405 7.57602471 8.9609375 12.6171875 C9.31459381 13.35139923 9.66825012 14.08561096 10.03262329 14.84207153 C11.15664849 17.18179126 12.26593564 19.52815788 13.375 21.875 C14.11103187 23.41191236 14.84800382 24.94837487 15.5859375 26.484375 C17.03973008 29.51466455 18.47936643 32.55110195 19.90917969 35.59277344 C21.26891808 38.48033625 22.66515895 41.34465371 24.09863281 44.19628906 C24.42634674 44.86137482 24.75406067 45.52646057 25.09170532 46.21170044 C25.97559215 48.00410322 26.87326075 49.78969147 27.77197266 51.57470703 C29.28146947 55.78509277 29.36213401 58.55187924 29 63 C25.4208016 68.05772208 20.04484948 70.27601652 14.5625 72.8125 C13.72912109 73.21919922 12.89574219 73.62589844 12.03710938 74.04492188 C3.82207693 77.90890947 3.82207693 77.90890947 -1 77 C-5.1245651 74.22381125 -7.06019862 71.57706096 -9.1640625 67.109375 C-9.72399902 65.93576416 -10.28393555 64.76215332 -10.86083984 63.55297852 C-11.44948883 62.28559547 -12.03752934 61.01792966 -12.625 59.75 C-13.23695737 58.45004576 -13.8497597 57.15048898 -14.46337891 55.85131836 C-15.71178215 53.20176015 -16.95175854 50.54848344 -18.18554688 47.89208984 C-19.88570196 44.23512469 -21.62016668 40.59558359 -23.359375 36.95703125 C-24.36580747 34.82609856 -25.37108055 32.69461777 -26.375 30.5625 C-26.84502441 29.5818457 -27.31504883 28.60119141 -27.79931641 27.59082031 C-31.94522237 18.65076805 -31.94522237 18.65076805 -31 14 C-28.03741214 8.63641374 -23.09116809 6.66056781 -17.75 4.1875 C-16.92886719 3.78080078 -16.10773438 3.37410156 -15.26171875 2.95507812 C-9.9279313 0.44033681 -5.89680968 -0.91437872 0 0 Z " fill="#66C173" transform="translate(454,307)"/>
<path d="M0 0 C17.68702146 5.45219393 32.4300125 19.47814953 41.00390625 35.671875 C50.44699455 54.46154584 52.22030685 75.89602502 45.7734375 96.0546875 C38.49171618 116.59098509 25.16676847 131.67230698 5.9375 141.8125 C-3.89099776 146.45373505 -13.44956923 149.18870027 -24.3125 149.0625 C-25.05306641 149.05798828 -25.79363281 149.05347656 -26.55664062 149.04882812 C-28.37112899 149.03712175 -30.18557534 149.01918898 -32 149 C-29.69 144.71 -27.38 140.42 -25 136 C-28.63 135.67 -32.26 135.34 -36 135 C-36 134.67 -36 134.34 -36 134 C-34.73027344 133.98582031 -33.46054687 133.97164062 -32.15234375 133.95703125 C-13.75896567 133.53704194 2.37538402 129.31956355 16.25 116.4375 C29.08004122 102.84425698 34.52802468 85.56031315 34.20703125 67.09375 C33.65353594 52.39726114 26.34515385 37.36256993 16 27 C11.20161667 23.02576648 6.18460681 19.45640454 1 16 C0.61605333 13.22737745 0.39657752 10.65676472 0.3125 7.875 C0.27833984 7.12089844 0.24417969 6.36679688 0.20898438 5.58984375 C0.12645722 3.72708799 0.06155289 1.86356674 0 0 Z " fill="#65C073" transform="translate(410,123)"/>
<path d="M0 0 C6.6 0 13.2 0 20 0 C20 31.35 20 62.7 20 95 C13.4 95 6.8 95 0 95 C0 63.65 0 32.3 0 0 Z " fill="#8EE498" transform="translate(186,168)"/>
<path d="M0 0 C10.17431612 6.81151441 17.70084537 17.08774547 20.25 29.1875 C21.64277693 38.14106595 22.02302974 47.36277218 19 56 C18.74347656 56.78890625 18.48695313 57.5778125 18.22265625 58.390625 C13.97304044 70.2822538 5.0772274 80.06140095 -6.125 85.875 C-10.01556434 87.68046501 -13.83222093 89.00335718 -18 90 C-17.40705102 86.09577751 -16.16242668 82.67574472 -14.72753906 79.02539062 C-4.72195607 53.46149982 -0.66654376 27.29883357 0 0 Z " fill="#8EE498" transform="translate(411,154)"/>
<path d="M0 0 C6.6 0 13.2 0 20 0 C20 25.08 20 50.16 20 76 C13.4 76 6.8 76 0 76 C0 50.92 0 25.84 0 0 Z " fill="#8DE398" transform="translate(248,187)"/>
<path d="M0 0 C6.6 0 13.2 0 20 0 C20 18.81 20 37.62 20 57 C13.4 57 6.8 57 0 57 C0 38.19 0 19.38 0 0 Z " fill="#8FE599" transform="translate(124,206)"/>
<path d="M0 0 C29.7 0 59.4 0 90 0 C88.57802152 2.84395697 86.51176952 3.06627644 83.63354492 4.05517578 C82.8676001 4.30509277 82.10165527 4.55500977 81.3125 4.8125 C80.50723877 5.07530762 79.70197754 5.33811523 78.87231445 5.60888672 C53.43345521 13.67397612 26.66664581 17.81424873 0 17 C0 11.39 0 5.78 0 0 Z " fill="#A6ECB1" transform="translate(170,371)"/>
<path d="M0 0 C0.74886475 0.00523682 1.49772949 0.01047363 2.26928711 0.01586914 C3.07817383 0.0190918 3.88706055 0.02231445 4.72045898 0.02563477 C5.5705957 0.03401367 6.42073242 0.04239258 7.29663086 0.05102539 C8.15063477 0.05553711 9.00463867 0.06004883 9.88452148 0.06469727 C12.00108749 0.07652166 14.11761771 0.0944577 16.23413086 0.11352539 C16.25940031 6.7887288 16.27696354 13.46391996 16.2890625 20.13916016 C16.29410411 22.4119513 16.30093723 24.68473919 16.30957031 26.95751953 C16.32164347 30.2165609 16.32736073 33.47555956 16.33178711 36.73461914 C16.33694839 37.75752548 16.34210968 38.78043182 16.34742737 39.83433533 C16.34754066 41.24568504 16.34754066 41.24568504 16.34765625 42.68554688 C16.34987686 43.51827621 16.35209747 44.35100555 16.35438538 45.20896912 C16.23413086 47.11352539 16.23413086 47.11352539 15.23413086 48.11352539 C12.39078038 48.21339514 9.57715923 48.2523042 6.73413086 48.23852539 C5.93620117 48.24239258 5.13827148 48.24625977 4.31616211 48.25024414 C-1.63926147 48.24013306 -1.63926147 48.24013306 -2.76586914 47.11352539 C-2.86400901 45.67612186 -2.89385194 44.23396212 -2.89526367 42.79321289 C-2.89841583 41.87556152 -2.90156799 40.95791016 -2.90481567 40.01245117 C-2.90279144 39.01455566 -2.90076721 38.01666016 -2.89868164 36.98852539 C-2.89963837 35.97129395 -2.90059509 34.9540625 -2.90158081 33.90600586 C-2.90226275 31.75056903 -2.90040749 29.59513017 -2.89624023 27.43969727 C-2.89089219 24.12780168 -2.89618477 20.81604172 -2.90258789 17.50415039 C-2.90192711 15.41560842 -2.90064595 13.32706654 -2.89868164 11.23852539 C-2.90070587 10.24062988 -2.9027301 9.24273437 -2.90481567 8.21459961 C-2.90166351 7.29694824 -2.89851135 6.37929688 -2.89526367 5.43383789 C-2.89446808 4.62188965 -2.89367249 3.80994141 -2.89285278 2.97338867 C-2.7245427 0.50823847 -2.47235985 0.15894474 0 0 Z " fill="#176B5C" transform="translate(122.765869140625,411.886474609375)"/>
<path d="M0 0 C3.58875 -0.061875 7.1775 -0.12375 10.875 -0.1875 C12.57052002 -0.22846802 12.57052002 -0.22846802 14.30029297 -0.27026367 C15.18861816 -0.27775635 16.07694336 -0.28524902 16.9921875 -0.29296875 C17.90339355 -0.3086792 18.81459961 -0.32438965 19.75341797 -0.34057617 C20.49479004 -0.22818604 21.23616211 -0.1157959 22 0 C24.46105545 3.69158318 24.25575793 6.46623554 24.1953125 10.73046875 C24.1924826 11.48088943 24.18965271 12.23131012 24.18673706 13.00447083 C24.17555062 15.39897675 24.15044928 17.79310731 24.125 20.1875 C24.11496819 21.81184355 24.10584269 23.43619297 24.09765625 25.06054688 C24.07561637 29.040509 24.0410974 33.02019088 24 37 C22.15535156 37.19916016 22.15535156 37.19916016 20.2734375 37.40234375 C18.64061531 37.58064043 17.00780334 37.7590308 15.375 37.9375 C14.16263672 38.06801758 14.16263672 38.06801758 12.92578125 38.20117188 C11.73662109 38.33168945 11.73662109 38.33168945 10.5234375 38.46484375 C9.4394165 38.58267212 9.4394165 38.58267212 8.33349609 38.70288086 C5.54473112 39.05796843 2.77302986 39.53782836 0 40 C0 26.8 0 13.6 0 0 Z " fill="#A6EBB1" transform="translate(357,68)"/>
<path d="M0 0 C0.33 0 0.66 0 1 0 C1.09907258 4.19915307 1.17156173 8.39768252 1.21972656 12.59765625 C1.23980982 14.02551121 1.26708252 15.45328425 1.30175781 16.88085938 C1.35042669 18.93640368 1.37299967 20.99085855 1.390625 23.046875 C1.41157227 24.28276367 1.43251953 25.51865234 1.45410156 26.79199219 C1 30 1 30 -0.671875 32.41015625 C-3.56159773 34.38350718 -5.16303556 34.46461626 -8.640625 34.390625 C-10.24550781 34.37128906 -10.24550781 34.37128906 -11.8828125 34.3515625 C-12.99398437 34.31804687 -14.10515625 34.28453125 -15.25 34.25 C-16.93996094 34.22292969 -16.93996094 34.22292969 -18.6640625 34.1953125 C-21.44356896 34.14820222 -24.2213534 34.08243361 -27 34 C-23.64877546 29.48729952 -20.26762852 25.0227592 -16.6875 20.6875 C-15.92566406 19.76195313 -15.16382812 18.83640625 -14.37890625 17.8828125 C-13.59386719 16.93148437 -12.80882813 15.98015625 -12 15 C-10.37378881 13.02182841 -8.74875461 11.04268854 -7.125 9.0625 C-6.40570313 8.18722656 -5.68640625 7.31195313 -4.9453125 6.41015625 C-3.69626059 4.86263611 -2.47920988 3.2884135 -1.3046875 1.68359375 C-0.87414062 1.12800781 -0.44359375 0.57242188 0 0 Z " fill="#88DE95" transform="translate(82,45)"/>
<path d="M0 0 C0.804375 -0.00128906 1.60875 -0.00257813 2.4375 -0.00390625 C3.283125 -0.00003906 4.12875 0.00382812 5 0.0078125 C6.2684375 0.00201172 6.2684375 0.00201172 7.5625 -0.00390625 C8.366875 -0.00261719 9.17125 -0.00132812 10 0 C10.7425 0.00112793 11.485 0.00225586 12.25 0.00341797 C14 0.1328125 14 0.1328125 15 1.1328125 C15.09975032 3.64417354 15.13882183 6.12184665 15.125 8.6328125 C15.13080078 9.68662109 15.13080078 9.68662109 15.13671875 10.76171875 C15.12661378 16.00619872 15.12661378 16.00619872 14 17.1328125 C12.66956375 17.2311846 11.33406656 17.26359842 10 17.265625 C9.195625 17.26691406 8.39125 17.26820313 7.5625 17.26953125 C6.716875 17.26566406 5.87125 17.26179688 5 17.2578125 C4.154375 17.26167969 3.30875 17.26554687 2.4375 17.26953125 C1.633125 17.26824219 0.82875 17.26695312 0 17.265625 C-0.7425 17.26449707 -1.485 17.26336914 -2.25 17.26220703 C-4 17.1328125 -4 17.1328125 -5 16.1328125 C-5.09975032 13.62145146 -5.13882183 11.14377835 -5.125 8.6328125 C-5.12886719 7.93027344 -5.13273437 7.22773438 -5.13671875 6.50390625 C-5.12420214 0.00778416 -5.12420214 0.00778416 0 0 Z " fill="#1C715D" transform="translate(87,379.8671875)"/>
<path d="M0 0 C0.79792969 0.00386719 1.59585938 0.00773437 2.41796875 0.01171875 C3.21589844 0.00785156 4.01382813 0.00398438 4.8359375 0 C10.79136108 0.01011108 10.79136108 0.01011108 11.91796875 1.13671875 C12.01771907 3.64807979 12.05679058 6.1257529 12.04296875 8.63671875 C12.04876953 9.69052734 12.04876953 9.69052734 12.0546875 10.765625 C12.04458253 16.01010497 12.04458253 16.01010497 10.91796875 17.13671875 C8.07461827 17.2365885 5.26099712 17.27549756 2.41796875 17.26171875 C1.62003906 17.26558594 0.82210937 17.26945312 0 17.2734375 C-5.95542358 17.26332642 -5.95542358 17.26332642 -7.08203125 16.13671875 C-7.18178157 13.62535771 -7.22085308 11.1476846 -7.20703125 8.63671875 C-7.21089844 7.93417969 -7.21476562 7.23164063 -7.21875 6.5078125 C-7.20590908 -0.15662286 -6.5927723 0.01119316 0 0 Z " fill="#1A6E5D" transform="translate(127.08203125,379.86328125)"/>
<path d="M0 0 C0.79792969 0.00386719 1.59585938 0.00773437 2.41796875 0.01171875 C3.21589844 0.00785156 4.01382813 0.00398438 4.8359375 0 C10.79136108 0.01011108 10.79136108 0.01011108 11.91796875 1.13671875 C12.01771907 3.64807979 12.05679058 6.1257529 12.04296875 8.63671875 C12.04876953 9.69052734 12.04876953 9.69052734 12.0546875 10.765625 C12.04458253 16.01010497 12.04458253 16.01010497 10.91796875 17.13671875 C8.07461827 17.2365885 5.26099712 17.27549756 2.41796875 17.26171875 C1.62003906 17.26558594 0.82210937 17.26945312 0 17.2734375 C-5.95542358 17.26332642 -5.95542358 17.26332642 -7.08203125 16.13671875 C-7.18178157 13.62535771 -7.22085308 11.1476846 -7.20703125 8.63671875 C-7.21089844 7.93417969 -7.21476562 7.23164063 -7.21875 6.5078125 C-7.20590908 -0.15662286 -6.5927723 0.01119316 0 0 Z " fill="#196D5C" transform="translate(52.08203125,379.86328125)"/>
<path d="M0 0 C6.6 0 13.2 0 20 0 C20.020625 2.454375 20.04125 4.90875 20.0625 7.4375 C20.071604 8.21150146 20.08070801 8.98550293 20.09008789 9.78295898 C20.09724913 11.52221717 20.05024702 13.26145304 20 15 C18.4779041 16.5220959 17.11789918 16.12959521 15 16.1328125 C14.195625 16.13410156 13.39125 16.13539063 12.5625 16.13671875 C11.716875 16.13285156 10.87125 16.12898438 10 16.125 C9.154375 16.12886719 8.30875 16.13273437 7.4375 16.13671875 C6.633125 16.13542969 5.82875 16.13414062 5 16.1328125 C4.2575 16.13168457 3.515 16.13055664 2.75 16.12939453 C1 16 1 16 0 15 C-0.07320163 12.4672235 -0.09227569 9.96896082 -0.0625 7.4375 C-0.041875 4.983125 -0.02125 2.52875 0 0 Z " fill="#1A6F5D" transform="translate(82,444)"/>
<path d="M0 0 C0.804375 -0.00128906 1.60875 -0.00257813 2.4375 -0.00390625 C3.283125 -0.00003906 4.12875 0.00382812 5 0.0078125 C6.2684375 0.00201172 6.2684375 0.00201172 7.5625 -0.00390625 C8.366875 -0.00261719 9.17125 -0.00132812 10 0 C10.7425 0.00112793 11.485 0.00225586 12.25 0.00341797 C14 0.1328125 14 0.1328125 15 1.1328125 C15.09909302 3.46441305 15.12970504 5.79911192 15.125 8.1328125 C15.12886719 10.0509375 15.12886719 10.0509375 15.1328125 12.0078125 C15 15.1328125 15 15.1328125 14 16.1328125 C12.66956375 16.2311846 11.33406656 16.26359842 10 16.265625 C9.195625 16.26691406 8.39125 16.26820313 7.5625 16.26953125 C6.716875 16.26566406 5.87125 16.26179688 5 16.2578125 C4.154375 16.26167969 3.30875 16.26554687 2.4375 16.26953125 C1.633125 16.26824219 0.82875 16.26695312 0 16.265625 C-0.7425 16.26449707 -1.485 16.26336914 -2.25 16.26220703 C-4 16.1328125 -4 16.1328125 -5 15.1328125 C-5.09909302 12.80121195 -5.12970504 10.46651308 -5.125 8.1328125 C-5.12757812 6.8540625 -5.13015625 5.5753125 -5.1328125 4.2578125 C-4.94045167 -0.26832466 -4.12700187 0.00626932 0 0 Z " fill="#1A6E5C" transform="translate(87,411.8671875)"/>
<path d="M0 0 C1.25854492 2.00952148 1.25854492 2.00952148 2.48046875 4.62109375 C2.92197266 5.55630859 3.36347656 6.49152344 3.81835938 7.45507812 C4.27017578 8.43927734 4.72199219 9.42347656 5.1875 10.4375 C5.65091797 11.41783203 6.11433594 12.39816406 6.59179688 13.40820312 C10 20.70145665 10 20.70145665 10 23 C8.75823305 23.70226141 7.50614401 24.38629109 6.25 25.0625 C5.55390625 25.44535156 4.8578125 25.82820313 4.140625 26.22265625 C1.5169841 27.17540176 0.56514397 27.05954285 -2 26 C-3.37207031 23.99047852 -3.37207031 23.99047852 -4.578125 21.37890625 C-5.01640625 20.44369141 -5.4546875 19.50847656 -5.90625 18.54492188 C-6.3496875 17.56072266 -6.793125 16.57652344 -7.25 15.5625 C-7.70890625 14.58216797 -8.1678125 13.60183594 -8.640625 12.59179688 C-12 5.32814825 -12 5.32814825 -12 3 C-10.5682384 2.30062798 -9.12932968 1.61587282 -7.6875 0.9375 C-6.48673828 0.36322266 -6.48673828 0.36322266 -5.26171875 -0.22265625 C-3 -1 -3 -1 0 0 Z " fill="#64BF73" transform="translate(427,275)"/>
<path d="M0 0 C2.97922593 -0.02683987 5.95821295 -0.04676037 8.9375 -0.0625 C9.78763672 -0.07087891 10.63777344 -0.07925781 11.51367188 -0.08789062 C12.32255859 -0.09111328 13.13144531 -0.09433594 13.96484375 -0.09765625 C14.7137085 -0.10289307 15.46257324 -0.10812988 16.23413086 -0.11352539 C18 0 18 0 19 1 C19.07320163 3.5327765 19.09227569 6.03103918 19.0625 8.5625 C19.041875 11.016875 19.02125 13.47125 19 16 C12.73 16 6.46 16 0 16 C0 10.72 0 5.44 0 0 Z " fill="#176B5C" transform="translate(45,412)"/>
<path d="M0 0 C6.27 0 12.54 0 19 0 C19.020625 2.454375 19.04125 4.90875 19.0625 7.4375 C19.071604 8.21150146 19.08070801 8.98550293 19.09008789 9.78295898 C19.09724913 11.52221717 19.05024702 13.26145304 19 15 C17.1144747 16.8855253 14.42231169 16.13246689 11.91796875 16.13671875 C11.12003906 16.13285156 10.32210937 16.12898438 9.5 16.125 C8.70207031 16.12886719 7.90414062 16.13273437 7.08203125 16.13671875 C1.12660767 16.12660767 1.12660767 16.12660767 0 15 C-0.07320163 12.4672235 -0.09227569 9.96896082 -0.0625 7.4375 C-0.041875 4.983125 -0.02125 2.52875 0 0 Z " fill="#176B5C" transform="translate(45,444)"/>
<path d="M0 0 C10.75 0.875 10.75 0.875 13 2 C11.26102321 6.01455213 8.60214985 9.32025266 5.9375 12.75 C5.47794922 13.35199219 5.01839844 13.95398438 4.54492188 14.57421875 C3.38977365 16.07031381 2.19794972 17.53795201 1 19 C0.67 19 0.34 19 0 19 C0 12.73 0 6.46 0 0 Z " fill="#A5EBB1" transform="translate(357,282)"/>
<path d="M0 0 C3.0625 0.3125 3.0625 0.3125 5 1.4375 C6.0625 3.3125 6.0625 3.3125 5.9375 6.375 C5.0625 9.3125 5.0625 9.3125 2.0625 11.3125 C-1 11.125 -1 11.125 -3.9375 10.3125 C-5.9375 7.3125 -5.9375 7.3125 -5.6875 4.75 C-4.58727173 1.17425813 -3.7416128 0.39804391 0 0 Z " fill="#62BD72" transform="translate(133.9375,149.6875)"/>
<path d="M0 0 C1.7325 0.1546875 1.7325 0.1546875 3.5 0.3125 C5.65502531 3.54503796 5.96856135 4.56400923 5.5 8.3125 C4.3125 10.125 4.3125 10.125 2.5 11.3125 C-0.35480169 11.74072025 -1.84492892 11.71909584 -4.3125 10.1875 C-6.02849028 7.47804166 -5.833728 5.44954316 -5.5 2.3125 C-3.5 0.3125 -3.5 0.3125 0 0 Z " fill="#63BE72" transform="translate(258.5,137.6875)"/>
<path d="M0 0 C2.9375 0.8125 2.9375 0.8125 4.9375 2.8125 C4.6875 6.375 4.6875 6.375 3.9375 9.8125 C1.17499964 11.19375018 -1.00981099 11.00329306 -4.0625 10.8125 C-6.0625 8.8125 -6.0625 8.8125 -6.375 5.875 C-6.0625 2.8125 -6.0625 2.8125 -4.9375 0.875 C-3.0625 -0.1875 -3.0625 -0.1875 0 0 Z " fill="#63BE73" transform="translate(197.0625,100.1875)"/>
</svg>
