<?xml version="1.0" encoding="UTF-8"?>
<svg version="1.1" xmlns="http://www.w3.org/2000/svg" width="512" height="512">
<path d="M0 0 C0.96847178 -0.00701996 0.96847178 -0.00701996 1.95650864 -0.01418173 C4.12388287 -0.02616516 6.29062869 -0.01666202 8.45800781 -0.00723267 C10.01021698 -0.0112969 11.56242325 -0.01663795 13.11462402 -0.02316284 C17.33359343 -0.03685994 21.55234319 -0.03152799 25.77131653 -0.02202559 C30.18218588 -0.01444135 34.59303617 -0.02147115 39.00390625 -0.02618408 C46.41181828 -0.03164525 53.81964064 -0.02444058 61.22753906 -0.01016235 C69.79759278 0.00616487 78.3674324 0.00087662 86.93748093 -0.01564157 C94.28956309 -0.02924618 101.64158073 -0.03118113 108.99367142 -0.02332556 C113.38737753 -0.01864339 117.78098294 -0.01803909 122.17468262 -0.02793503 C126.30497787 -0.03658754 130.43499653 -0.0306144 134.56526184 -0.01325226 C136.08302857 -0.0092782 137.60081849 -0.01043713 139.11857605 -0.01704025 C141.1867891 -0.02521003 143.2541098 -0.01499101 145.32226562 0 C147.05999237 0.00169662 147.05999237 0.00169662 148.83282471 0.00342751 C151.66113281 0.38095093 151.66113281 0.38095093 153.536026 1.61955833 C154.97780056 3.87670496 155.02366799 5.27250464 155.00170898 7.94418335 C155.00148239 8.86491135 155.0012558 9.78563934 155.00102234 10.73426819 C154.98553848 11.72497818 154.97005463 12.71568817 154.95410156 13.73641968 C154.94985672 14.7531929 154.94561188 15.76996613 154.9412384 16.81755066 C154.92443279 20.06811905 154.88677663 23.31806963 154.84863281 26.56845093 C154.83358843 28.77091594 154.8198996 30.97339066 154.80761719 33.1758728 C154.77452317 38.57777665 154.72430504 43.97931965 154.66113281 49.38095093 C155.41504429 49.37818555 156.16895576 49.37542017 156.94571304 49.37257099 C175.28149999 49.30634706 193.6172631 49.25668785 211.95314407 49.22551441 C220.82020612 49.21003886 229.68718838 49.18893624 238.55419922 49.15463257 C246.28177815 49.12475123 254.00929932 49.10538093 261.73693442 49.09868544 C265.82949966 49.09477103 269.92189961 49.08555742 274.01441193 49.06376076 C277.86556623 49.04341552 281.71648696 49.0371131 285.5676899 49.04162788 C286.98184795 49.0408018 288.39601373 49.03482431 289.81012535 49.0233345 C291.739835 49.00842302 293.66966964 49.01378168 295.59942627 49.02018738 C297.21993834 49.01603931 297.21993834 49.01603931 298.87318802 49.01180744 C302.21115876 49.45377823 303.51276437 49.75631765 305.66113281 52.38095093 C306.0524856 55.38153183 306.18381796 58.01569808 306.14215088 61.01783752 C306.14556858 61.91061521 306.14898628 62.8033929 306.15250754 63.72322446 C306.15911741 66.7268874 306.13705909 69.72966469 306.11523438 72.73324585 C306.11410657 74.88144408 306.11473845 77.02964385 306.11700439 79.17784119 C306.11815507 85.02058661 306.09458834 90.86300554 306.06670856 96.70567489 C306.04175391 102.80756599 306.0393576 108.90946405 306.03460693 115.01139832 C306.02215969 126.57114256 305.98931437 138.13073602 305.94920897 149.69041377 C305.90454568 162.84861562 305.88251791 176.00682455 305.86242723 189.16508329 C305.82058332 216.23712286 305.75019727 243.30902846 305.66113281 270.38095093 C307.1809375 270.3287439 307.1809375 270.3287439 308.73144531 270.27548218 C310.08299111 270.24732497 311.434555 270.2200269 312.78613281 270.19345093 C313.78386719 270.15574585 313.78386719 270.15574585 314.80175781 270.11727905 C319.53127523 270.04772733 322.67398627 270.84313807 326.66113281 273.38095093 C329.0471863 276.96003116 328.98373696 279.57926649 328.99707031 283.71688843 C329.00372711 284.4332547 329.01038391 285.14962097 329.01724243 285.88769531 C329.02735976 287.40234819 329.03205973 288.91704555 329.03173828 290.43173218 C329.03610469 292.74107984 329.07241011 295.04850477 329.11035156 297.35751343 C329.11622149 298.83146525 329.1201897 300.30542612 329.12207031 301.77938843 C329.13644135 302.46600555 329.15081238 303.15262268 329.1656189 303.86004639 C329.13236261 307.37644967 328.71510083 309.29558386 326.81982422 312.29354858 C322.90124997 316.08271504 318.65849363 315.52387407 313.52850533 315.51237869 C312.68573168 315.51443133 311.84295803 315.51648396 310.97464579 315.51859879 C308.12575245 315.52429282 305.27690709 315.5228086 302.42800903 315.52139282 C300.37483218 315.52397507 298.32165583 315.52698784 296.26848018 315.53039622 C290.60692503 315.53848577 284.94538254 315.54025688 279.2838223 315.54099369 C273.18555945 315.54284083 267.08730322 315.55038638 260.98904419 315.55712891 C246.95032406 315.57143537 232.91160811 315.57724029 218.87288244 315.58182085 C211.93826162 315.58415566 205.00364164 315.58775816 198.06902147 315.59151623 C174.33947804 315.60435178 150.60993508 315.61507155 126.88038826 315.61851883 C125.39048197 315.61874046 123.90057567 315.61896225 122.41066938 315.61918418 C120.9171315 315.61940482 119.42359362 315.61962531 117.93005574 315.61984563 C114.93367648 315.62028819 111.93729722 315.6207353 108.94091797 315.6211853 C108.19798876 315.62129469 107.45505955 315.62140408 106.68961734 315.62151679 C82.59070043 315.62514883 58.49181358 315.64107438 34.39290818 315.66437567 C8.92459578 315.6889561 -16.54369943 315.70269081 -42.01202404 315.70388675 C-44.80623508 315.70405821 -47.60044611 315.70427364 -50.39465714 315.70452118 C-51.08268946 315.70457695 -51.77072178 315.70463272 -52.47960357 315.70469018 C-63.56486537 315.7058421 -74.65009639 315.71687602 -85.73534779 315.73140823 C-96.87106009 315.74575452 -108.00673335 315.7487677 -119.14245592 315.74096826 C-125.17842925 315.73704926 -131.21429871 315.73805208 -137.2502594 315.7520256 C-142.77089072 315.76468969 -148.29133933 315.76363338 -153.81197013 315.75143489 C-155.81397674 315.74946484 -157.81599597 315.75261606 -159.8179848 315.76127926 C-162.53040055 315.77227777 -165.24216072 315.764951 -167.95455742 315.75288773 C-168.73952884 315.76048292 -169.52450026 315.76807811 -170.33325869 315.77590346 C-174.84600362 315.73230241 -177.77130406 315.20693177 -181.33886719 312.38095093 C-183.72071501 308.80817919 -183.67787292 306.17764862 -183.70996094 302.04501343 C-183.71898941 301.32864716 -183.72801788 300.61228088 -183.73731995 299.87420654 C-183.7518158 298.35957005 -183.76070755 296.84487103 -183.7644043 295.33016968 C-183.77629233 293.02049409 -183.82546784 290.71349941 -183.87597656 288.40438843 C-183.88544252 286.93044309 -183.89267674 285.45648139 -183.89746094 283.98251343 C-183.91699326 283.2958963 -183.93652557 282.60927917 -183.95664978 281.90185547 C-183.92082653 278.06695754 -183.42770865 276.49118271 -180.99145508 273.46835327 C-176.67074833 270.0682573 -172.91243044 270.25459115 -167.65136719 270.31845093 C-166.94947266 270.32296265 -166.24757812 270.32747437 -165.52441406 270.3321228 C-163.79586181 270.34388166 -162.06735353 270.36181639 -160.33886719 270.38095093 C-160.34255436 269.53850421 -160.34624153 268.69605749 -160.35004044 267.82808208 C-160.43830281 247.34794491 -160.50453356 226.86784042 -160.54611588 206.38755322 C-160.56675826 196.48350897 -160.59491082 186.57959153 -160.640625 176.67562866 C-160.68044153 168.04529196 -160.70628779 159.41504706 -160.71522117 150.78462106 C-160.72044473 146.21305595 -160.73275658 141.64175352 -160.76178741 137.07027245 C-160.78887475 132.77012037 -160.79732582 128.47033998 -160.79129791 124.1701107 C-160.79240116 122.58943158 -160.80039493 121.00874043 -160.81568909 119.42813492 C-160.83551369 117.2742252 -160.83083557 115.1217293 -160.81988525 112.9677887 C-160.82357243 111.76116168 -160.8272596 110.55453466 -160.8310585 109.31134319 C-160.33886719 106.38095093 -160.33886719 106.38095093 -158.68766022 104.49182129 C-155.71747322 103.08706035 -153.56415342 103.01177357 -150.27716064 103.02018738 C-149.03478134 103.01606339 -147.79240204 103.01193939 -146.51237488 103.00769043 C-145.13845608 103.01830714 -143.76453947 103.02921156 -142.390625 103.04037476 C-140.94177773 103.04122111 -139.49292917 103.04074573 -138.04408264 103.03904724 C-134.11251401 103.03818617 -130.18121971 103.05582997 -126.24971485 103.07676911 C-122.14042869 103.09551724 -118.0311363 103.09728488 -113.92181396 103.10084534 C-106.14099848 103.11017129 -98.36030937 103.1347925 -90.57954955 103.16489381 C-81.72111838 103.1984207 -72.86268119 103.21491952 -64.00420237 103.22998011 C-45.78235231 103.26134159 -27.56061991 103.31411277 -9.33886719 103.38095093 C-9.34885994 101.51173225 -9.34885994 101.51173225 -9.35905457 99.60475159 C-9.41979627 87.87694582 -9.46480644 76.14917184 -9.4943037 64.42124462 C-9.50997819 58.39138942 -9.5312491 52.36166093 -9.56518555 46.33187866 C-9.59771523 40.51583417 -9.61570676 34.69991176 -9.62349892 28.88378334 C-9.62905392 26.66174713 -9.63990107 24.4397178 -9.65605736 22.21773338 C-9.67774647 19.11207874 -9.68083766 16.00693245 -9.67944336 12.9012146 C-9.69022919 11.97692657 -9.70101501 11.05263855 -9.71212769 10.1003418 C-9.70800369 9.2548024 -9.7038797 8.409263 -9.69963074 7.5381012 C-9.70239612 6.80343219 -9.7051615 6.06876318 -9.70801067 5.31183147 C-9.33886719 3.38095093 -9.33886719 3.38095093 -8.21249866 1.64493847 C-5.46220905 -0.21045938 -3.30003749 0.00322196 0 0 Z " fill="#F9A940" transform="translate(183.3388671875,162.61904907226563)"/>
<path d="M0 0 C0.96847178 -0.00701996 0.96847178 -0.00701996 1.95650864 -0.01418173 C4.12388287 -0.02616516 6.29062869 -0.01666202 8.45800781 -0.00723267 C10.01021698 -0.0112969 11.56242325 -0.01663795 13.11462402 -0.02316284 C17.33359343 -0.03685994 21.55234319 -0.03152799 25.77131653 -0.02202559 C30.18218588 -0.01444135 34.59303617 -0.02147115 39.00390625 -0.02618408 C46.41181828 -0.03164525 53.81964064 -0.02444058 61.22753906 -0.01016235 C69.79759278 0.00616487 78.3674324 0.00087662 86.93748093 -0.01564157 C94.28956309 -0.02924618 101.64158073 -0.03118113 108.99367142 -0.02332556 C113.38737753 -0.01864339 117.78098294 -0.01803909 122.17468262 -0.02793503 C126.30497787 -0.03658754 130.43499653 -0.0306144 134.56526184 -0.01325226 C136.08302857 -0.0092782 137.60081849 -0.01043713 139.11857605 -0.01704025 C141.1867891 -0.02521003 143.2541098 -0.01499101 145.32226562 0 C147.05999237 0.00169662 147.05999237 0.00169662 148.83282471 0.00342751 C152.05447265 0.43345405 152.70577472 0.88742155 154.66113281 3.38095093 C154.92955532 6.3573909 155.0138859 9.11977529 154.96179199 12.09422302 C154.95815801 12.98784809 154.95452402 13.88147317 154.95077991 14.80217779 C154.9353185 17.78842463 154.8986388 20.77404116 154.86230469 23.76010132 C154.8475421 25.8827854 154.83426297 28.00548026 154.82238007 30.12818241 C154.79526452 34.61063971 154.75999361 39.09292768 154.71859741 43.57527542 C154.66018207 50.09990683 154.63033744 56.62438007 154.6105957 63.14923096 C154.60394835 65.27855148 154.59728271 67.40787194 154.59059906 69.53719234 C154.5872716 70.59913464 154.58394415 71.66107694 154.58051586 72.75519931 C154.56142043 78.30376631 154.53511664 83.85229705 154.50866699 89.40083313 C154.50061751 91.09467958 154.50061751 91.09467958 154.49240541 92.82274514 C154.48136537 95.13942871 154.47029784 97.45611214 154.45920372 99.77279544 C154.43038351 105.84107527 154.40283026 111.90936088 154.37512207 117.97764587 C154.32285984 129.38356781 154.26951718 140.78948441 154.21575022 152.19539934 C154.14287669 167.66845283 154.07174549 183.14151434 154.00049782 198.61457539 C153.88876611 222.87004053 153.77477002 247.12549447 153.66113281 271.38095093 C99.87113281 271.38095093 46.08113281 271.38095093 -9.33886719 271.38095093 C-9.45986123 204.24717978 -9.45986123 204.24717978 -9.48535156 176.2618103 C-9.49122546 169.85580421 -9.49728699 163.44979834 -9.50366211 157.04379272 C-9.50445336 156.2408694 -9.5052446 155.43794607 -9.50605983 154.61069173 C-9.51911894 141.63662669 -9.54277653 128.66260141 -9.57032558 115.68855997 C-9.59834909 102.38039193 -9.61503697 89.07224474 -9.62113267 75.7640484 C-9.62525547 67.54769069 -9.63829155 59.33144532 -9.66261659 51.11512218 C-9.67843612 45.48605255 -9.68327617 39.85704127 -9.67937132 34.22795101 C-9.67744383 30.97693839 -9.68208681 27.72616485 -9.69648361 24.47517776 C-9.71131264 20.95530268 -9.70785571 17.43591624 -9.69963074 13.91603088 C-9.70836926 12.88199526 -9.71710779 11.84795965 -9.72611111 10.78258961 C-9.72013797 9.84306645 -9.71416482 8.90354329 -9.70801067 7.93554974 C-9.70914983 7.12256851 -9.710289 6.30958728 -9.71146268 5.47197026 C-8.736 -0.00236149 -4.82286767 0.00470877 0 0 Z " fill="#EC3352" transform="translate(183.3388671875,162.61904907226563)"/>
<path d="M0 0 C36.25875 -0.0928125 36.25875 -0.0928125 73.25 -0.1875 C80.88801758 -0.21481201 88.52603516 -0.24212402 96.39550781 -0.27026367 C105.70849609 -0.28381348 105.70849609 -0.28381348 110.06561279 -0.28633118 C113.11467003 -0.2891309 116.16357123 -0.30039206 119.21258545 -0.31672668 C123.09988796 -0.33727701 126.98696299 -0.34347855 130.87431479 -0.33921683 C132.30215142 -0.3401082 133.72999587 -0.34607325 135.15778589 -0.35764539 C137.08456447 -0.37253835 139.01146803 -0.36718603 140.93829346 -0.36076355 C142.55880552 -0.36491162 142.55880552 -0.36491162 144.21205521 -0.36914349 C147.55152561 0.07302587 148.85198714 0.37271449 151 3 C151.39132029 6.01274848 151.52266131 8.66052187 151.48101807 11.67485046 C151.48443577 12.57171171 151.48785347 13.46857295 151.49137473 14.3926118 C151.49798473 17.41009279 151.47592603 20.42669222 151.45410156 23.4440918 C151.45297376 25.60214212 151.45360563 27.76019398 151.45587158 29.91824341 C151.45702227 35.78784686 151.43345534 41.65712533 151.40557575 47.52665305 C151.38062129 53.65657145 151.3782248 59.78649677 151.37347412 65.91645813 C151.36102682 77.52932599 151.32818142 89.14204376 151.28807616 100.75484544 C151.23506666 116.44373236 151.21342716 132.13266109 151.19006729 147.82161427 C151.15242133 172.54785533 151.07274201 197.27377963 151 222 C101.17 222 51.34 222 0 222 C0 148.74 0 75.48 0 0 Z " fill="#00C6A2" transform="translate(338,212)"/>
<path d="M0 0 C0.33 0 0.66 0 1 0 C1 72.93 1 145.86 1 221 C55.36074091 220.55231022 55.36074091 220.55231022 109.72119141 220.0715332 C120.23120117 219.99450684 120.23120117 219.99450684 125.15023804 219.96232605 C128.58841283 219.93878366 132.02639399 219.90668768 135.46444702 219.86943054 C139.85039119 219.82218107 144.23621668 219.78952004 148.62235713 219.76740491 C150.23173665 219.75680918 151.84109257 219.74109529 153.45036435 219.71966994 C155.62590904 219.69144259 157.80076645 219.68200792 159.97647095 219.67720032 C161.19508127 219.66706059 162.4136916 219.65692087 163.66922951 219.64647388 C167.42786918 220.0454138 169.79936623 221.01323966 173 223 C175.38605349 226.57908023 175.32260415 229.19831556 175.3359375 233.3359375 C175.3425943 234.05230377 175.3492511 234.76867004 175.35610962 235.50674438 C175.36622695 237.02139726 175.37092692 238.53609462 175.37060547 240.05078125 C175.37497188 242.36012891 175.41127729 244.66755384 175.44921875 246.9765625 C175.45508867 248.45051432 175.45905689 249.92447519 175.4609375 251.3984375 C175.48249405 252.42836319 175.48249405 252.42836319 175.50448608 253.47909546 C175.4712298 256.99549874 175.05396802 258.91463293 173.15869141 261.91259766 C169.24011716 265.70176411 164.99736082 265.14292314 159.86737251 265.13142776 C159.02459887 265.1334804 158.18182522 265.13553303 157.31351298 265.13764787 C154.46461964 265.14334189 151.61577428 265.14185767 148.76687622 265.14044189 C146.71369937 265.14302415 144.66052302 265.14603691 142.60734737 265.1494453 C136.94579222 265.15753485 131.28424973 265.15930595 125.62268949 265.16004276 C119.52442664 265.1618899 113.42617041 265.16943545 107.32791138 265.17617798 C93.28919125 265.19048444 79.25047529 265.19628936 65.21174962 265.20086992 C58.27712881 265.20320473 51.34250882 265.20680723 44.40788866 265.2105653 C20.67834523 265.22340085 -3.05119773 265.23412062 -26.78074455 265.2375679 C-28.27065085 265.23778954 -29.76055714 265.23801132 -31.25046343 265.23823325 C-32.74400131 265.23845389 -34.23753919 265.23867438 -35.73107708 265.2388947 C-38.72745633 265.23933726 -41.72383559 265.23978437 -44.72021484 265.24023438 C-45.46314405 265.24034377 -46.20607326 265.24045316 -46.97151547 265.24056586 C-71.07043238 265.2441979 -95.16931924 265.26012345 -119.26822463 265.28342474 C-144.73653703 265.30800517 -170.20483225 265.32173988 -195.67315686 265.32293582 C-198.46736789 265.32310728 -201.26157892 265.32332271 -204.05578995 265.32357025 C-204.74382227 265.32362602 -205.43185459 265.32368179 -206.14073638 265.32373925 C-217.22599819 265.32489118 -228.31122921 265.33592509 -239.39648061 265.35045731 C-250.5321929 265.36480359 -261.66786616 265.36781677 -272.80358873 265.36001733 C-278.83956206 265.35609833 -284.87543152 265.35710115 -290.91139221 265.37107468 C-296.43202353 265.38373876 -301.95247215 265.38268245 -307.47310294 265.37048396 C-309.47510955 265.36851391 -311.47712878 265.37166514 -313.47911762 265.38032833 C-316.19153336 265.39132684 -318.90329354 265.38400007 -321.61569023 265.3719368 C-322.40066165 265.37953199 -323.18563307 265.38712718 -323.9943915 265.39495254 C-328.50713644 265.35135148 -331.43243687 264.82598084 -335 262 C-337.38184782 258.42722826 -337.33900573 255.79669769 -337.37109375 251.6640625 C-337.38012222 250.94769623 -337.3891507 250.23132996 -337.39845276 249.49325562 C-337.41294861 247.97861912 -337.42184036 246.4639201 -337.42553711 244.94921875 C-337.43742515 242.63954317 -337.48660065 240.33254848 -337.53710938 238.0234375 C-337.54657534 236.54949217 -337.55380955 235.07553047 -337.55859375 233.6015625 C-337.58789223 232.57163681 -337.58789223 232.57163681 -337.61778259 231.52090454 C-337.58195935 227.68600662 -337.08884146 226.11023178 -334.65258789 223.08740234 C-330.85342286 220.09772346 -328.18322865 219.87651234 -323.49274158 219.89256954 C-321.76472615 219.89480806 -321.76472615 219.89480806 -320.00180131 219.89709181 C-318.73041785 219.9038956 -317.45903438 219.91069939 -316.14912415 219.91770935 C-314.78947676 219.92140219 -313.42982811 219.9246517 -312.07017869 219.92749459 C-308.32581426 219.93661307 -304.58149801 219.95204518 -300.83715951 219.96847737 C-296.80242079 219.98508865 -292.76766611 219.99588856 -288.73291016 220.00738525 C-281.73970985 220.0281114 -274.74653029 220.05254015 -267.75335121 220.07946587 C-257.64232074 220.11839087 -247.53127797 220.15175955 -237.4202235 220.18376113 C-221.01670667 220.2358298 -204.6132086 220.29240782 -188.2097168 220.35180664 C-172.27287527 220.40950604 -156.33602866 220.46507947 -140.39916992 220.51782227 C-139.40721542 220.52110777 -138.41526092 220.52439327 -137.39324719 220.52777833 C-129.63580147 220.55345551 -121.87835535 220.57900916 -114.12090909 220.60452378 C-76.08058113 220.7296719 -38.04029857 220.8655966 0 221 C0 148.07 0 75.14 0 0 Z " fill="#8CB148" transform="translate(337,213)"/>
<path d="M0 0 C6.91824467 2.68258467 9.89567398 12.67752177 12.875 19.0625 C13.28169922 19.91585937 13.68839844 20.76921875 14.10742188 21.6484375 C17.0625 27.92611607 17.0625 27.92611607 17.0625 30.1875 C17.97128906 30.23648438 18.88007813 30.28546875 19.81640625 30.3359375 C26.64138546 30.74193626 33.45541256 31.23105651 40.25 32 C42.06564453 32.19529297 42.06564453 32.19529297 43.91796875 32.39453125 C47.55714026 33.31223537 48.94689888 34.0954676 51.0625 37.1875 C51.65625 40.06640625 51.65625 40.06640625 51.0625 43.1875 C49.27648703 45.44680641 47.65943996 47.20775311 45.5625 49.125 C44.74579834 49.90605103 44.74579834 49.90605103 43.91259766 50.70288086 C40.2448842 54.18390781 36.47890367 57.55744379 32.5859375 60.78515625 C30.81180154 62.30734104 30.81180154 62.30734104 29.0625 65.1875 C29.26638338 67.92202152 29.26638338 67.92202152 29.99609375 70.95703125 C30.23263672 72.09333984 30.46917969 73.22964844 30.71289062 74.40039062 C30.97263672 75.58826172 31.23238281 76.77613281 31.5 78 C32.00853534 80.33772543 32.50757246 82.67754164 32.99609375 85.01953125 C33.22353271 86.05827393 33.45097168 87.0970166 33.68530273 88.16723633 C34.09601944 91.4558942 33.85138924 93.97663768 33.0625 97.1875 C31.375 99.125 31.375 99.125 29.0625 100.1875 C24.70113952 99.7835305 21.62435101 98.64682453 17.875 96.4296875 C16.92882812 95.88699219 15.98265625 95.34429687 15.0078125 94.78515625 C13.04085753 93.63472238 11.07731061 92.4784421 9.1171875 91.31640625 C8.17101562 90.77628906 7.22484375 90.23617187 6.25 89.6796875 C5.39792969 89.17808105 4.54585938 88.67647461 3.66796875 88.15966797 C0.32031807 86.91057267 -1.51419375 87.24252484 -4.9375 88.1875 C-7.58160813 89.38756423 -7.58160813 89.38756423 -10.125 90.9453125 C-11.07117188 91.48800781 -12.01734375 92.03070313 -12.9921875 92.58984375 C-14.95914247 93.74027762 -16.92268939 94.8965579 -18.8828125 96.05859375 C-19.82898438 96.59871094 -20.77515625 97.13882813 -21.75 97.6953125 C-22.60207031 98.19691895 -23.45414063 98.69852539 -24.33203125 99.21533203 C-27.61804412 100.44142866 -29.58653789 100.09913729 -32.9375 99.1875 C-34.8515625 97.51171875 -34.8515625 97.51171875 -35.9375 95.1875 C-35.8984375 92.33203125 -35.8984375 92.33203125 -35.3125 89 C-35.1165625 87.76636719 -34.920625 86.53273438 -34.71875 85.26171875 C-34.20273783 82.39771098 -33.55454458 79.59111423 -32.84375 76.76953125 C-30.70956486 69.07526389 -30.70956486 69.07526389 -32.24609375 61.578125 C-34.3414499 59.4705153 -36.48048961 57.8549002 -38.9375 56.1875 C-40.32694914 54.9958098 -41.70256405 53.78776268 -43.0625 52.5625 C-44.95929769 50.90936209 -46.85531217 49.25727222 -48.7734375 47.62890625 C-51.46509519 45.19630481 -52.84220472 43.66397638 -53.5625 40.0625 C-52.78988981 36.50849314 -51.72656772 35.47393166 -48.9375 33.1875 C-46.37548828 32.45800781 -46.37548828 32.45800781 -43.5078125 32.140625 C-42.46496094 32.01816406 -41.42210937 31.89570312 -40.34765625 31.76953125 C-39.26355469 31.65996094 -38.17945313 31.55039063 -37.0625 31.4375 C-35.44794922 31.24994141 -35.44794922 31.24994141 -33.80078125 31.05859375 C-28.8138853 30.49902836 -23.96019392 30.12628157 -18.9375 30.1875 C-18.70804688 29.41792969 -18.47859375 28.64835937 -18.2421875 27.85546875 C-16.48619727 22.91871777 -14.29562841 18.23644582 -12.0625 13.5 C-11.62808594 12.55060547 -11.19367188 11.60121094 -10.74609375 10.62304688 C-10.31683594 9.71232422 -9.88757813 8.80160156 -9.4453125 7.86328125 C-9.06004395 7.03739502 -8.67477539 6.21150879 -8.27783203 5.3605957 C-6.10053068 1.83051204 -4.16035233 0.2655544 0 0 Z " fill="#EC3251" transform="translate(256.9375,33.8125)"/>
<path d="M0 0 C4.16247954 5.35966816 6.9589297 11.75952821 9.8125 17.875 C10.21919922 18.72835937 10.62589844 19.58171875 11.04492188 20.4609375 C14 26.73861607 14 26.73861607 14 29 C14.7528125 29.04898438 15.505625 29.09796875 16.28125 29.1484375 C22.72598579 29.60207182 29.14665889 30.18278204 35.5625 30.9375 C36.24054688 31.01210449 36.91859375 31.08670898 37.6171875 31.16357422 C41.09221041 31.58924711 44.05086349 32.04592667 47 34 C48.42662219 36.85324437 48.31033868 38.83454549 48 42 C45.47010687 46.11107633 41.80740771 48.9884118 38.1640625 52.0859375 C35.16866444 54.73529679 32.42101812 57.60183954 29.6640625 60.49609375 C28 62 28 62 26 62 C26.15670166 62.81154541 26.31340332 63.62309082 26.47485352 64.45922852 C27.05592488 67.49732729 27.62684879 70.53711671 28.19116211 73.57836914 C28.55658906 75.5309167 28.93347605 77.48130824 29.31054688 79.43164062 C29.53935547 80.67236328 29.76816406 81.91308594 30.00390625 83.19140625 C30.32597046 84.89598999 30.32597046 84.89598999 30.65454102 86.63500977 C31.03595887 90.35026222 30.85200926 93.36418712 30 97 C26.85026053 99.09982631 25.7747788 99.32257949 22.14941406 98.67675781 C16.34394721 96.84886661 11.12893393 93.20592267 5.91796875 90.12890625 C4.97308594 89.58878906 4.02820313 89.04867187 3.0546875 88.4921875 C2.20374512 87.99058105 1.35280273 87.48897461 0.47607422 86.97216797 C-2.5770143 85.77344992 -3.9083667 85.97951064 -7 87 C-9.54225782 88.20257557 -9.54225782 88.20257557 -12.08984375 89.72265625 C-13.03923828 90.26083984 -13.98863281 90.79902344 -14.96679688 91.35351562 C-16.94602449 92.49212455 -18.92260113 93.63535419 -20.89648438 94.78320312 C-22.32250977 95.58854492 -22.32250977 95.58854492 -23.77734375 96.41015625 C-24.63577881 96.90652588 -25.49421387 97.40289551 -26.37866211 97.91430664 C-29.50686143 99.20992947 -31.64453084 99.40973431 -35 99 C-36.85522461 97.75073242 -36.85522461 97.75073242 -38 96 C-39.2598481 89.51392831 -37.29930697 82.52012714 -35.9375 76.1875 C-35.5427904 74.34935399 -35.15574887 72.50954036 -34.77734375 70.66796875 C-34.60452881 69.86641357 -34.43171387 69.0648584 -34.25366211 68.23901367 C-33.98149369 65.83664929 -34.20697511 64.27199183 -35 62 C-36.33598597 60.26379214 -36.33598597 60.26379214 -38.0625 58.6875 C-39.00609375 57.78064453 -39.00609375 57.78064453 -39.96875 56.85546875 C-41.9678218 55.02939355 -44.00547441 53.26033921 -46.0625 51.5 C-53.75633764 44.78291909 -53.75633764 44.78291909 -56 41 C-56.1875 37.75 -56.1875 37.75 -55 35 C-51.50712245 32.46439555 -48.6621891 31.54865911 -44.40234375 31.0859375 C-43.35369141 30.96476562 -42.30503906 30.84359375 -41.22460938 30.71875 C-40.13986328 30.6053125 -39.05511719 30.491875 -37.9375 30.375 C-35.77972339 30.13482119 -33.62216053 29.89271214 -31.46484375 29.6484375 C-30.03579712 29.49640869 -30.03579712 29.49640869 -28.57788086 29.34130859 C-27.30182983 29.17236084 -27.30182983 29.17236084 -26 29 C-25.29109619 28.94400635 -24.58219238 28.8880127 -23.85180664 28.83032227 C-20.81769621 27.46987275 -20.23207133 25.02870788 -18.90625 22.06640625 C-18.6328479 21.47327133 -18.3594458 20.88013641 -18.07775879 20.26902771 C-17.20457482 18.3728442 -16.35047096 16.46896839 -15.5 14.5625 C-14.6489123 12.65994132 -13.7936461 10.76003032 -12.92224121 8.86668396 C-12.13064351 7.14657434 -11.35686219 5.41829899 -10.58398438 3.68969727 C-7.98413508 -0.72499752 -4.78983312 -2.10285356 0 0 Z " fill="#00C6A2" transform="translate(411,107)"/>
<path d="M0 0 C3.5625 0.3125 3.5625 0.3125 5.12475586 1.47631836 C6.97379526 3.83777622 7.97792674 6.23388954 9.12890625 9.00390625 C9.61552734 10.11314453 10.10214844 11.22238281 10.60351562 12.36523438 C11.6149939 14.6985161 12.60221776 17.04246759 13.56445312 19.39648438 C16.05031459 25.4107043 16.05031459 25.4107043 20.81030273 29.48632812 C23.43071965 30.03521498 25.88813039 30.21992847 28.5625 30.3125 C30.38583514 30.53585569 32.2075316 30.77299275 34.02734375 31.0234375 C36.79099719 31.36321476 39.55386278 31.69331494 42.32226562 31.9921875 C43.21494141 32.105625 44.10761719 32.2190625 45.02734375 32.3359375 C45.827771 32.42794434 46.62819824 32.51995117 47.45288086 32.61474609 C50.30955565 33.55958773 51.14303402 34.68550517 52.5625 37.3125 C53.08022589 40.4723279 52.95925205 41.75945367 51.08129883 44.37719727 C50.40091553 45.03776123 49.72053223 45.6983252 49.01953125 46.37890625 C47.90288086 47.4781543 47.90288086 47.4781543 46.76367188 48.59960938 C45.97541016 49.35048828 45.18714844 50.10136719 44.375 50.875 C43.60607422 51.62974609 42.83714844 52.38449219 42.04492188 53.16210938 C38.95461987 56.17283278 36.04337689 58.98319064 32.4765625 61.42578125 C30.21155219 63.22806313 30.21155219 63.22806313 30.44140625 66.4140625 C30.66699219 67.57679688 30.89257812 68.73953125 31.125 69.9375 C31.46337891 71.80341797 31.46337891 71.80341797 31.80859375 73.70703125 C32.43038478 76.68067438 33.05765351 79.65305769 33.6875 82.625 C36.04288769 94.04391954 36.04288769 94.04391954 33.41796875 98.06640625 C30.54774204 99.99399008 28.99797193 99.80440606 25.5625 99.3125 C22.24199662 97.94287587 19.13668419 96.24421959 16 94.5 C14.74413086 93.82227539 14.74413086 93.82227539 13.46289062 93.13085938 C10.13330287 91.32502595 6.92808724 89.57498638 3.84765625 87.36328125 C1.56219976 86.05160787 1.56219976 86.05160787 -1.12890625 86.7734375 C-6.61890211 89.32722542 -11.80290764 92.40990246 -17.00585938 95.5 C-21.89407506 98.2932661 -25.63833719 100.42345073 -31.4375 99.3125 C-33.6276582 97.35982883 -34.35671913 96.21865059 -34.6171875 93.296875 C-34.46636719 92.19085938 -34.46636719 92.19085938 -34.3125 91.0625 C-34.19777344 90.19625 -34.08304688 89.33 -33.96484375 88.4375 C-33.20774525 83.95099035 -32.37296725 79.47888464 -31.45458984 75.02246094 C-30.26351272 69.19513784 -30.26351272 69.19513784 -30.4375 63.3125 C-32.54171134 60.44281051 -32.54171134 60.44281051 -35.4375 57.875 C-35.93499756 57.40199463 -36.43249512 56.92898926 -36.94506836 56.44165039 C-40.50315417 53.08476076 -44.15243428 49.82100703 -47.87890625 46.65234375 C-51.40981834 43.61699827 -51.40981834 43.61699827 -51.75 39.875 C-51.4375 36.3125 -51.4375 36.3125 -50.3125 34.6628418 C-47.66507771 32.75621514 -45.34826264 32.57458859 -42.125 32.14453125 C-40.88492188 31.97373047 -39.64484375 31.80292969 -38.3671875 31.62695312 C-36.42199219 31.37848633 -36.42199219 31.37848633 -34.4375 31.125 C-33.14070313 30.94775391 -31.84390625 30.77050781 -30.5078125 30.58789062 C-21.03348214 29.3125 -21.03348214 29.3125 -17.4375 29.3125 C-17.210625 28.54421875 -16.98375 27.7759375 -16.75 26.984375 C-14.97310319 22.01329463 -12.71568504 17.32065218 -10.4375 12.5625 C-9.76074219 11.12583984 -9.76074219 11.12583984 -9.0703125 9.66015625 C-8.63460937 8.74621094 -8.19890625 7.83226562 -7.75 6.890625 C-7.35425781 6.05950195 -6.95851562 5.22837891 -6.55078125 4.37207031 C-4.69564776 0.94007335 -3.98213024 0.36201184 0 0 Z " fill="#FAA83F" transform="translate(104.4375,152.6875)"/>
<path d="M0 0 C1.632006 -0.01418472 1.632006 -0.01418472 3.29698181 -0.02865601 C4.4720076 -0.02258331 5.64703339 -0.01651062 6.85766602 -0.01025391 C8.66824242 -0.01455917 8.66824242 -0.01455917 10.51539612 -0.01895142 C13.07000192 -0.02099442 15.62462328 -0.01544818 18.17919922 -0.00292969 C22.09255962 0.01310569 26.00488494 -0.00276433 29.91821289 -0.02197266 C32.39803288 -0.01998999 34.87785223 -0.01614585 37.35766602 -0.01025391 C38.53066757 -0.0163266 39.70366913 -0.02239929 40.91221619 -0.02865601 C42.00337234 -0.01919952 43.0945285 -0.00974304 44.21875 0 C45.65745705 0.00358017 45.65745705 0.00358017 47.12522888 0.00723267 C50.33624905 0.48715274 51.57702384 0.86838449 53.67407227 3.38818359 C54.07572784 6.47409489 54.22066589 9.2055546 54.19165039 12.29418945 C54.19865967 13.20503799 54.20566895 14.11588654 54.21289062 15.05433655 C54.23052249 18.07087527 54.21882842 21.08647877 54.20532227 24.10302734 C54.20801592 26.1966622 54.21189728 28.29029583 54.21691895 30.38392639 C54.22282123 34.77470799 54.21422826 39.16516437 54.19555664 43.5559082 C54.17278094 49.18648933 54.18587711 54.81630728 54.2098465 60.44686031 C54.22429664 64.77142594 54.21970179 69.09581048 54.20933533 73.42038155 C54.20666515 75.49643608 54.20994798 77.57250701 54.21925354 79.6485424 C54.22940448 82.55039919 54.21393754 85.45101865 54.19165039 88.3527832 C54.19974731 89.21265839 54.20784424 90.07253357 54.21618652 90.95846558 C54.16300276 94.69331939 54.09113725 96.76598146 51.97595215 99.92153931 C49.19702151 101.6921368 47.6091941 101.88931125 44.32641602 101.88989258 C42.72455444 101.903964 42.72455444 101.903964 41.09033203 101.9183197 C39.94234131 101.90708572 38.79435059 101.89585175 37.61157227 101.88427734 C36.42813232 101.88573257 35.24469238 101.88718781 34.02539062 101.88868713 C31.52381935 101.88702747 29.02223794 101.87545889 26.52075195 101.85473633 C22.68860564 101.82579336 18.85784323 101.83412488 15.02563477 101.84716797 C12.59594053 101.84093033 10.16625067 101.8325392 7.73657227 101.82177734 C6.58858154 101.82471298 5.44059082 101.82764862 4.2578125 101.83067322 C3.18990479 101.81798904 2.12199707 101.80530487 1.02172852 101.79223633 C0.08337158 101.78683334 -0.85498535 101.78143036 -1.82177734 101.77586365 C-4.81357079 101.31268913 -6.19763793 100.52679725 -8.32592773 98.38818359 C-8.70092773 94.82568359 -8.70092773 94.82568359 -8.32592773 91.38818359 C-6.32592773 89.38818359 -6.32592773 89.38818359 -4.26315308 89.14767456 C-3.41487946 89.15211578 -2.56660583 89.15655701 -1.69262695 89.16113281 C-0.73178192 89.16128387 0.22906311 89.16143494 1.21902466 89.16159058 C2.25864349 89.17191315 3.29826233 89.18223572 4.36938477 89.19287109 C5.43196503 89.19570099 6.49454529 89.19853088 7.58932495 89.20144653 C10.99268725 89.2126672 14.39578912 89.23777523 17.79907227 89.26318359 C20.10245389 89.27321095 22.40583963 89.28233723 24.70922852 89.29052734 C30.36435818 89.31091354 36.01892273 89.35005899 41.67407227 89.38818359 C41.67407227 78.49818359 41.67407227 67.60818359 41.67407227 56.38818359 C38.31606445 56.41138672 34.95805664 56.43458984 31.49829102 56.45849609 C28.25163145 56.47408658 25.00497603 56.48623477 21.75830078 56.49804688 C19.49916726 56.50811417 17.24004679 56.52176897 14.98095703 56.5390625 C11.73670227 56.56327867 8.49261955 56.57465935 5.24829102 56.58349609 C4.23570724 56.59381866 3.22312347 56.60414124 2.17985535 56.61477661 C1.2391066 56.61492767 0.29835785 56.61507874 -0.67089844 56.61523438 C-1.49918655 56.6196756 -2.32747467 56.62411682 -3.18086243 56.62869263 C-5.32592773 56.38818359 -5.32592773 56.38818359 -8.32592773 54.38818359 C-8.98961786 48.30435747 -8.98961786 48.30435747 -7.09342957 45.68681335 C-4.80927986 44.00858891 -3.48994531 44.02493412 -0.67089844 44.04760742 C0.26985031 44.04783401 1.21059906 44.04806061 2.17985535 44.04829407 C3.698731 44.07151985 3.698731 44.07151985 5.24829102 44.09521484 C6.28726028 44.09945969 7.32622955 44.10370453 8.39668274 44.108078 C11.71857502 44.12488511 15.03986301 44.16254163 18.36157227 44.20068359 C20.61221455 44.21572778 22.86286634 44.22941664 25.11352539 44.24169922 C30.6341284 44.27224479 36.15342308 44.33096381 41.67407227 44.38818359 C41.67407227 33.82818359 41.67407227 23.26818359 41.67407227 12.38818359 C38.31606445 12.42298828 34.95805664 12.45779297 31.49829102 12.49365234 C28.25163626 12.51703803 25.00499082 12.53526028 21.75830078 12.55297852 C19.49914359 12.56807962 17.24001577 12.58856201 14.98095703 12.61450195 C11.73666134 12.65082667 8.49275271 12.66789668 5.24829102 12.68115234 C4.23570724 12.6966362 3.22312347 12.71212006 2.17985535 12.72807312 C0.76873222 12.72841301 0.76873222 12.72841301 -0.67089844 12.72875977 C-1.49918655 12.7354216 -2.32747467 12.74208344 -3.18086243 12.74894714 C-5.85303203 12.2995336 -6.72863669 11.54756099 -8.32592773 9.38818359 C-8.96442845 4.28017789 -8.96442845 4.28017789 -7.13536072 1.72494507 C-4.67345034 -0.09384954 -3.04613907 0.0075865 0 0 Z " fill="#FEFDFB" transform="translate(82.325927734375,305.61181640625)"/>
<path d="M0 0 C1.11125244 -0.00945648 2.22250488 -0.01891296 3.36743164 -0.02865601 C5.16748657 -0.01954697 5.16748657 -0.01954697 7.00390625 -0.01025391 C8.2355249 -0.01312408 9.46714355 -0.01599426 10.73608398 -0.01895142 C14.00988582 -0.02151799 17.28326162 -0.00943251 20.55700684 0.00732422 C22.5645101 0.01317806 24.57161994 0.00734564 26.57910156 -0.00292969 C30.4292232 -0.02142621 34.27876059 -0.01922633 38.12890625 -0.01025391 C39.32894287 -0.0163266 40.52897949 -0.02239929 41.76538086 -0.02865601 C43.43225952 -0.01447128 43.43225952 -0.01447128 45.1328125 0 C46.6014978 0.00358017 46.6014978 0.00358017 48.09985352 0.00723267 C50.56640625 0.38818359 50.56640625 0.38818359 52.38174438 1.60726929 C53.93984324 3.94957525 53.94691513 5.46535345 53.95458984 8.27099609 C53.96404633 9.26212402 53.97350281 10.25325195 53.98324585 11.27441406 C53.97717316 12.34320801 53.97110046 13.41200195 53.96484375 14.51318359 C53.96771393 15.61162598 53.97058411 16.71006836 53.97354126 17.84179688 C53.97558361 20.16520706 53.97004188 22.48863438 53.95751953 24.81201172 C53.94146903 28.37425071 53.95736323 31.93535501 53.9765625 35.49755859 C53.9745801 37.75276944 53.97073649 40.00797958 53.96484375 42.26318359 C53.97395279 43.86637451 53.97395279 43.86637451 53.98324585 45.50195312 C53.97378937 46.49308105 53.96433289 47.48420898 53.95458984 48.50537109 C53.95220306 49.37790527 53.94981628 50.25043945 53.94735718 51.14941406 C53.56640625 53.38818359 53.56640625 53.38818359 52.33308411 55.17207336 C50.04883323 56.74446012 48.6737304 56.75097709 45.91137695 56.72875977 C44.9706282 56.72853317 44.02987946 56.72830658 43.06062317 56.72807312 C41.54174751 56.70484734 41.54174751 56.70484734 39.9921875 56.68115234 C38.95321823 56.6769075 37.91424896 56.67266266 36.84379578 56.66828918 C33.52190349 56.65148208 30.2006155 56.61382556 26.87890625 56.57568359 C24.62826396 56.56063941 22.37761218 56.54695054 20.12695312 56.53466797 C14.60635012 56.5041224 9.08705543 56.44540337 3.56640625 56.38818359 C3.56640625 66.94818359 3.56640625 77.50818359 3.56640625 88.38818359 C6.840625 88.35337891 10.11484375 88.31857422 13.48828125 88.28271484 C16.6588453 88.25931971 19.82939973 88.24110284 23 88.22338867 C25.20381981 88.20830068 27.4076096 88.18782783 29.61132812 88.16186523 C32.77872122 88.12548302 35.94571736 88.10845727 39.11328125 88.09521484 C40.59160431 88.07198906 40.59160431 88.07198906 42.09979248 88.04829407 C43.02044495 88.04806747 43.94109741 88.04784088 44.88964844 88.04760742 C46.10210236 88.03761467 46.10210236 88.03761467 47.33905029 88.02742004 C50.16871377 88.48573899 51.530985 89.38776487 53.56640625 91.38818359 C53.94140625 94.95068359 53.94140625 94.95068359 53.56640625 98.38818359 C50.94707742 101.00751242 49.80573256 100.64600433 46.15454102 100.6628418 C45.02319229 100.67237381 43.89184357 100.68190582 42.72621155 100.69172668 C41.49913986 100.69081528 40.27206818 100.68990387 39.0078125 100.68896484 C37.75258286 100.69324997 36.49735321 100.6975351 35.2040863 100.70195007 C32.54501419 100.70770258 29.88632908 100.70911819 27.22729492 100.70385742 C23.81958788 100.69806408 20.4124246 100.7149875 17.00480747 100.7382021 C13.75581303 100.75647708 10.50684912 100.75275419 7.2578125 100.75146484 C5.42024132 100.76527946 5.42024132 100.76527946 3.54554749 100.77937317 C2.4110466 100.77314438 1.27654572 100.76691559 0.10766602 100.76049805 C-1.39219093 100.76144218 -1.39219093 100.76144218 -2.92234802 100.7624054 C-5.43359375 100.38818359 -5.43359375 100.38818359 -7.25466919 99.1633606 C-8.78835698 96.85399545 -8.82010701 95.37804612 -8.83764648 92.61303711 C-8.85033066 91.64515762 -8.86301483 90.67727814 -8.87608337 89.68006897 C-8.87314774 88.63628586 -8.8702121 87.59250275 -8.8671875 86.51708984 C-8.87242935 85.44321518 -8.8776712 84.36934052 -8.8830719 83.26292419 C-8.88949822 80.99080266 -8.88814726 78.71864789 -8.87963867 76.4465332 C-8.87113485 72.9674966 -8.89987346 69.49010451 -8.93164062 66.01123047 C-8.93325282 63.80485075 -8.93267475 61.59846813 -8.9296875 59.39208984 C-8.94092148 58.35033096 -8.95215546 57.30857208 -8.96372986 56.23524475 C-8.89656749 49.28320052 -8.89656749 49.28320052 -7.0559082 45.72485352 C-2.81426806 43.56276621 1.33183967 43.89936146 6.01953125 43.99755859 C7.03488953 44.00321838 8.0502478 44.00887817 9.09637451 44.01470947 C12.33686626 44.03708606 15.57624915 44.08728605 18.81640625 44.13818359 C21.01430694 44.15824688 23.21222497 44.17649795 25.41015625 44.19287109 C30.79634297 44.23355226 36.18013468 44.31184274 41.56640625 44.38818359 C41.56640625 33.82818359 41.56640625 23.26818359 41.56640625 12.38818359 C38.20839844 12.43458984 34.85039062 12.48099609 31.390625 12.52880859 C28.14397697 12.55998945 24.89734552 12.58428569 21.65063477 12.60791016 C19.39144443 12.62804525 17.13230633 12.65535549 14.87329102 12.68994141 C11.62893804 12.73837522 8.38527308 12.76113336 5.140625 12.77880859 C3.62174934 12.80977631 3.62174934 12.80977631 2.07218933 12.84136963 C0.66106621 12.84182281 0.66106621 12.84182281 -0.77856445 12.84228516 C-1.60685257 12.8511676 -2.43514069 12.86005005 -3.28852844 12.86920166 C-5.43359375 12.38818359 -5.43359375 12.38818359 -7.20109558 10.5199585 C-8.72876982 7.87763603 -8.89615928 6.39485954 -8.43359375 3.38818359 C-6.02078019 0.06994296 -3.96999611 0.00967754 0 0 Z " fill="#F9FDFC" transform="translate(384.43359375,278.61181640625)"/>
<path d="M0 0 C2.9375 0.8125 2.9375 0.8125 4.9375 2.8125 C5.12556596 5.55354769 5.18928404 8.19274287 5.16455078 10.93408203 C5.16484283 11.77318115 5.16513489 12.61228027 5.16543579 13.47680664 C5.16403933 16.25807944 5.14846335 19.03908634 5.1328125 21.8203125 C5.12908349 23.74559381 5.12623599 25.67087701 5.12423706 27.59616089 C5.11659176 32.6695477 5.0969356 37.74282044 5.0748291 42.81616211 C5.05438995 47.99070696 5.04523948 53.16527019 5.03515625 58.33984375 C5.01369054 68.49744602 4.97954381 78.65496353 4.9375 88.8125 C5.49735596 88.79678955 6.05721191 88.7810791 6.6340332 88.76489258 C9.1725859 88.70250152 11.71097729 88.66349782 14.25 88.625 C15.13107422 88.59986328 16.01214844 88.57472656 16.91992188 88.54882812 C17.76748047 88.53916016 18.61503906 88.52949219 19.48828125 88.51953125 C20.26856689 88.5038208 21.04885254 88.48811035 21.8527832 88.47192383 C24.48155473 88.90138118 25.34295073 89.71529728 26.9375 91.8125 C27.3125 94.3125 27.3125 94.3125 26.9375 96.8125 C25.31539355 98.97529512 24.42681714 99.7278011 21.73669434 100.19345093 C20.88192505 100.19583771 20.02715576 100.19822449 19.14648438 100.20068359 C18.1753772 100.21014008 17.20427002 100.21959656 16.20373535 100.2293396 C15.15681519 100.22326691 14.10989502 100.21719421 13.03125 100.2109375 C11.95500366 100.21380768 10.87875732 100.21667786 9.76989746 100.21963501 C7.49356561 100.22167725 5.21721628 100.21613629 2.94091797 100.20361328 C-0.54890073 100.18756255 -4.03756119 100.20345728 -7.52734375 100.22265625 C-9.73698173 100.22067385 -11.94661899 100.21683024 -14.15625 100.2109375 C-15.20317017 100.21701019 -16.25009033 100.22308289 -17.32873535 100.2293396 C-18.78539612 100.21515488 -18.78539612 100.21515488 -20.27148438 100.20068359 C-21.55363831 100.19710342 -21.55363831 100.19710342 -22.86169434 100.19345093 C-25.0625 99.8125 -25.0625 99.8125 -26.86975098 98.51089478 C-28.0625 96.8125 -28.0625 96.8125 -27.9375 93.25 C-27.0625 89.8125 -27.0625 89.8125 -24.0625 87.8125 C-18.4525 87.8125 -12.8425 87.8125 -7.0625 87.8125 C-7.3925 67.3525 -7.7225 46.8925 -8.0625 25.8125 C-12.0225 31.0925 -15.9825 36.3725 -20.0625 41.8125 C-23.0625 43.8125 -23.0625 43.8125 -26.125 43.625 C-29.0625 42.8125 -29.0625 42.8125 -31.0625 39.8125 C-30.91417461 34.50986719 -28.61203022 31.40562468 -25.3125 27.5 C-24.31622103 26.27985875 -23.3215006 25.05844369 -22.328125 23.8359375 C-21.80025391 23.19108398 -21.27238281 22.54623047 -20.72851562 21.88183594 C-17.17883863 17.47282917 -13.80097007 12.92865065 -10.39160156 8.41088867 C-9.87049805 7.72486572 -9.34939453 7.03884277 -8.8125 6.33203125 C-8.35359375 5.72464111 -7.8946875 5.11725098 -7.421875 4.49145508 C-3.60656422 -0.22081005 -3.60656422 -0.22081005 0 0 Z " fill="#FEF9FA" transform="translate(258.0625,254.1875)"/>
</svg>
