<svg width="31" height="30" viewBox="0 0 31 30" fill="none" xmlns="http://www.w3.org/2000/svg">
<path d="M5.11328 5.625H25.3633C25.6616 5.625 25.9478 5.74353 26.1588 5.9545C26.3698 6.16548 26.4883 6.45163 26.4883 6.75V23.25C26.4883 23.5484 26.3698 23.8345 26.1588 24.0455C25.9478 24.2565 25.6616 24.375 25.3633 24.375H5.11328C4.81491 24.375 4.52876 24.2565 4.31779 24.0455C4.10681 23.8345 3.98828 23.5484 3.98828 23.25V6.75C3.98828 6.45163 4.10681 6.16548 4.31779 5.9545C4.52876 5.74353 4.81491 5.625 5.11328 5.625ZM24.2383 10.3927L15.3193 18.3802L6.23828 10.368V22.125H24.2383V10.3927ZM6.81316 7.875L15.3069 15.3698L23.678 7.875H6.81316Z" fill="url(#paint0_linear_2_2053)"/>
<defs>
<linearGradient id="paint0_linear_2_2053" x1="26.4883" y1="15" x2="3.98828" y2="15" gradientUnits="userSpaceOnUse">
<stop stop-color="#DBD633"/>
<stop offset="0.5" stop-color="#9ED473"/>
<stop offset="1" stop-color="#1CCDE6"/>
</linearGradient>
</defs>
</svg>
