<svg width="31" height="30" viewBox="0 0 31 30" fill="none" xmlns="http://www.w3.org/2000/svg">
<path d="M12.275 13.5173C13.3307 15.3718 14.8665 16.9076 16.721 17.9633L17.7155 16.5705C17.8755 16.3466 18.1119 16.189 18.3802 16.1276C18.6484 16.0663 18.9299 16.1054 19.1713 16.2375C20.7624 17.107 22.5195 17.63 24.3272 17.772C24.6093 17.7944 24.8726 17.9222 25.0646 18.1301C25.2567 18.338 25.3633 18.6106 25.3633 18.8936V23.9134C25.3633 24.1919 25.2601 24.4606 25.0734 24.6674C24.8868 24.8741 24.6301 25.0043 24.353 25.0327C23.7568 25.0946 23.156 25.125 22.5508 25.125C12.9208 25.125 5.11328 17.3175 5.11328 7.6875C5.11328 7.08225 5.14366 6.4815 5.20553 5.88525C5.23394 5.60816 5.36414 5.35146 5.57092 5.16484C5.7777 4.97822 6.04636 4.87494 6.32491 4.875H11.3447C11.6277 4.87496 11.9003 4.9816 12.1082 5.17363C12.3161 5.36567 12.4439 5.629 12.4663 5.91112C12.6083 7.71877 13.1312 9.47589 14.0008 11.067C14.1329 11.3084 14.172 11.5898 14.1107 11.8581C14.0493 12.1264 13.8917 12.3628 13.6678 12.5228L12.275 13.5173ZM9.43778 12.7781L11.5753 11.2515C10.9687 9.94211 10.5531 8.55245 10.3412 7.125H7.37453C7.36778 7.31175 7.36441 7.49962 7.36441 7.6875C7.36328 16.0755 14.1628 22.875 22.5508 22.875C22.7387 22.875 22.9265 22.8716 23.1133 22.8638V19.8971C21.6858 19.6852 20.2962 19.2696 18.9868 18.663L17.4602 20.8005C16.8455 20.5617 16.2485 20.2797 15.6737 19.9567L15.6084 19.9196C13.4018 18.6638 11.5745 16.8365 10.3187 14.6299L10.2815 14.5646C9.95855 13.9897 9.6766 13.3928 9.43778 12.7781Z" fill="url(#paint0_linear_2_2058)"/>
<defs>
<linearGradient id="paint0_linear_2_2058" x1="25.3633" y1="15" x2="5.11328" y2="15" gradientUnits="userSpaceOnUse">
<stop stop-color="#DBD633"/>
<stop offset="0.5" stop-color="#9ED473"/>
<stop offset="1" stop-color="#1CCDE6"/>
</linearGradient>
</defs>
</svg>
