<svg width="31" height="30" viewBox="0 0 31 30" fill="none" xmlns="http://www.w3.org/2000/svg">
<path d="M15.2383 24C17.6252 24 19.9144 23.0518 21.6022 21.364C23.2901 19.6761 24.2383 17.3869 24.2383 15C24.2383 12.6131 23.2901 10.3239 21.6022 8.63604C19.9144 6.94821 17.6252 6 15.2383 6C12.8513 6 10.5621 6.94821 8.87432 8.63604C7.18649 10.3239 6.23828 12.6131 6.23828 15C6.23828 17.3869 7.18649 19.6761 8.87432 21.364C10.5621 23.0518 12.8513 24 15.2383 24ZM15.2383 26.25C9.02491 26.25 3.98828 21.2134 3.98828 15C3.98828 8.78663 9.02491 3.75 15.2383 3.75C21.4517 3.75 26.4883 8.78663 26.4883 15C26.4883 21.2134 21.4517 26.25 15.2383 26.25ZM11.7395 16.3162L8.92928 15.4399C8.32178 15.2542 8.31841 14.8357 9.06541 14.5354L20.015 10.3054C20.6507 10.0466 21.0107 10.374 20.8048 11.1941L18.9407 19.9916C18.8102 20.6182 18.4333 20.7679 17.9102 20.4788L15.0403 18.3548L13.7027 19.6462C13.5654 19.779 13.454 19.8926 13.2425 19.9207C13.0322 19.95 12.8589 19.887 12.7318 19.5382L11.753 16.3084L11.7395 16.3174V16.3162Z" fill="url(#paint0_linear_2_2066)"/>
<defs>
<linearGradient id="paint0_linear_2_2066" x1="26.4883" y1="15" x2="3.98828" y2="15" gradientUnits="userSpaceOnUse">
<stop stop-color="#DBD633"/>
<stop offset="0.5" stop-color="#9ED473"/>
<stop offset="1" stop-color="#1CCDE6"/>
</linearGradient>
</defs>
</svg>
