<svg width="200" height="34" viewBox="0 0 200 34" fill="none" xmlns="http://www.w3.org/2000/svg">
<path d="M28.5605 33.5997C29.0169 33.5072 29.4609 33.3746 29.8884 33.1978C30.3158 33.025 30.7183 32.812 31.0793 32.5708C31.403 32.3658 31.7018 32.1207 31.9881 31.8635C35.3701 29.9786 38.1629 29.8781 46.8233 29.8459C47.5993 30.5854 48.6616 31.0436 49.8359 31.0436C52.2054 31.0436 54.1309 29.1788 54.1309 26.8799C54.1309 25.7667 53.6827 24.7177 52.8694 23.934C52.056 23.1503 50.9771 22.7203 49.8359 22.7243C48.6616 22.7243 47.5993 23.1824 46.8233 23.9219C44.6032 23.9018 42.769 23.8697 41.217 23.8014C43.1134 20.8474 44.3667 17.9457 44.9476 15.1284C45.4165 14.9234 45.8564 14.6421 46.234 14.2804C47.8441 12.7129 47.8524 9.98003 46.2257 8.39654C45.4124 7.61283 44.3335 7.1828 43.1881 7.17878C42.0387 7.17878 40.9598 7.61284 40.1547 8.39252C39.7771 8.75825 39.4908 9.18024 39.275 9.63841C36.3619 10.2011 33.3617 11.4188 30.3033 13.2595C30.2369 11.7484 30.2079 9.96395 30.1954 7.81379C30.959 7.06223 31.432 6.03739 31.432 4.90001C31.432 2.60516 29.5024 0.736328 27.1288 0.736328C24.7552 0.736328 22.8339 2.60516 22.8339 4.90001C22.8339 6.00122 23.2737 7.0341 24.0705 7.8178C24.058 9.97199 24.029 11.7564 23.9626 13.2716C20.896 11.4188 17.8791 10.2011 14.9495 9.63841C14.7461 9.18426 14.4722 8.75825 14.0988 8.39252C12.4264 6.7809 9.70424 6.7809 8.02776 8.40056C7.21857 9.1923 6.7704 10.2372 6.7704 11.3505C6.7704 12.4638 7.21442 13.5047 8.01946 14.2884C8.39709 14.6541 8.83695 14.9314 9.31002 15.1364C9.89097 17.9577 11.1483 20.8635 13.0489 23.8255C11.4928 23.8858 9.65859 23.9059 7.44265 23.9219C6.66666 23.1824 5.60849 22.7243 4.43827 22.7243C3.29296 22.7243 2.21404 23.1503 1.39655 23.934C0.583205 24.7217 0.13504 25.7667 0.13089 26.8799C0.13089 29.1788 2.0605 31.0436 4.43412 31.0436C5.60434 31.0436 6.66666 30.5854 7.43851 29.8459C16.1321 29.9022 18.9913 30.1032 22.5268 32.0845C22.7343 32.2533 22.9459 32.4181 23.1659 32.5628C23.5393 32.8079 23.946 33.025 24.3693 33.1938C24.7967 33.3706 25.2449 33.5072 25.7013 33.5997C26.1578 33.6881 26.6391 33.7363 27.1288 33.7363C27.6185 33.7363 28.0998 33.6881 28.5563 33.5997H28.5605ZM8.73321 26.8799C8.73321 26.695 8.70001 26.5182 8.67511 26.3373C14.3146 26.2851 17.5389 26.1163 20.2611 25.2804C20.2445 25.3527 20.2196 25.425 20.203 25.5014C20.1075 25.9475 20.0577 26.4097 20.0577 26.8799C20.0577 27.3501 20.1075 27.8163 20.203 28.2665C20.2154 28.3308 20.2362 28.3911 20.2528 28.4554C17.5306 27.6435 14.3146 27.4828 8.67511 27.4305C8.70001 27.2497 8.73321 27.0688 8.73321 26.8799ZM27.6932 9.00743C27.743 14.5135 28.0293 17.6523 28.88 20.2526C28.7721 20.2245 28.6642 20.1923 28.5522 20.1722C28.0957 20.0838 27.6185 20.0356 27.133 20.0356C26.6474 20.0356 26.1744 20.0838 25.7096 20.1722C25.5976 20.1963 25.4897 20.2285 25.3776 20.2566C26.2325 17.6563 26.5188 14.5215 26.5686 9.01547C26.7553 9.03958 26.9379 9.06771 27.1247 9.06771C27.3197 9.06771 27.5023 9.03556 27.689 9.01145L27.6932 9.00743ZM45.5327 26.8799C45.5327 27.0648 45.5659 27.2416 45.5908 27.4225C39.9016 27.4546 36.7146 27.5631 34.0422 28.3428C34.0464 28.3187 34.0588 28.2906 34.063 28.2665C34.258 27.3622 34.258 26.4137 34.063 25.5054C34.0422 25.4009 34.009 25.2964 33.98 25.1919C36.7063 26.052 39.9265 26.265 45.5867 26.3333C45.5618 26.5142 45.5286 26.691 45.5286 26.8759L45.5327 26.8799ZM23.3401 24.4123C23.5061 24.1751 23.697 23.9581 23.9086 23.7531C24.1161 23.5522 24.3444 23.3713 24.5809 23.2146C24.8216 23.0578 25.083 22.9172 25.3569 22.8087C25.6308 22.6961 25.9171 22.6077 26.2117 22.5515C26.5105 22.4952 26.8176 22.463 27.1371 22.463C27.4566 22.463 27.7637 22.4952 28.0542 22.5515C28.353 22.6117 28.6434 22.7002 28.9173 22.8087C29.1871 22.9212 29.4485 23.0619 29.685 23.2106C29.9299 23.3753 30.1581 23.5522 30.3739 23.7652C30.5814 23.9661 30.7681 24.1832 30.9258 24.4082C31.0876 24.6454 31.2329 24.8985 31.3491 25.1678C31.4652 25.4331 31.5524 25.7064 31.6105 25.9917C31.6727 26.2931 31.7059 26.5825 31.7059 26.8839C31.7059 27.1854 31.6769 27.4828 31.6146 27.7761C31.5482 28.0655 31.4611 28.3469 31.3449 28.6121C31.2287 28.8774 31.0835 29.1306 30.9258 29.3596C30.7598 29.5968 30.5689 29.8178 30.3656 30.0188C30.1622 30.2157 29.9382 30.3965 29.685 30.5613C29.4443 30.7181 29.1871 30.8547 28.9215 30.9672C28.6435 31.0798 28.3571 31.1682 28.0583 31.2245C27.7679 31.2847 27.4566 31.3129 27.1413 31.3129C26.8259 31.3129 26.5147 31.2847 26.2242 31.2245C25.9296 31.1682 25.6432 31.0798 25.361 30.9632C25.0872 30.8507 24.8257 30.714 24.585 30.5573C24.3444 30.4006 24.1161 30.2197 23.9086 30.0147C23.7012 29.8138 23.5144 29.5968 23.3484 29.3596C23.1866 29.1225 23.0455 28.8733 22.9293 28.6041C22.8131 28.3388 22.7218 28.0615 22.6637 27.7761C22.5434 27.2014 22.5434 26.5664 22.6637 25.9917C22.726 25.7064 22.8131 25.4291 22.9335 25.1638C23.0497 24.8985 23.1866 24.6494 23.3484 24.4163L23.3401 24.4123ZM32.2869 21.8521C32.0504 21.4422 31.8429 21.0363 31.6561 20.6264C33.6106 19.1433 35.6896 17.7407 38.2002 16.1653C36.5777 18.5927 35.1336 20.6022 33.6065 22.4831C33.1625 22.2983 32.7268 22.0893 32.2827 21.8521H32.2869ZM21.9085 21.9687C21.5018 22.1857 21.0952 22.3786 20.6843 22.5515C19.1365 20.6424 17.68 18.6169 16.045 16.1733C18.568 17.7528 20.647 19.1554 22.5973 20.6384C22.394 21.0845 22.1658 21.5226 21.9085 21.9687ZM51.0933 25.6541C51.4336 25.9797 51.6203 26.4177 51.6203 26.8799C51.6203 27.8364 50.8194 28.6161 49.8318 28.6161C48.8442 28.6161 48.0391 27.8364 48.0391 26.8799C48.0391 25.9234 48.8442 25.1477 49.8359 25.1477C50.3132 25.1477 50.7613 25.3246 51.0975 25.6501L51.0933 25.6541ZM36.1544 23.2628C37.9637 20.9639 39.6899 18.4521 41.7689 15.253C41.9308 15.3092 42.0968 15.3655 42.2669 15.4017C41.6113 18.0421 40.3165 20.7831 38.3579 23.6004C37.5445 23.512 36.8225 23.4035 36.1586 23.2628H36.1544ZM44.4496 10.1127C44.7899 10.4422 44.9725 10.8763 44.9725 11.3425C44.9725 11.8087 44.7899 12.2427 44.4579 12.5642C44.1135 12.8938 43.6612 13.0747 43.1798 13.0747C42.7068 13.0747 42.2586 12.8938 41.9183 12.5642C41.2419 11.9132 41.2378 10.7718 41.9266 10.1086C42.2586 9.78309 42.7068 9.60626 43.1881 9.60626C43.6695 9.60626 44.1218 9.78711 44.4538 10.1127H44.4496ZM38.9886 12.2266C39.026 12.3914 39.0841 12.5522 39.138 12.7089C35.8307 14.7224 33.233 16.4024 30.8469 18.1627C30.7017 17.5156 30.5897 16.8163 30.5025 16.0326C33.4198 14.1236 36.2581 12.8657 38.9845 12.2307L38.9886 12.2266ZM27.1288 3.16782C28.1164 3.16782 28.9256 3.94751 28.9256 4.90403C28.9256 5.86055 28.1206 6.63622 27.1288 6.63622C26.6557 6.63622 26.2076 6.45938 25.8673 6.13384C25.527 5.80429 25.3403 5.37023 25.3403 4.90403C25.3403 3.94751 26.1412 3.16782 27.1288 3.16782ZM23.4107 18.1748C21.0288 16.4144 18.4186 14.7305 15.0822 12.6969C15.1362 12.5401 15.1901 12.3834 15.2233 12.2226C17.9704 12.8576 20.8254 14.1196 23.7593 16.0367C23.6721 16.8204 23.5601 17.5237 23.4107 18.1707V18.1748ZM9.79138 12.5723C9.12328 11.9212 9.12743 10.7677 9.79968 10.1207C10.4968 9.4455 11.6338 9.4455 12.3268 10.1167C12.6713 10.4502 12.8539 10.8843 12.8539 11.3505C12.8539 11.8167 12.6713 12.2467 12.3268 12.5723C11.9907 12.9018 11.5426 13.0827 11.0653 13.0827C10.584 13.0827 10.1317 12.9018 9.79138 12.5723ZM11.9783 15.4057C12.1484 15.3695 12.3102 15.3132 12.4762 15.261C14.5635 18.4762 16.3023 21.0001 18.1323 23.3231C17.4642 23.4597 16.7338 23.5642 15.9163 23.6446C13.9369 20.8152 12.6381 18.0582 11.9783 15.4097V15.4057ZM2.64145 26.8839C2.64145 26.4177 2.82819 25.9837 3.16847 25.6541C3.50459 25.3286 3.95691 25.1477 4.43827 25.1517C5.42175 25.1517 6.22679 25.9274 6.22679 26.8839C6.22679 27.8405 5.4259 28.6201 4.43827 28.6201C3.45065 28.6201 2.64145 27.8445 2.64145 26.888V26.8839Z" fill="#41C4E6"/>
<path d="M67.1324 10.6582C67.3536 10.6582 67.5497 10.6783 67.7106 10.7185C67.8714 10.7588 68.0122 10.8392 68.1379 10.9498C68.2586 11.0654 68.3692 11.2213 68.4647 11.4174C68.5602 11.6135 68.6608 11.8749 68.7613 12.1967L71.9187 21.9151C71.9589 22.0357 72.0293 22.0961 72.1298 22.0961H72.3108C72.4114 22.0961 72.4818 22.0357 72.522 21.9151L75.6794 12.1967C75.7799 11.8749 75.8805 11.6135 75.976 11.4174C76.0715 11.2213 76.1821 11.0654 76.3028 10.9498C76.4234 10.8342 76.5642 10.7588 76.7201 10.7185C76.8759 10.6783 77.067 10.6582 77.2882 10.6582H78.9121C79.44 10.6582 79.792 10.8191 79.973 11.1358C80.1539 11.4526 80.2444 11.9956 80.2444 12.7648V24.3836C80.2444 24.6803 80.1288 24.8311 79.8975 24.8311H78.349C78.1278 24.8311 78.0172 24.6803 78.0172 24.3836V13.8156C78.0172 13.6798 77.977 13.6144 77.8965 13.6144H77.7608C77.6602 13.6144 77.5949 13.6698 77.5647 13.7753L74.4979 22.8452C74.3772 23.2072 74.2515 23.5189 74.1258 23.7652C74.0001 24.0166 73.8644 24.2227 73.7136 24.3836C73.5678 24.5445 73.4018 24.6602 73.2108 24.7255C73.0248 24.7909 72.8036 24.8261 72.5522 24.8261H71.8232C71.5718 24.8261 71.3506 24.7909 71.1645 24.7255C70.9785 24.6602 70.8126 24.5445 70.6618 24.3836C70.516 24.2227 70.3802 24.0166 70.2495 23.7652C70.1238 23.5139 69.9981 23.2072 69.8775 22.8452L66.8106 13.7753C66.7805 13.6698 66.7151 13.6144 66.6145 13.6144H66.4788C66.3984 13.6144 66.3581 13.6798 66.3581 13.8156V24.3836C66.3581 24.6803 66.2475 24.8311 66.0263 24.8311H64.4778C64.2465 24.8311 64.1309 24.6803 64.1309 24.3836V12.7648C64.1309 11.9956 64.2214 11.4526 64.4024 11.1358C64.5834 10.8191 64.9454 10.6582 65.4783 10.6582H67.1324Z" fill="#010101"/>
<path d="M88.9522 13.7148C89.631 13.7148 90.2041 13.7903 90.6666 13.9461C91.1342 14.102 91.5063 14.3433 91.7828 14.6751C92.0593 15.0069 92.2604 15.4293 92.3811 15.9521C92.5017 16.47 92.5621 17.0934 92.5621 17.8224V23.207C92.5621 23.5288 92.542 23.7952 92.5068 24.0064C92.4716 24.2176 92.4112 24.3784 92.3258 24.5041C92.2403 24.6248 92.1247 24.7103 91.9839 24.7555C91.8431 24.8008 91.6621 24.8259 91.4359 24.8259H84.2112C83.7637 24.8259 83.3917 24.7706 83.095 24.655C82.7984 24.5393 82.5571 24.3684 82.3761 24.1371C82.1951 23.9059 82.0644 23.6092 81.989 23.2472C81.9135 22.8852 81.8733 22.4529 81.8733 21.9501V20.9798C81.8733 20.5625 81.9135 20.1854 81.989 19.8586C82.0644 19.5268 82.1951 19.2503 82.3761 19.019C82.5571 18.7877 82.7984 18.6168 83.095 18.5011C83.3917 18.3855 83.7637 18.3302 84.2112 18.3302H90.3901V17.9431C90.3901 17.6213 90.365 17.3448 90.3147 17.1135C90.2644 16.8823 90.179 16.6962 90.0583 16.5555C89.9376 16.4147 89.7717 16.3091 89.5555 16.2437C89.3444 16.1784 89.0679 16.1432 88.736 16.1432H82.3912C82.2102 16.1432 82.1197 16.0225 82.1197 15.7812V14.0819C82.1197 13.8405 82.2102 13.7199 82.3912 13.7199H88.9522V13.7148ZM89.9527 22.5987C90.1136 22.5987 90.2292 22.5484 90.2946 22.4478C90.36 22.3473 90.3952 22.1663 90.3952 21.9099V20.1301H84.8396C84.5279 20.1301 84.3067 20.2156 84.181 20.3815C84.0553 20.5524 83.99 20.7988 83.99 21.1205V21.5479C83.99 21.9099 84.0553 22.1814 84.181 22.3473C84.3067 22.5182 84.5279 22.5987 84.8396 22.5987H89.9578H89.9527Z" fill="#010101"/>
<path d="M95.2067 13.7159V11.0412C95.2067 10.7446 95.3173 10.5938 95.5385 10.5938H97.0418C97.263 10.5938 97.3736 10.7446 97.3736 11.0412V13.7159H100.028C100.209 13.7159 100.3 13.8366 100.3 14.0779V15.737C100.3 15.9783 100.209 16.099 100.028 16.099H97.3736V20.7948C97.3736 21.3629 97.4591 21.7752 97.63 22.0417C97.8009 22.3031 98.1428 22.4388 98.6456 22.4388H100.119C100.3 22.4388 100.39 22.5595 100.39 22.8008V24.46C100.39 24.7013 100.3 24.8219 100.119 24.8219H98.2836C97.6753 24.8219 97.1775 24.7465 96.7803 24.6007C96.3832 24.4499 96.0714 24.2136 95.8301 23.8918C95.5938 23.5701 95.4279 23.1477 95.3374 22.6349C95.2469 22.1221 95.2017 21.5087 95.2017 20.7948V16.099H93.7587C93.5777 16.099 93.4872 15.9783 93.4872 15.737V14.0779C93.4872 13.8366 93.5777 13.7159 93.7587 13.7159H95.2017H95.2067Z" fill="#010101"/>
<path d="M110.978 13.7143C111.159 13.7143 111.25 13.835 111.25 14.0763V15.7756C111.25 16.017 111.159 16.1376 110.978 16.1376H105.086C104.754 16.1376 104.478 16.1728 104.266 16.2482C104.055 16.3236 103.889 16.4443 103.764 16.6102C103.643 16.7812 103.558 17.0074 103.507 17.299C103.457 17.5906 103.432 17.9425 103.432 18.3598V20.1597C103.432 20.5921 103.457 20.9491 103.507 21.2306C103.558 21.5122 103.643 21.7384 103.764 21.9093C103.884 22.0803 104.05 22.2009 104.266 22.2713C104.478 22.3467 104.754 22.3819 105.086 22.3819H110.978C111.159 22.3819 111.25 22.5026 111.25 22.7489V24.4483C111.25 24.6896 111.159 24.8103 110.978 24.8103H104.875C104.186 24.8103 103.613 24.7349 103.15 24.5891C102.688 24.4382 102.321 24.2019 102.044 23.8701C101.768 23.5383 101.567 23.116 101.446 22.5931C101.325 22.0752 101.265 21.4518 101.265 20.7228V17.8068C101.265 17.0778 101.325 16.4544 101.446 15.9365C101.567 15.4187 101.768 14.9913 102.044 14.6595C102.321 14.3277 102.693 14.0863 103.15 13.9305C103.613 13.7746 104.186 13.6992 104.875 13.6992H110.978V13.7143Z" fill="#010101"/>
<path d="M114.533 9.64258C114.754 9.64258 114.865 9.79341 114.865 10.09V13.715H120.541C121.22 13.715 121.793 13.7904 122.255 13.9462C122.723 14.1021 123.095 14.3434 123.371 14.6752C123.648 15.0071 123.849 15.4294 123.97 15.9523C124.09 16.4701 124.151 17.0935 124.151 17.8225V24.3836C124.151 24.6802 124.04 24.831 123.819 24.831H122.331C122.109 24.831 121.999 24.6802 121.999 24.3836V18.5113C121.999 18.094 121.979 17.7371 121.939 17.4505C121.898 17.1589 121.818 16.9326 121.702 16.7617C121.587 16.5908 121.426 16.4701 121.225 16.3947C121.024 16.3193 120.757 16.2841 120.435 16.2841H114.865V24.3836C114.865 24.6802 114.754 24.831 114.533 24.831H113.045C112.823 24.831 112.713 24.6802 112.713 24.3836V10.09C112.713 9.79341 112.823 9.64258 113.045 9.64258H114.533Z" fill="#010101"/>
<path d="M130.702 16.3047C130.998 16.3047 131.149 16.4555 131.149 16.7521V18.6978C131.149 18.9945 130.998 19.1453 130.702 19.1453H128.716C128.404 19.1453 128.248 18.9995 128.248 18.6978V16.7521C128.248 16.4555 128.404 16.3047 128.716 16.3047H130.702Z" fill="#010101"/>
<path d="M143.437 10.6582C143.668 10.6582 143.784 10.809 143.784 11.1057V12.5888C143.784 12.9005 143.668 13.0564 143.437 13.0564H138.671V24.3836C138.671 24.6803 138.56 24.8311 138.339 24.8311H136.685C136.463 24.8311 136.353 24.6803 136.353 24.3836V13.0564H131.587C131.355 13.0564 131.24 12.9005 131.24 12.5888V11.1057C131.24 10.809 131.355 10.6582 131.587 10.6582H143.447H143.437Z" fill="#010101"/>
<path d="M152.607 13.7151C152.788 13.7151 152.879 13.8358 152.879 14.0771V15.7765C152.879 16.0178 152.788 16.1385 152.607 16.1385H148.57C148.248 16.1385 147.977 16.1736 147.765 16.2491C147.554 16.3245 147.383 16.4451 147.258 16.6111C147.132 16.782 147.041 17.0082 146.991 17.2998C146.941 17.5914 146.916 17.9434 146.916 18.3607V24.3737C146.916 24.6703 146.805 24.8212 146.584 24.8212H145.096C144.865 24.8212 144.749 24.6703 144.749 24.3737V17.8127C144.749 17.0836 144.809 16.4602 144.93 15.9424C145.051 15.4245 145.252 14.9972 145.528 14.6654C145.805 14.3335 146.177 14.0922 146.634 13.9364C147.097 13.7805 147.67 13.7051 148.359 13.7051H152.612L152.607 13.7151Z" fill="#010101"/>
<path d="M160.837 13.7148C161.516 13.7148 162.089 13.7903 162.552 13.9461C163.019 14.102 163.391 14.3433 163.668 14.6751C163.944 15.0069 164.146 15.4293 164.266 15.9521C164.387 16.47 164.447 17.0934 164.447 17.8224V23.207C164.447 23.5288 164.427 23.7952 164.392 24.0064C164.357 24.2176 164.296 24.3784 164.211 24.5041C164.125 24.6248 164.01 24.7103 163.869 24.7555C163.728 24.8008 163.547 24.8259 163.321 24.8259H156.096C155.649 24.8259 155.277 24.7706 154.98 24.655C154.684 24.5393 154.442 24.3684 154.261 24.1371C154.08 23.9059 153.949 23.6092 153.874 23.2472C153.799 22.8852 153.758 22.4529 153.758 21.9501V20.9798C153.758 20.5625 153.799 20.1854 153.874 19.8586C153.949 19.5268 154.08 19.2503 154.261 19.019C154.442 18.7877 154.684 18.6168 154.98 18.5011C155.277 18.3855 155.649 18.3302 156.096 18.3302H162.275V17.9431C162.275 17.6213 162.25 17.3448 162.2 17.1135C162.15 16.8823 162.064 16.6962 161.943 16.5555C161.823 16.4147 161.657 16.3091 161.441 16.2437C161.229 16.1784 160.953 16.1432 160.621 16.1432H154.276C154.095 16.1432 154.005 16.0225 154.005 15.7812V14.0819C154.005 13.8405 154.095 13.7199 154.276 13.7199H160.837V13.7148ZM161.838 22.5987C161.999 22.5987 162.114 22.5484 162.18 22.4478C162.245 22.3473 162.28 22.1663 162.28 21.9099V20.1301H156.725C156.413 20.1301 156.192 20.2156 156.066 20.3815C155.94 20.5524 155.875 20.7988 155.875 21.1205V21.5479C155.875 21.9099 155.94 22.1814 156.066 22.3473C156.192 22.5182 156.413 22.5987 156.725 22.5987H161.843H161.838Z" fill="#010101"/>
<path d="M175.257 13.715V10.09C175.257 9.79341 175.367 9.64258 175.588 9.64258H177.077C177.298 9.64258 177.408 9.79341 177.408 10.09V20.7386C177.408 21.4676 177.348 22.091 177.227 22.6088C177.107 23.1267 176.906 23.554 176.629 23.8859C176.353 24.2177 175.981 24.454 175.513 24.6048C175.045 24.7556 174.477 24.826 173.799 24.826H169.545C168.856 24.826 168.283 24.7506 167.821 24.6048C167.358 24.454 166.991 24.2177 166.715 23.8859C166.438 23.554 166.237 23.1317 166.116 22.6088C165.996 22.091 165.935 21.4676 165.935 20.7386V17.8225C165.935 17.0935 165.996 16.4701 166.116 15.9523C166.237 15.4344 166.438 15.0071 166.715 14.6752C166.991 14.3434 167.363 14.1021 167.821 13.9462C168.283 13.7904 168.856 13.715 169.545 13.715H175.252H175.257ZM173.587 22.3977C173.919 22.3977 174.196 22.3625 174.407 22.2871C174.618 22.2117 174.789 22.091 174.915 21.9251C175.04 21.7541 175.131 21.5279 175.181 21.2463C175.231 20.9648 175.257 20.6078 175.257 20.1755V16.1483H169.761C169.44 16.1483 169.168 16.1835 168.957 16.2589C168.746 16.3344 168.575 16.455 168.449 16.6209C168.324 16.7919 168.233 17.0181 168.183 17.3097C168.132 17.6013 168.107 17.9533 168.107 18.3705V20.1704C168.107 20.6028 168.132 20.9598 168.183 21.2413C168.233 21.5229 168.324 21.7491 168.449 21.9201C168.575 22.091 168.746 22.2117 168.957 22.282C169.168 22.3575 169.44 22.3926 169.761 22.3926H173.587V22.3977Z" fill="#010101"/>
<path d="M187.026 13.7148C187.544 13.7148 187.971 13.7701 188.308 13.8858C188.645 14.0014 188.917 14.1874 189.113 14.4539C189.309 14.7153 189.45 15.0622 189.53 15.4846C189.61 15.9119 189.651 16.4247 189.651 17.0331V18.9587C189.651 19.391 189.58 19.6927 189.44 19.8586C189.299 20.0295 189.083 20.11 188.786 20.11H181.119V20.5977C181.119 21.2312 181.234 21.6887 181.461 21.9752C181.687 22.2568 182.129 22.4026 182.788 22.4026H189.118C189.299 22.4026 189.389 22.5233 189.389 22.7696V24.4689C189.389 24.7103 189.299 24.8309 189.118 24.8309H182.572C181.883 24.8309 181.31 24.7555 180.847 24.6097C180.385 24.4589 180.018 24.2226 179.741 23.8908C179.465 23.5589 179.264 23.1366 179.143 22.6137C179.022 22.0959 178.962 21.4725 178.962 20.7435V17.8274C178.962 17.0984 179.022 16.475 179.143 15.9572C179.264 15.4393 179.465 15.012 179.741 14.6801C180.018 14.3483 180.39 14.107 180.847 13.9511C181.31 13.7953 181.883 13.7199 182.572 13.7199H187.021L187.026 13.7148ZM181.119 18.3101H187.268C187.439 18.3101 187.524 18.1945 187.524 17.9682V17.1185C187.524 16.7013 187.459 16.4046 187.328 16.2287C187.197 16.0527 186.956 15.9672 186.599 15.9672H182.788C182.129 15.9672 181.687 16.108 181.461 16.3845C181.234 16.661 181.119 17.1236 181.119 17.7721V18.3202V18.3101Z" fill="#010101"/>
<path d="M199.098 13.7151C199.279 13.7151 199.369 13.8358 199.369 14.0771V15.7765C199.369 16.0178 199.279 16.1385 199.098 16.1385H195.06C194.739 16.1385 194.467 16.1736 194.256 16.2491C194.045 16.3245 193.874 16.4451 193.748 16.6111C193.623 16.782 193.532 17.0082 193.482 17.2998C193.431 17.5914 193.406 17.9434 193.406 18.3607V24.3737C193.406 24.6703 193.296 24.8212 193.075 24.8212H191.586C191.355 24.8212 191.239 24.6703 191.239 24.3737V17.8127C191.239 17.0836 191.3 16.4602 191.42 15.9424C191.541 15.4245 191.742 14.9972 192.019 14.6654C192.295 14.3335 192.667 14.0922 193.125 13.9364C193.587 13.7805 194.16 13.7051 194.849 13.7051H199.103L199.098 13.7151Z" fill="#010101"/>
</svg>
