<svg width="200" height="34" viewBox="0 0 200 34" fill="none" xmlns="http://www.w3.org/2000/svg">
<path d="M28.5605 33.5992C29.0169 33.5068 29.4609 33.3741 29.8884 33.1973C30.3158 33.0245 30.7183 32.8115 31.0793 32.5703C31.403 32.3654 31.7018 32.1202 31.9881 31.863C35.3701 29.9781 38.1629 29.8776 46.8233 29.8454C47.5993 30.5849 48.6616 31.0431 49.8359 31.0431C52.2054 31.0431 54.1309 29.1783 54.1309 26.8794C54.1309 25.7662 53.6827 24.7172 52.8694 23.9335C52.056 23.1498 50.9771 22.7198 49.8359 22.7238C48.6616 22.7238 47.5993 23.1819 46.8233 23.9214C44.6032 23.9013 42.769 23.8692 41.217 23.8009C43.1134 20.8469 44.3667 17.9452 44.9476 15.1279C45.4165 14.9229 45.8564 14.6416 46.234 14.2799C47.8441 12.7125 47.8524 9.97954 46.2257 8.39605C45.4124 7.61235 44.3335 7.18231 43.1881 7.1783C42.0387 7.1783 40.9598 7.61235 40.1547 8.39203C39.7771 8.75776 39.4908 9.17976 39.275 9.63792C36.3619 10.2006 33.3617 11.4183 30.3033 13.259C30.2369 11.7479 30.2079 9.96346 30.1954 7.8133C30.959 7.06174 31.432 6.0369 31.432 4.89952C31.432 2.60467 29.5024 0.73584 27.1288 0.73584C24.7552 0.73584 22.8339 2.60467 22.8339 4.89952C22.8339 6.00073 23.2737 7.03361 24.0705 7.81732C24.058 9.9715 24.029 11.7559 23.9626 13.2711C20.896 11.4183 17.8791 10.2006 14.9495 9.63792C14.7461 9.18377 14.4722 8.75776 14.0988 8.39203C12.4264 6.78041 9.70424 6.78041 8.02776 8.40007C7.21857 9.19181 6.7704 10.2368 6.7704 11.35C6.7704 12.4633 7.21442 13.5042 8.01946 14.2879C8.39709 14.6536 8.83695 14.9309 9.31002 15.1359C9.89097 17.9572 11.1483 20.863 13.0489 23.825C11.4928 23.8853 9.65859 23.9054 7.44265 23.9214C6.66666 23.1819 5.60849 22.7238 4.43827 22.7238C3.29296 22.7238 2.21404 23.1498 1.39655 23.9335C0.583205 24.7212 0.13504 25.7662 0.13089 26.8794C0.13089 29.1783 2.0605 31.0431 4.43412 31.0431C5.60434 31.0431 6.66666 30.5849 7.43851 29.8454C16.1321 29.9017 18.9913 30.1027 22.5268 32.084C22.7343 32.2528 22.9459 32.4176 23.1659 32.5623C23.5393 32.8074 23.946 33.0245 24.3693 33.1933C24.7967 33.3701 25.2449 33.5068 25.7013 33.5992C26.1578 33.6876 26.6391 33.7358 27.1288 33.7358C27.6185 33.7358 28.0998 33.6876 28.5563 33.5992H28.5605ZM8.73321 26.8794C8.73321 26.6946 8.70001 26.5177 8.67511 26.3369C14.3146 26.2846 17.5389 26.1158 20.2611 25.2799C20.2445 25.3522 20.2196 25.4245 20.203 25.5009C20.1075 25.947 20.0577 26.4092 20.0577 26.8794C20.0577 27.3496 20.1075 27.8159 20.203 28.266C20.2154 28.3303 20.2362 28.3906 20.2528 28.4549C17.5306 27.643 14.3146 27.4823 8.67511 27.43C8.70001 27.2492 8.73321 27.0683 8.73321 26.8794ZM27.6932 9.00694C27.743 14.513 28.0293 17.6518 28.88 20.2521C28.7721 20.224 28.6642 20.1918 28.5522 20.1717C28.0957 20.0833 27.6185 20.0351 27.133 20.0351C26.6474 20.0351 26.1744 20.0833 25.7096 20.1717C25.5976 20.1958 25.4897 20.228 25.3776 20.2561C26.2325 17.6558 26.5188 14.521 26.5686 9.01498C26.7553 9.03909 26.9379 9.06722 27.1247 9.06722C27.3197 9.06722 27.5023 9.03507 27.689 9.01096L27.6932 9.00694ZM45.5327 26.8794C45.5327 27.0643 45.5659 27.2411 45.5908 27.422C39.9016 27.4541 36.7146 27.5627 34.0422 28.3423C34.0464 28.3182 34.0588 28.2901 34.063 28.266C34.258 27.3617 34.258 26.4132 34.063 25.5049C34.0422 25.4004 34.009 25.2959 33.98 25.1914C36.7063 26.0515 39.9265 26.2645 45.5867 26.3328C45.5618 26.5137 45.5286 26.6905 45.5286 26.8754L45.5327 26.8794ZM23.3401 24.4118C23.5061 24.1746 23.697 23.9576 23.9086 23.7526C24.1161 23.5517 24.3444 23.3708 24.5809 23.2141C24.8216 23.0574 25.083 22.9167 25.3569 22.8082C25.6308 22.6956 25.9171 22.6072 26.2117 22.551C26.5105 22.4947 26.8176 22.4625 27.1371 22.4625C27.4566 22.4625 27.7637 22.4947 28.0542 22.551C28.353 22.6112 28.6434 22.6997 28.9173 22.8082C29.1871 22.9207 29.4485 23.0614 29.685 23.2101C29.9299 23.3749 30.1581 23.5517 30.3739 23.7647C30.5814 23.9657 30.7681 24.1827 30.9258 24.4077C31.0876 24.6449 31.2329 24.8981 31.3491 25.1673C31.4652 25.4326 31.5524 25.7059 31.6105 25.9912C31.6727 26.2927 31.7059 26.582 31.7059 26.8834C31.7059 27.1849 31.6769 27.4823 31.6146 27.7757C31.5482 28.065 31.4611 28.3464 31.3449 28.6116C31.2287 28.8769 31.0835 29.1301 30.9258 29.3591C30.7598 29.5963 30.5689 29.8173 30.3656 30.0183C30.1622 30.2152 29.9382 30.396 29.685 30.5608C29.4443 30.7176 29.1871 30.8542 28.9215 30.9668C28.6435 31.0793 28.3571 31.1677 28.0583 31.224C27.7679 31.2843 27.4566 31.3124 27.1413 31.3124C26.8259 31.3124 26.5147 31.2843 26.2242 31.224C25.9296 31.1677 25.6432 31.0793 25.361 30.9627C25.0872 30.8502 24.8257 30.7136 24.585 30.5568C24.3444 30.4001 24.1161 30.2192 23.9086 30.0142C23.7012 29.8133 23.5144 29.5963 23.3484 29.3591C23.1866 29.122 23.0455 28.8729 22.9293 28.6036C22.8131 28.3383 22.7218 28.061 22.6637 27.7757C22.5434 27.2009 22.5434 26.5659 22.6637 25.9912C22.726 25.7059 22.8131 25.4286 22.9335 25.1633C23.0497 24.8981 23.1866 24.6489 23.3484 24.4158L23.3401 24.4118ZM32.2869 21.8517C32.0504 21.4417 31.8429 21.0358 31.6561 20.6259C33.6106 19.1429 35.6896 17.7402 38.2002 16.1648C36.5777 18.5923 35.1336 20.6017 33.6065 22.4826C33.1625 22.2978 32.7268 22.0888 32.2827 21.8517H32.2869ZM21.9085 21.9682C21.5018 22.1852 21.0952 22.3781 20.6843 22.551C19.1365 20.6419 17.68 18.6164 16.045 16.1728C18.568 17.7523 20.647 19.1549 22.5973 20.6379C22.394 21.084 22.1658 21.5221 21.9085 21.9682ZM51.0933 25.6536C51.4336 25.9792 51.6203 26.4172 51.6203 26.8794C51.6203 27.8359 50.8194 28.6156 49.8318 28.6156C48.8442 28.6156 48.0391 27.8359 48.0391 26.8794C48.0391 25.9229 48.8442 25.1472 49.8359 25.1472C50.3132 25.1472 50.7613 25.3241 51.0975 25.6496L51.0933 25.6536ZM36.1544 23.2623C37.9637 20.9635 39.6899 18.4516 41.7689 15.2525C41.9308 15.3087 42.0968 15.365 42.2669 15.4012C41.6113 18.0416 40.3165 20.7826 38.3579 23.5999C37.5445 23.5115 36.8225 23.403 36.1586 23.2623H36.1544ZM44.4496 10.1122C44.7899 10.4417 44.9725 10.8758 44.9725 11.342C44.9725 11.8082 44.7899 12.2422 44.4579 12.5638C44.1135 12.8933 43.6612 13.0742 43.1798 13.0742C42.7068 13.0742 42.2586 12.8933 41.9183 12.5638C41.2419 11.9127 41.2378 10.7713 41.9266 10.1081C42.2586 9.78261 42.7068 9.60577 43.1881 9.60577C43.6695 9.60577 44.1218 9.78662 44.4538 10.1122H44.4496ZM38.9886 12.2262C39.026 12.3909 39.0841 12.5517 39.138 12.7084C35.8307 14.722 33.233 16.4019 30.8469 18.1622C30.7017 17.5152 30.5897 16.8159 30.5025 16.0321C33.4198 14.1231 36.2581 12.8652 38.9845 12.2302L38.9886 12.2262ZM27.1288 3.16733C28.1164 3.16733 28.9256 3.94702 28.9256 4.90354C28.9256 5.86006 28.1206 6.63573 27.1288 6.63573C26.6557 6.63573 26.2076 6.45889 25.8673 6.13336C25.527 5.8038 25.3403 5.36975 25.3403 4.90354C25.3403 3.94702 26.1412 3.16733 27.1288 3.16733ZM23.4107 18.1743C21.0288 16.414 18.4186 14.73 15.0822 12.6964C15.1362 12.5396 15.1901 12.3829 15.2233 12.2221C17.9704 12.8571 20.8254 14.1191 23.7593 16.0362C23.6721 16.8199 23.5601 17.5232 23.4107 18.1703V18.1743ZM9.79138 12.5718C9.12328 11.9207 9.12743 10.7673 9.79968 10.1202C10.4968 9.44501 11.6338 9.44501 12.3268 10.1162C12.6713 10.4498 12.8539 10.8838 12.8539 11.35C12.8539 11.8162 12.6713 12.2463 12.3268 12.5718C11.9907 12.9014 11.5426 13.0822 11.0653 13.0822C10.584 13.0822 10.1317 12.9014 9.79138 12.5718ZM11.9783 15.4052C12.1484 15.369 12.3102 15.3127 12.4762 15.2605C14.5635 18.4757 16.3023 20.9996 18.1323 23.3226C17.4642 23.4593 16.7338 23.5638 15.9163 23.6441C13.9369 20.8148 12.6381 18.0577 11.9783 15.4092V15.4052ZM2.64145 26.8834C2.64145 26.4172 2.82819 25.9832 3.16847 25.6536C3.50459 25.3281 3.95691 25.1472 4.43827 25.1513C5.42175 25.1513 6.22679 25.9269 6.22679 26.8834C6.22679 27.84 5.4259 28.6197 4.43827 28.6197C3.45065 28.6197 2.64145 27.844 2.64145 26.8875V26.8834Z" fill="#41C4E6"/>
<path d="M67.1324 10.6572C67.3536 10.6572 67.5497 10.6773 67.7106 10.7176C67.8714 10.7578 68.0122 10.8382 68.1379 10.9488C68.2586 11.0645 68.3692 11.2203 68.4647 11.4164C68.5602 11.6125 68.6608 11.8739 68.7613 12.1957L71.9187 21.9141C71.9589 22.0348 72.0293 22.0951 72.1298 22.0951H72.3108C72.4114 22.0951 72.4818 22.0348 72.522 21.9141L75.6794 12.1957C75.7799 11.8739 75.8805 11.6125 75.976 11.4164C76.0715 11.2203 76.1821 11.0645 76.3028 10.9488C76.4234 10.8332 76.5642 10.7578 76.7201 10.7176C76.8759 10.6773 77.067 10.6572 77.2882 10.6572H78.9121C79.44 10.6572 79.792 10.8181 79.973 11.1349C80.1539 11.4516 80.2444 11.9946 80.2444 12.7638V24.3827C80.2444 24.6793 80.1288 24.8301 79.8975 24.8301H78.349C78.1278 24.8301 78.0172 24.6793 78.0172 24.3827V13.8146C78.0172 13.6788 77.977 13.6135 77.8965 13.6135H77.7608C77.6602 13.6135 77.5949 13.6688 77.5647 13.7744L74.4979 22.8442C74.3772 23.2062 74.2515 23.5179 74.1258 23.7643C74.0001 24.0156 73.8644 24.2218 73.7136 24.3827C73.5678 24.5435 73.4018 24.6592 73.2108 24.7245C73.0248 24.7899 72.8036 24.8251 72.5522 24.8251H71.8232C71.5718 24.8251 71.3506 24.7899 71.1645 24.7245C70.9785 24.6592 70.8126 24.5435 70.6618 24.3827C70.516 24.2218 70.3802 24.0156 70.2495 23.7643C70.1238 23.5129 69.9981 23.2062 69.8775 22.8442L66.8106 13.7744C66.7805 13.6688 66.7151 13.6135 66.6145 13.6135H66.4788C66.3984 13.6135 66.3581 13.6788 66.3581 13.8146V24.3827C66.3581 24.6793 66.2475 24.8301 66.0263 24.8301H64.4778C64.2465 24.8301 64.1309 24.6793 64.1309 24.3827V12.7638C64.1309 11.9946 64.2214 11.4516 64.4024 11.1349C64.5834 10.8181 64.9454 10.6572 65.4783 10.6572H67.1324Z" fill="white"/>
<path d="M88.9522 13.7139C89.631 13.7139 90.2041 13.7893 90.6666 13.9451C91.1342 14.101 91.5063 14.3423 91.7828 14.6741C92.0593 15.006 92.2604 15.4283 92.3811 15.9512C92.5017 16.469 92.5621 17.0924 92.5621 17.8214V23.206C92.5621 23.5278 92.542 23.7943 92.5068 24.0054C92.4716 24.2166 92.4112 24.3775 92.3258 24.5032C92.2403 24.6238 92.1247 24.7093 91.9839 24.7545C91.8431 24.7998 91.6621 24.8249 91.4359 24.8249H84.2112C83.7637 24.8249 83.3917 24.7696 83.095 24.654C82.7984 24.5384 82.5571 24.3674 82.3761 24.1361C82.1951 23.9049 82.0644 23.6082 81.989 23.2463C81.9135 22.8843 81.8733 22.4519 81.8733 21.9491V20.9788C81.8733 20.5615 81.9135 20.1844 81.989 19.8576C82.0644 19.5258 82.1951 19.2493 82.3761 19.018C82.5571 18.7867 82.7984 18.6158 83.095 18.5002C83.3917 18.3845 83.7637 18.3292 84.2112 18.3292H90.3901V17.9421C90.3901 17.6203 90.365 17.3438 90.3147 17.1125C90.2644 16.8813 90.179 16.6953 90.0583 16.5545C89.9376 16.4137 89.7717 16.3081 89.5555 16.2428C89.3444 16.1774 89.0679 16.1422 88.736 16.1422H82.3912C82.2102 16.1422 82.1197 16.0215 82.1197 15.7802V14.0809C82.1197 13.8396 82.2102 13.7189 82.3912 13.7189H88.9522V13.7139ZM89.9527 22.5977C90.1136 22.5977 90.2292 22.5474 90.2946 22.4469C90.36 22.3463 90.3952 22.1653 90.3952 21.9089V20.1291H84.8396C84.5279 20.1291 84.3067 20.2146 84.181 20.3805C84.0553 20.5514 83.99 20.7978 83.99 21.1196V21.5469C83.99 21.9089 84.0553 22.1804 84.181 22.3463C84.3067 22.5172 84.5279 22.5977 84.8396 22.5977H89.9578H89.9527Z" fill="white"/>
<path d="M95.2067 13.714V11.0393C95.2067 10.7426 95.3173 10.5918 95.5385 10.5918H97.0418C97.263 10.5918 97.3736 10.7426 97.3736 11.0393V13.714H100.028C100.209 13.714 100.3 13.8346 100.3 14.0759V15.7351C100.3 15.9764 100.209 16.0971 100.028 16.0971H97.3736V20.7929C97.3736 21.361 97.4591 21.7732 97.63 22.0397C97.8009 22.3011 98.1428 22.4369 98.6456 22.4369H100.119C100.3 22.4369 100.39 22.5576 100.39 22.7989V24.458C100.39 24.6993 100.3 24.82 100.119 24.82H98.2836C97.6753 24.82 97.1775 24.7446 96.7803 24.5988C96.3832 24.4479 96.0714 24.2116 95.8301 23.8899C95.5938 23.5681 95.4279 23.1458 95.3374 22.633C95.2469 22.1202 95.2017 21.5068 95.2017 20.7929V16.0971H93.7587C93.5777 16.0971 93.4872 15.9764 93.4872 15.7351V14.0759C93.4872 13.8346 93.5777 13.714 93.7587 13.714H95.2017H95.2067Z" fill="white"/>
<path d="M110.978 13.7143C111.159 13.7143 111.25 13.835 111.25 14.0763V15.7756C111.25 16.017 111.159 16.1376 110.978 16.1376H105.086C104.754 16.1376 104.478 16.1728 104.266 16.2482C104.055 16.3236 103.889 16.4443 103.764 16.6102C103.643 16.7812 103.558 17.0074 103.507 17.299C103.457 17.5906 103.432 17.9425 103.432 18.3598V20.1597C103.432 20.5921 103.457 20.9491 103.507 21.2306C103.558 21.5122 103.643 21.7384 103.764 21.9093C103.884 22.0803 104.05 22.2009 104.266 22.2713C104.478 22.3467 104.754 22.3819 105.086 22.3819H110.978C111.159 22.3819 111.25 22.5026 111.25 22.7489V24.4483C111.25 24.6896 111.159 24.8103 110.978 24.8103H104.875C104.186 24.8103 103.613 24.7349 103.15 24.5891C102.688 24.4382 102.321 24.2019 102.044 23.8701C101.768 23.5383 101.567 23.116 101.446 22.5931C101.325 22.0752 101.265 21.4518 101.265 20.7228V17.8068C101.265 17.0778 101.325 16.4544 101.446 15.9365C101.567 15.4187 101.768 14.9913 102.044 14.6595C102.321 14.3277 102.693 14.0863 103.15 13.9305C103.613 13.7746 104.186 13.6992 104.875 13.6992H110.978V13.7143Z" fill="white"/>
<path d="M114.533 9.6416C114.754 9.6416 114.865 9.79243 114.865 10.0891V13.714H120.541C121.22 13.714 121.793 13.7894 122.255 13.9453C122.723 14.1011 123.095 14.3424 123.371 14.6743C123.648 15.0061 123.849 15.4284 123.97 15.9513C124.09 16.4691 124.151 17.0925 124.151 17.8216V24.3826C124.151 24.6792 124.04 24.8301 123.819 24.8301H122.331C122.109 24.8301 121.999 24.6792 121.999 24.3826V18.5103C121.999 18.093 121.979 17.7361 121.939 17.4495C121.898 17.1579 121.818 16.9317 121.702 16.7607C121.587 16.5898 121.426 16.4691 121.225 16.3937C121.024 16.3183 120.757 16.2831 120.435 16.2831H114.865V24.3826C114.865 24.6792 114.754 24.8301 114.533 24.8301H113.045C112.823 24.8301 112.713 24.6792 112.713 24.3826V10.0891C112.713 9.79243 112.823 9.6416 113.045 9.6416H114.533Z" fill="white"/>
<path d="M130.702 16.3032C130.998 16.3032 131.149 16.4541 131.149 16.7507V18.6964C131.149 18.993 130.998 19.1438 130.702 19.1438H128.716C128.404 19.1438 128.248 18.998 128.248 18.6964V16.7507C128.248 16.4541 128.404 16.3032 128.716 16.3032H130.702Z" fill="white"/>
<path d="M143.437 10.6572C143.668 10.6572 143.784 10.8081 143.784 11.1047V12.5878C143.784 12.8996 143.668 13.0554 143.437 13.0554H138.671V24.3827C138.671 24.6793 138.56 24.8301 138.339 24.8301H136.685C136.463 24.8301 136.353 24.6793 136.353 24.3827V13.0554H131.587C131.355 13.0554 131.24 12.8996 131.24 12.5878V11.1047C131.24 10.8081 131.355 10.6572 131.587 10.6572H143.447H143.437Z" fill="white"/>
<path d="M152.607 13.7142C152.788 13.7142 152.879 13.8348 152.879 14.0761V15.7755C152.879 16.0168 152.788 16.1375 152.607 16.1375H148.57C148.248 16.1375 147.977 16.1727 147.765 16.2481C147.554 16.3235 147.383 16.4442 147.258 16.6101C147.132 16.781 147.041 17.0073 146.991 17.2989C146.941 17.5905 146.916 17.9424 146.916 18.3597V24.3727C146.916 24.6694 146.805 24.8202 146.584 24.8202H145.096C144.865 24.8202 144.749 24.6694 144.749 24.3727V17.8117C144.749 17.0827 144.809 16.4592 144.93 15.9414C145.051 15.4236 145.252 14.9962 145.528 14.6644C145.805 14.3326 146.177 14.0912 146.634 13.9354C147.097 13.7795 147.67 13.7041 148.359 13.7041H152.612L152.607 13.7142Z" fill="white"/>
<path d="M160.837 13.7139C161.516 13.7139 162.089 13.7893 162.552 13.9451C163.019 14.101 163.391 14.3423 163.668 14.6741C163.944 15.006 164.146 15.4283 164.266 15.9512C164.387 16.469 164.447 17.0924 164.447 17.8214V23.206C164.447 23.5278 164.427 23.7943 164.392 24.0054C164.357 24.2166 164.296 24.3775 164.211 24.5032C164.125 24.6238 164.01 24.7093 163.869 24.7545C163.728 24.7998 163.547 24.8249 163.321 24.8249H156.096C155.649 24.8249 155.277 24.7696 154.98 24.654C154.684 24.5384 154.442 24.3674 154.261 24.1361C154.08 23.9049 153.949 23.6082 153.874 23.2463C153.799 22.8843 153.758 22.4519 153.758 21.9491V20.9788C153.758 20.5615 153.799 20.1844 153.874 19.8576C153.949 19.5258 154.08 19.2493 154.261 19.018C154.442 18.7867 154.684 18.6158 154.98 18.5002C155.277 18.3845 155.649 18.3292 156.096 18.3292H162.275V17.9421C162.275 17.6203 162.25 17.3438 162.2 17.1125C162.15 16.8813 162.064 16.6953 161.943 16.5545C161.823 16.4137 161.657 16.3081 161.441 16.2428C161.229 16.1774 160.953 16.1422 160.621 16.1422H154.276C154.095 16.1422 154.005 16.0215 154.005 15.7802V14.0809C154.005 13.8396 154.095 13.7189 154.276 13.7189H160.837V13.7139ZM161.838 22.5977C161.999 22.5977 162.114 22.5474 162.18 22.4469C162.245 22.3463 162.28 22.1653 162.28 21.9089V20.1291H156.725C156.413 20.1291 156.192 20.2146 156.066 20.3805C155.94 20.5514 155.875 20.7978 155.875 21.1196V21.5469C155.875 21.9089 155.94 22.1804 156.066 22.3463C156.192 22.5172 156.413 22.5977 156.725 22.5977H161.843H161.838Z" fill="white"/>
<path d="M175.257 13.714V10.0891C175.257 9.79243 175.367 9.6416 175.588 9.6416H177.077C177.298 9.6416 177.408 9.79243 177.408 10.0891V20.7376C177.408 21.4666 177.348 22.09 177.227 22.6079C177.107 23.1257 176.906 23.5531 176.629 23.8849C176.353 24.2167 175.981 24.453 175.513 24.6038C175.045 24.7547 174.477 24.825 173.799 24.825H169.545C168.856 24.825 168.283 24.7496 167.821 24.6038C167.358 24.453 166.991 24.2167 166.715 23.8849C166.438 23.5531 166.237 23.1307 166.116 22.6079C165.996 22.09 165.935 21.4666 165.935 20.7376V17.8216C165.935 17.0925 165.996 16.4691 166.116 15.9513C166.237 15.4334 166.438 15.0061 166.715 14.6743C166.991 14.3424 167.363 14.1011 167.821 13.9453C168.283 13.7894 168.856 13.714 169.545 13.714H175.252H175.257ZM173.587 22.3967C173.919 22.3967 174.196 22.3615 174.407 22.2861C174.618 22.2107 174.789 22.09 174.915 21.9241C175.04 21.7532 175.131 21.5269 175.181 21.2454C175.231 20.9638 175.257 20.6069 175.257 20.1745V16.1474H169.761C169.44 16.1474 169.168 16.1825 168.957 16.258C168.746 16.3334 168.575 16.454 168.449 16.62C168.324 16.7909 168.233 17.0171 168.183 17.3087C168.132 17.6003 168.107 17.9523 168.107 18.3696V20.1695C168.107 20.6018 168.132 20.9588 168.183 21.2403C168.233 21.5219 168.324 21.7481 168.449 21.9191C168.575 22.09 168.746 22.2107 168.957 22.2811C169.168 22.3565 169.44 22.3917 169.761 22.3917H173.587V22.3967Z" fill="white"/>
<path d="M187.026 13.7139C187.544 13.7139 187.971 13.7692 188.308 13.8848C188.645 14.0004 188.917 14.1865 189.113 14.4529C189.309 14.7144 189.45 15.0613 189.53 15.4836C189.61 15.9109 189.651 16.4238 189.651 17.0321V18.9577C189.651 19.3901 189.58 19.6917 189.44 19.8576C189.299 20.0286 189.083 20.109 188.786 20.109H181.119V20.5967C181.119 21.2302 181.234 21.6877 181.461 21.9743C181.687 22.2558 182.129 22.4016 182.788 22.4016H189.118C189.299 22.4016 189.389 22.5223 189.389 22.7686V24.468C189.389 24.7093 189.299 24.83 189.118 24.83H182.572C181.883 24.83 181.31 24.7545 180.847 24.6087C180.385 24.4579 180.018 24.2216 179.741 23.8898C179.465 23.558 179.264 23.1356 179.143 22.6128C179.022 22.0949 178.962 21.4715 178.962 20.7425V17.8265C178.962 17.0975 179.022 16.474 179.143 15.9562C179.264 15.4383 179.465 15.011 179.741 14.6792C180.018 14.3473 180.39 14.106 180.847 13.9502C181.31 13.7943 181.883 13.7189 182.572 13.7189H187.021L187.026 13.7139ZM181.119 18.3091H187.268C187.439 18.3091 187.524 18.1935 187.524 17.9672V17.1176C187.524 16.7003 187.459 16.4036 187.328 16.2277C187.197 16.0517 186.956 15.9662 186.599 15.9662H182.788C182.129 15.9662 181.687 16.107 181.461 16.3835C181.234 16.6601 181.119 17.1226 181.119 17.7712V18.3192V18.3091Z" fill="white"/>
<path d="M199.098 13.7142C199.279 13.7142 199.369 13.8348 199.369 14.0761V15.7755C199.369 16.0168 199.279 16.1375 199.098 16.1375H195.06C194.739 16.1375 194.467 16.1727 194.256 16.2481C194.045 16.3235 193.874 16.4442 193.748 16.6101C193.623 16.781 193.532 17.0073 193.482 17.2989C193.431 17.5905 193.406 17.9424 193.406 18.3597V24.3727C193.406 24.6694 193.296 24.8202 193.075 24.8202H191.586C191.355 24.8202 191.239 24.6694 191.239 24.3727V17.8117C191.239 17.0827 191.3 16.4592 191.42 15.9414C191.541 15.4236 191.742 14.9962 192.019 14.6644C192.295 14.3326 192.667 14.0912 193.125 13.9354C193.587 13.7795 194.16 13.7041 194.849 13.7041H199.103L199.098 13.7142Z" fill="white"/>
</svg>
