<svg width="100" height="100" viewBox="0 0 100 100" fill="none" xmlns="http://www.w3.org/2000/svg">
<path d="M74.0625 41.25C67.6641 41.25 61.8535 43.7383 57.5469 47.8125H43.4375V17.2695C43.4375 16.0391 44.3945 15 45.625 15C61.0742 15 73.8574 26.4434 75.9492 41.3184C75.3203 41.2637 74.6914 41.25 74.0625 41.25ZM43.4375 54.375H52.625C51.5859 56.4121 50.8203 58.6133 50.3965 60.9375H36.875C33.252 60.9375 30.3125 57.998 30.3125 54.375V27.4277C20.1133 31.0371 12.8125 40.7578 12.8125 52.1875C12.8125 66.6797 24.5703 78.4375 39.0625 78.4375C43.7793 78.4375 48.209 77.1934 52.0371 75.0195C52.9258 77.043 54.0879 78.9297 55.4824 80.6113C50.6562 83.4004 45.0508 85 39.0625 85C20.9473 85 6.25 70.3164 6.25 52.1875C6.25 36.3965 17.3926 23.2168 32.2539 20.0859C34.7285 19.5664 36.875 21.5898 36.875 24.1191V47.8125V54.375H43.4375ZM54.375 65.3125C54.375 60.091 56.4492 55.0835 60.1413 51.3913C63.8335 47.6992 68.841 45.625 74.0625 45.625C79.284 45.625 84.2915 47.6992 87.9837 51.3913C91.6758 55.0835 93.75 60.091 93.75 65.3125C93.75 70.534 91.6758 75.5415 87.9837 79.2337C84.2915 82.9258 79.284 85 74.0625 85C68.841 85 63.8335 82.9258 60.1413 79.2337C56.4492 75.5415 54.375 70.534 54.375 65.3125ZM70.8906 60.8555C70.9727 60.7324 71.1367 60.5684 71.4648 60.3906C72.1621 60.0215 73.1738 59.8301 74.0215 59.8438C75.1426 59.8574 76.3594 60.0898 77.6309 60.4043C78.8066 60.6914 79.9961 59.9805 80.2832 58.8047C80.5703 57.6289 79.8594 56.4395 78.6836 56.1523C77.918 55.9609 77.0977 55.7832 76.2363 55.6465V54.375C76.2363 53.1719 75.252 52.1875 74.0488 52.1875C72.8457 52.1875 71.8613 53.1719 71.8613 54.375V55.6738C71.0273 55.8379 70.1797 56.1113 69.4004 56.5352C67.7871 57.3965 66.2559 59.0508 66.4199 61.6211C66.5566 63.8086 68.0195 65.0801 69.373 65.8184C70.5762 66.4609 72.0664 66.8848 73.2832 67.2266L73.5293 67.2949C74.9375 67.6914 75.9766 68.0059 76.7012 68.4297C77.3164 68.7988 77.3438 69.0039 77.3438 69.1953C77.3574 69.5234 77.2754 69.7012 77.207 69.8105C77.125 69.9473 76.9609 70.1113 76.6602 70.2617C76.0176 70.6035 75.0469 70.7812 74.1309 70.7539C72.832 70.7129 71.6016 70.3301 70.043 69.8242C69.7832 69.7422 69.5234 69.6602 69.25 69.5781C68.1016 69.2227 66.8711 69.8652 66.5156 71.0137C66.1602 72.1621 66.8027 73.3926 67.9512 73.748C68.1699 73.8164 68.4023 73.8848 68.6348 73.9668C69.5918 74.2812 70.6992 74.623 71.875 74.8691V76.4277C71.875 77.6309 72.8594 78.6152 74.0625 78.6152C75.2656 78.6152 76.25 77.6309 76.25 76.4277V74.9785C77.0977 74.8281 77.959 74.5547 78.752 74.1309C80.4062 73.2422 81.8008 71.5742 81.7188 69.0859C81.6504 66.8711 80.3105 65.4902 78.916 64.6699C77.6309 63.9043 76.0176 63.4531 74.7461 63.0977H74.7188C73.2969 62.7012 72.2168 62.3867 71.4512 61.9766C70.7949 61.6211 70.7949 61.4297 70.7949 61.3613V61.3477C70.7812 61.0879 70.8359 60.9512 70.9043 60.8555H70.8906Z" fill="url(#paint0_linear_1543_2781)"/>
<defs>
<linearGradient id="paint0_linear_1543_2781" x1="6.25" y1="49.5333" x2="93.5251" y2="45.1031" gradientUnits="userSpaceOnUse">
<stop stop-color="#00ffcc"/>
<stop offset="0.182292" stop-color="#00ffcc" stop-opacity="0.81"/>
<stop offset="0.841669" stop-color="#00ffcc" stop-opacity="0.82"/>
<stop offset="1" stop-color="#00ffcc"/>
</linearGradient>
</defs>
</svg>
