<svg width="101" height="100" viewBox="0 0 101 100" fill="none" xmlns="http://www.w3.org/2000/svg">
<path d="M14.6666 18.5H77.6666C80.1557 18.5 82.1666 20.5109 82.1666 23V41.9281C83.7416 42.3781 85.2463 42.9688 86.6666 43.7V23C86.6666 18.0359 82.6307 14 77.6666 14H14.6666C9.70256 14 5.66663 18.0359 5.66663 23V63.5C5.66663 68.4641 9.70256 72.5 14.6666 72.5H35.6338L34.1291 81.5H25.9166C24.6791 81.5 23.6666 82.5125 23.6666 83.75C23.6666 84.9875 24.6791 86 25.9166 86H36.0416H56.2916H61.1854C59.3713 84.7203 57.7401 83.2016 56.3198 81.5H53.6338H46.1666H38.6994L40.2041 72.5H46.1666H51.5948C51.1869 71.0516 50.9057 69.5469 50.7651 68H38.3338C38.3057 68 38.2776 68 38.2494 68H14.6666C12.1776 68 10.1666 65.9891 10.1666 63.5V23C10.1666 20.5109 12.1776 18.5 14.6666 18.5ZM73.1666 41.0984V29.75C73.1666 28.5125 72.1541 27.5 70.9166 27.5H57.4166C56.1791 27.5 55.1666 28.5125 55.1666 29.75C55.1666 30.9875 56.1791 32 57.4166 32H65.4885L48.4166 49.0719L38.7557 39.4109C37.8838 38.5391 36.4494 38.5391 35.5776 39.4109L19.8276 55.1609C18.9557 56.0328 18.9557 57.4672 19.8276 58.3391C20.6994 59.2109 22.1338 59.2109 23.0057 58.3391L37.1666 44.1781L46.8276 53.8391C47.2494 54.2609 47.826 54.5 48.4166 54.5C49.0073 54.5 49.5838 54.2609 50.0057 53.8391L68.6666 35.1781V41.9281C70.1151 41.5203 71.6198 41.2391 73.1666 41.0984ZM75.4166 50C79.5938 50 83.5999 51.6594 86.5536 54.6131C89.5073 57.5668 91.1666 61.5728 91.1666 65.75C91.1666 69.9272 89.5073 73.9332 86.5536 76.8869C83.5999 79.8406 79.5938 81.5 75.4166 81.5C71.2395 81.5 67.2334 79.8406 64.2797 76.8869C61.326 73.9332 59.6666 69.9272 59.6666 65.75C59.6666 61.5728 61.326 57.5668 64.2797 54.6131C67.2334 51.6594 71.2395 50 75.4166 50ZM75.4166 86C80.7873 86 85.9379 83.8665 89.7355 80.0689C93.5331 76.2713 95.6666 71.1206 95.6666 65.75C95.6666 60.3794 93.5331 55.2287 89.7355 51.4311C85.9379 47.6335 80.7873 45.5 75.4166 45.5C70.046 45.5 64.8953 47.6335 61.0977 51.4311C57.3001 55.2287 55.1666 60.3794 55.1666 65.75C55.1666 71.1206 57.3001 76.2713 61.0977 80.0689C64.8953 83.8665 70.046 86 75.4166 86ZM72.1541 61.1656C72.2385 61.0391 72.4072 60.8703 72.7448 60.6875C73.4619 60.3078 74.5026 60.1109 75.3744 60.125C76.5276 60.1391 77.7791 60.3781 79.0869 60.7016C80.2963 60.9969 81.5198 60.2656 81.8151 59.0562C82.1104 57.8469 81.3791 56.6234 80.1697 56.3281C79.3822 56.1312 78.5385 55.9484 77.6526 55.8078V54.5C77.6526 53.2625 76.6401 52.25 75.4026 52.25C74.1651 52.25 73.1526 53.2625 73.1526 54.5V55.8359C72.2947 56.0047 71.4229 56.2859 70.6213 56.7219C68.9619 57.6078 67.3869 59.3094 67.5557 61.9531C67.6963 64.2031 69.201 65.5109 70.5932 66.2703C71.8307 66.9313 73.3635 67.3672 74.6151 67.7188L74.8682 67.7891C76.3166 68.1969 77.3854 68.5203 78.1307 68.9562C78.7635 69.3359 78.7916 69.5469 78.7916 69.7437C78.8057 70.0812 78.7213 70.2641 78.651 70.3766C78.5666 70.5172 78.3979 70.6859 78.0885 70.8406C77.4276 71.1922 76.4291 71.375 75.4869 71.3469C74.151 71.3047 72.8854 70.9109 71.2822 70.3906C71.0151 70.3063 70.7479 70.2219 70.4666 70.1375C69.2854 69.7719 68.0197 70.4328 67.6541 71.6141C67.2885 72.7953 67.9494 74.0609 69.1307 74.4266C69.3557 74.4969 69.5947 74.5672 69.8338 74.6516C70.8182 74.975 71.9573 75.3266 73.1666 75.5797V77.1828C73.1666 78.4203 74.1791 79.4328 75.4166 79.4328C76.6541 79.4328 77.6666 78.4203 77.6666 77.1828V75.6922C78.5385 75.5375 79.4244 75.2562 80.2401 74.8203C81.9416 73.9062 83.376 72.1906 83.2916 69.6313C83.2213 67.3531 81.8432 65.9328 80.4088 65.0891C79.0869 64.3016 77.4276 63.8375 76.1198 63.4719H76.0916C74.6291 63.0641 73.5182 62.7406 72.7307 62.3188C72.0557 61.9531 72.0557 61.7563 72.0557 61.6859V61.6719C72.0416 61.4047 72.0979 61.2641 72.1682 61.1656H72.1541Z" fill="url(#paint0_linear_1543_2743)"/>
<defs>
<linearGradient id="paint0_linear_1543_2743" x1="5.66663" y1="49.52" x2="95.4353" y2="44.9632" gradientUnits="userSpaceOnUse">
<stop stop-color="#00FFCC"/>
<stop offset="0.182292" stop-color="#00FFCC" stop-opacity="0.81"/>
<stop offset="0.841669" stop-color="#00FFCC" stop-opacity="0.82"/>
<stop offset="1" stop-color="#00FFCC"/>
</linearGradient>
</defs>
</svg>
