<svg width="101" height="100" viewBox="0 0 101 100" fill="none" xmlns="http://www.w3.org/2000/svg">
<path d="M28.4583 15C23.6321 15 19.7083 18.9238 19.7083 23.75V76.25C19.7083 81.0762 23.6321 85 28.4583 85H78.7708C79.9739 85 80.9583 84.0156 80.9583 82.8125C80.9583 81.6094 79.9739 80.625 78.7708 80.625H76.5833V71.5059C79.1263 70.6035 80.9583 68.1699 80.9583 65.3125V21.5625C80.9583 17.9395 78.0189 15 74.3958 15H28.4583ZM72.2083 71.875V80.625H28.4583C26.0384 80.625 24.0833 78.6699 24.0833 76.25C24.0833 73.8301 26.0384 71.875 28.4583 71.875H72.2083ZM28.4583 67.5C26.8587 67.5 25.3685 67.9238 24.0833 68.6758V23.75C24.0833 21.3301 26.0384 19.375 28.4583 19.375H32.8333V67.5H28.4583ZM37.2083 67.5V19.375H74.3958C75.5989 19.375 76.5833 20.3594 76.5833 21.5625V65.3125C76.5833 66.5156 75.5989 67.5 74.3958 67.5H37.2083ZM43.7708 34.6875C43.7708 35.8906 44.7552 36.875 45.9583 36.875H67.8333C69.0364 36.875 70.0208 35.8906 70.0208 34.6875C70.0208 33.4844 69.0364 32.5 67.8333 32.5H45.9583C44.7552 32.5 43.7708 33.4844 43.7708 34.6875ZM43.7708 47.8125C43.7708 49.0156 44.7552 50 45.9583 50H67.8333C69.0364 50 70.0208 49.0156 70.0208 47.8125C70.0208 46.6094 69.0364 45.625 67.8333 45.625H45.9583C44.7552 45.625 43.7708 46.6094 43.7708 47.8125Z" fill="url(#paint0_linear_1543_2794)"/>
<defs>
<linearGradient id="paint0_linear_1543_2794" x1="19.7083" y1="49.5333" x2="80.8811" y2="47.3597" gradientUnits="userSpaceOnUse">
<stop stop-color="#00FFCC"/>
<stop offset="0.182292" stop-color="#00FFCC" stop-opacity="0.81"/>
<stop offset="0.841669" stop-color="#00FFCC" stop-opacity="0.82"/>
<stop offset="1" stop-color="#00FFCC"/>
</linearGradient>
</defs>
</svg>
