<svg width="203" height="39" viewBox="0 0 203 39" fill="none" xmlns="http://www.w3.org/2000/svg">
<path d="M68.3913 8.104H79.2591C81.8786 8.104 84.0946 8.51271 85.9072 9.33012C87.5761 10.0317 88.9932 11.2226 89.9717 12.7457C90.8878 14.2504 91.3572 15.9845 91.3253 17.7458C91.3454 19.5151 90.8577 21.2531 89.92 22.7537C88.874 24.3389 87.3782 25.5755 85.6246 26.3047C83.7031 27.1805 81.3212 27.6171 78.4789 27.6144H68.3913V8.104ZM78.3674 22.6502C80.1323 22.6502 81.4884 22.2097 82.4359 21.3286C82.9163 20.8627 83.2916 20.2995 83.5367 19.6768C83.7818 19.0541 83.891 18.3862 83.8571 17.7179C83.8866 17.0975 83.7897 16.4776 83.572 15.8958C83.3544 15.3141 83.0207 14.7828 82.5911 14.3341C81.7419 13.4902 80.464 13.0669 78.7575 13.0642H75.3578V22.6502H78.3674Z" fill="white"/>
<path d="M107.599 27.5826C106.165 27.2233 104.794 26.6503 103.531 25.8828V21.2569C104.634 22.0591 105.875 22.6502 107.193 23.0006C108.635 23.4405 110.133 23.6697 111.64 23.6813C112.16 23.7091 112.68 23.6193 113.161 23.4186C113.503 23.2434 113.674 23.0205 113.674 22.7896C113.678 22.6606 113.655 22.5322 113.607 22.4124C113.559 22.2925 113.487 22.1838 113.395 22.0929C113.077 21.8484 112.704 21.6857 112.309 21.6192L108.965 20.8668C107.049 20.421 105.688 19.8039 104.884 19.0157C104.481 18.6085 104.166 18.1219 103.96 17.5867C103.755 17.0514 103.663 16.4793 103.69 15.9066C103.677 14.8687 104.055 13.8638 104.749 13.0921C105.572 12.2214 106.61 11.5829 107.758 11.241C109.236 10.7765 110.78 10.5547 112.329 10.5841C113.774 10.5706 115.216 10.7391 116.62 11.0857C117.754 11.3544 118.843 11.7862 119.852 12.3676V16.7466C118.905 16.1972 117.887 15.7806 116.827 15.5085C115.678 15.2004 114.493 15.0452 113.304 15.0467C111.558 15.0467 110.684 15.344 110.684 15.9385C110.681 16.0708 110.718 16.2011 110.789 16.313C110.859 16.4249 110.962 16.5134 111.082 16.5674C111.56 16.7703 112.06 16.9147 112.571 16.9974L115.358 17.499C117.168 17.8174 118.517 18.3748 119.407 19.171C120.296 19.9671 120.741 21.1322 120.744 22.6662C120.758 23.4728 120.561 24.2691 120.172 24.9759C119.783 25.6826 119.216 26.2753 118.527 26.6949C117.059 27.6795 114.964 28.1705 112.241 28.1678C110.675 28.1702 109.115 27.9736 107.599 27.5826Z" fill="white"/>
<path d="M127.329 26.9975C125.839 26.313 124.583 25.2054 123.718 23.8128C122.911 22.447 122.497 20.8846 122.524 19.2984C122.5 17.7132 122.935 16.155 123.778 14.8119C124.676 13.4412 125.954 12.362 127.456 11.7068C129.282 10.9111 131.261 10.5252 133.252 10.5763C136.039 10.5763 138.352 11.1615 140.191 12.3318V17.4393C139.491 16.969 138.727 16.6029 137.922 16.3526C137.021 16.068 136.08 15.927 135.135 15.9346C133.407 15.9346 132.055 16.2504 131.079 16.882C130.64 17.127 130.273 17.484 130.017 17.9165C129.761 18.3491 129.624 18.8418 129.619 19.3446C129.615 19.8473 129.745 20.3422 129.994 20.7788C130.243 21.2154 130.604 21.5782 131.039 21.8303C131.986 22.4699 133.361 22.7897 135.163 22.7897C136.093 22.7919 137.019 22.6578 137.91 22.3916C138.723 22.1585 139.504 21.8255 140.235 21.4003V26.3367C138.081 27.5925 135.622 28.229 133.129 28.1758C131.131 28.2304 129.147 27.8273 127.329 26.9975Z" fill="white"/>
<path d="M147.13 26.9971C145.623 26.3092 144.345 25.204 143.447 23.8124C142.601 22.4499 142.162 20.8739 142.181 19.2702C142.154 17.6854 142.595 16.1277 143.447 14.7916C144.35 13.4354 145.622 12.3661 147.114 11.7104C150.777 10.2241 154.875 10.2241 158.539 11.7104C160.024 12.3611 161.291 13.4251 162.189 14.7757C163.036 16.1168 163.472 17.6764 163.443 19.2622C163.463 20.8644 163.028 22.4393 162.189 23.8044C161.301 25.197 160.029 26.303 158.527 26.9891C156.726 27.7613 154.787 28.1595 152.828 28.1595C150.869 28.1595 148.93 27.7613 147.13 26.9891V26.9971ZM155.597 22.0528C155.941 21.6974 156.209 21.2753 156.385 20.8125C156.56 20.3498 156.639 19.856 156.616 19.3617C156.64 18.872 156.562 18.3826 156.386 17.9248C156.211 17.467 155.942 17.0507 155.597 16.7025C155.223 16.3591 154.783 16.0944 154.304 15.9241C153.826 15.7538 153.318 15.6814 152.81 15.7112C152.303 15.6846 151.796 15.7584 151.318 15.9285C150.84 16.0987 150.4 16.3617 150.024 16.7025C149.68 17.0514 149.412 17.468 149.237 17.9257C149.063 18.3834 148.985 18.8724 149.009 19.3617C148.986 19.8557 149.065 20.349 149.239 20.8117C149.414 21.2744 149.681 21.6966 150.024 22.0528C150.396 22.4005 150.835 22.6695 151.314 22.844C151.792 23.0184 152.301 23.0945 152.81 23.0679C153.319 23.0976 153.829 23.0228 154.309 22.8482C154.788 22.6737 155.226 22.403 155.597 22.0528Z" fill="white"/>
<path d="M180.191 11.6072V17.6343C179.359 17.1378 178.4 16.8957 177.432 16.9376C175.947 16.9376 174.801 17.3915 174.005 18.2911C173.208 19.1908 172.81 20.5881 172.81 22.483V27.6104H165.983V11.3086H172.671V16.4838C173.043 14.5889 173.642 13.1916 174.47 12.2919C174.872 11.8495 175.364 11.4994 175.914 11.2657C176.464 11.0321 177.058 10.9204 177.655 10.9384C178.547 10.9141 179.427 11.1462 180.191 11.6072Z" fill="white"/>
<path d="M202.874 7.54639V27.6101H196.047V23.9477C195.532 25.2516 194.607 26.3526 193.412 27.0847C192.092 27.8366 190.591 28.2112 189.072 28.1675C187.644 28.2007 186.237 27.8086 185.032 27.0409C183.864 26.2825 182.934 25.2105 182.349 23.9477C181.709 22.5538 181.391 21.0343 181.417 19.501C181.372 17.9113 181.711 16.3342 182.404 14.9031C183.042 13.5923 184.037 12.4883 185.275 11.7184C186.547 10.9476 188.011 10.5515 189.498 10.5759C192.747 10.5759 194.93 11.9878 196.047 14.8115V7.54639H202.874ZM195.044 21.9573C195.392 21.6148 195.664 21.2036 195.845 20.7498C196.025 20.2961 196.109 19.8098 196.091 19.3219C196.105 18.8486 196.02 18.3776 195.839 17.9398C195.659 17.502 195.388 17.1075 195.044 16.7821C194.263 16.1462 193.286 15.7989 192.279 15.7989C191.272 15.7989 190.295 16.1462 189.514 16.7821C189.171 17.1149 188.902 17.5163 188.724 17.9601C188.547 18.4039 188.465 18.8801 188.483 19.3577C188.466 19.8399 188.549 20.3203 188.729 20.7681C188.909 21.2158 189.18 21.6209 189.526 21.9573C189.892 22.2973 190.322 22.5608 190.791 22.7324C191.26 22.9039 191.758 22.9801 192.257 22.9565C192.765 22.9845 193.273 22.9105 193.752 22.7389C194.23 22.5673 194.67 22.3015 195.044 21.9573Z" fill="white"/>
<path d="M43.2518 3.27509C39.9265 1.75266 36.416 0.672605 32.8099 0.0625C32.3165 0.944622 31.87 1.85221 31.4723 2.78146C27.6312 2.20264 23.725 2.20264 19.8839 2.78146C19.4861 1.8523 19.0396 0.944728 18.5463 0.0625C14.938 0.677757 11.4252 1.76038 8.09647 3.28305C1.48817 13.0602 -0.30324 22.5944 0.592464 31.9933C4.46245 34.8527 8.79407 37.0272 13.399 38.4225C14.4359 37.0279 15.3535 35.5484 16.1419 33.9997C14.6444 33.4404 13.1991 32.7504 11.8226 31.9376C12.1849 31.6749 12.5392 31.4042 12.8815 31.1414C16.8867 33.025 21.2581 34.0016 25.6841 34.0016C30.1101 34.0016 34.4815 33.025 38.4867 31.1414C38.833 31.4241 39.1873 31.6948 39.5456 31.9376C38.1665 32.7517 36.7185 33.4431 35.2184 34.0037C36.0058 35.5517 36.9234 37.0299 37.9612 38.4225C42.5701 37.0328 46.905 34.8593 50.7757 31.9973C51.8267 21.0976 48.9804 11.6509 43.2518 3.27509ZM17.2764 26.2131C14.7804 26.2131 12.7183 23.9479 12.7183 21.1613C12.7183 18.3747 14.7088 16.0896 17.2685 16.0896C19.8282 16.0896 21.8744 18.3747 21.8306 21.1613C21.7868 23.9479 19.8202 26.2131 17.2764 26.2131ZM34.0918 26.2131C31.5918 26.2131 29.5376 23.9479 29.5376 21.1613C29.5376 18.3747 31.5281 16.0896 34.0918 16.0896C36.6555 16.0896 38.6857 18.3747 38.6419 21.1613C38.5982 23.9479 36.6356 26.2131 34.0918 26.2131Z" fill="white"/>
<path d="M97.0816 13.0444C98.9614 13.0444 100.485 11.6755 100.485 9.98702C100.485 8.2985 98.9614 6.92969 97.0816 6.92969C95.2018 6.92969 93.678 8.2985 93.678 9.98702C93.678 11.6755 95.2018 13.0444 97.0816 13.0444Z" fill="white"/>
<path d="M93.674 15.1499C94.7522 15.6031 95.91 15.8365 97.0796 15.8365C98.2492 15.8365 99.4071 15.6031 100.485 15.1499V27.6977H93.674V15.1499Z" fill="white"/>
</svg>
