<svg width="653" height="600" viewBox="0 0 653 600" fill="none" xmlns="http://www.w3.org/2000/svg">
<g opacity="0.3" filter="url(#filter0_f_4064_7299)">
<path d="M384.177 142.778C358.826 141.441 332.951 143.311 307.256 148.694C306.786 148.788 306.428 149.161 306.361 149.651C305.489 156.085 304.934 164.248 304.779 170.553C277.378 176.937 251.645 187.141 227.846 201.059C223.364 196.455 217.294 191.058 212.237 186.975C211.858 186.677 211.341 186.65 210.929 186.891C188.536 200.561 168.411 216.932 150.857 235.297C150.703 235.451 150.596 235.648 150.559 235.863C132.778 318.34 146.036 386.655 176.796 447.117C176.945 447.414 177.234 447.639 177.546 447.731C214.712 457.456 247.683 459.232 278.42 456.887C278.911 456.847 279.311 456.503 279.447 456.032C282.415 444.626 284.489 433.017 285.549 421.254C285.614 420.564 285.065 419.993 284.378 420.003C273.849 420.16 263.456 419.383 253.167 417.9C252.35 417.776 251.921 416.848 252.351 416.153C253.591 414.131 254.81 412.056 255.944 409.999C256.148 409.625 256.551 409.403 256.973 409.421C322.017 412.727 381.641 389.084 426.094 342.359C426.383 342.043 426.829 341.929 427.248 342.056C429.483 342.777 431.798 343.466 434.1 344.083C434.89 344.295 435.226 345.259 434.717 345.91C428.277 354.134 421.203 361.729 413.409 368.823C412.902 369.286 412.912 370.086 413.432 370.544C422.367 378.328 431.833 385.361 441.691 391.681C442.105 391.95 442.646 391.921 443.031 391.614C467.155 372.204 489.948 348.316 510.35 315.764C510.528 315.477 510.576 315.133 510.481 314.816C488.713 239.444 444.941 183.833 384.774 143.005C384.607 142.855 384.395 142.784 384.177 142.778ZM272.699 364.846C256.119 371.421 236.42 361.616 229.007 342.921C221.594 324.226 228.955 303.691 245.801 297.011C262.779 290.279 282.398 300.27 289.493 318.937C296.906 337.631 289.545 358.166 272.699 364.846ZM384.518 320.506C367.938 327.081 348.239 317.276 340.826 298.581C333.413 279.886 340.774 259.352 357.619 252.672C374.598 245.939 394.217 255.93 401.312 274.597C408.725 293.291 401.497 313.774 384.518 320.506Z" fill="url(#paint0_linear_4064_7299)"/>
</g>
<path d="M384.177 142.778C358.826 141.441 332.951 143.311 307.256 148.694C306.786 148.788 306.428 149.161 306.361 149.651C305.489 156.085 304.934 164.248 304.779 170.553C277.378 176.937 251.645 187.141 227.846 201.059C223.364 196.455 217.294 191.058 212.237 186.975C211.858 186.677 211.341 186.65 210.929 186.891C188.536 200.561 168.411 216.932 150.857 235.297C150.703 235.451 150.596 235.648 150.559 235.863C132.778 318.34 146.036 386.655 176.796 447.117C176.945 447.414 177.234 447.639 177.546 447.731C214.712 457.456 247.683 459.232 278.42 456.887C278.911 456.847 279.311 456.503 279.447 456.032C282.415 444.626 284.489 433.017 285.549 421.254C285.614 420.564 285.065 419.993 284.378 420.003C273.849 420.16 263.456 419.383 253.167 417.9C252.35 417.776 251.921 416.848 252.351 416.153C253.591 414.131 254.81 412.056 255.944 409.999C256.148 409.625 256.551 409.403 256.973 409.421C322.017 412.727 381.641 389.084 426.094 342.359C426.383 342.043 426.829 341.929 427.248 342.056C429.483 342.777 431.798 343.466 434.1 344.083C434.89 344.295 435.226 345.259 434.717 345.91C428.277 354.134 421.203 361.729 413.409 368.823C412.902 369.286 412.912 370.086 413.432 370.544C422.367 378.328 431.833 385.361 441.691 391.681C442.105 391.95 442.646 391.921 443.031 391.614C467.155 372.204 489.948 348.316 510.35 315.764C510.528 315.477 510.576 315.133 510.481 314.816C488.713 239.444 444.941 183.833 384.774 143.005C384.607 142.855 384.395 142.784 384.177 142.778ZM272.699 364.846C256.119 371.421 236.42 361.616 229.007 342.921C221.594 324.226 228.955 303.691 245.801 297.011C262.779 290.279 282.398 300.27 289.493 318.937C296.906 337.631 289.545 358.166 272.699 364.846ZM384.518 320.506C367.938 327.081 348.239 317.276 340.826 298.581C333.413 279.886 340.774 259.352 357.619 252.672C374.598 245.939 394.217 255.93 401.312 274.597C408.725 293.291 401.497 313.774 384.518 320.506Z" fill="url(#paint1_linear_4064_7299)" fill-opacity="0.5" stroke="url(#paint2_linear_4064_7299)" stroke-width="3.3187"/>
<defs>
<filter id="filter0_f_4064_7299" x="0.969223" y="0.765366" width="651.158" height="598.647" filterUnits="userSpaceOnUse" color-interpolation-filters="sRGB">
<feFlood flood-opacity="0" result="BackgroundImageFix"/>
<feBlend mode="normal" in="SourceGraphic" in2="BackgroundImageFix" result="shape"/>
<feGaussianBlur stdDeviation="70.799" result="effect1_foregroundBlur_4064_7299"/>
</filter>
<linearGradient id="paint0_linear_4064_7299" x1="478.243" y1="229.288" x2="141.724" y2="362.729" gradientUnits="userSpaceOnUse">
<stop stop-color="#DBD633"/>
<stop offset="1" stop-color="#1CCDE6"/>
</linearGradient>
<linearGradient id="paint1_linear_4064_7299" x1="478.243" y1="229.288" x2="141.724" y2="362.729" gradientUnits="userSpaceOnUse">
<stop stop-color="#DBD633"/>
<stop offset="0.5" stop-color="#9ED473"/>
<stop offset="1" stop-color="#1CCDE6"/>
</linearGradient>
<linearGradient id="paint2_linear_4064_7299" x1="478.243" y1="229.288" x2="141.724" y2="362.729" gradientUnits="userSpaceOnUse">
<stop stop-color="#DBD633"/>
<stop offset="0.5" stop-color="#9ED473"/>
<stop offset="1" stop-color="#1CCDE6"/>
</linearGradient>
</defs>
</svg>
