<svg width="653" height="600" viewBox="0 0 653 600" fill="none" xmlns="http://www.w3.org/2000/svg">
<g opacity="0.3" filter="url(#filter0_f_4064_6577)">
<path d="M384.177 142.777C358.826 141.44 332.951 143.31 307.256 148.693C306.786 148.787 306.428 149.16 306.361 149.65C305.489 156.084 304.934 164.247 304.779 170.552C277.378 176.936 251.645 187.14 227.846 201.059C223.364 196.454 217.294 191.057 212.237 186.974C211.858 186.676 211.341 186.649 210.929 186.89C188.536 200.56 168.411 216.931 150.857 235.296C150.703 235.45 150.596 235.647 150.559 235.862C132.778 318.339 146.036 386.654 176.796 447.116C176.945 447.413 177.234 447.638 177.546 447.73C214.712 457.455 247.683 459.231 278.42 456.886C278.911 456.846 279.311 456.502 279.447 456.031C282.415 444.625 284.489 433.016 285.549 421.253C285.614 420.563 285.065 419.992 284.378 420.002C273.849 420.159 263.456 419.382 253.167 417.899C252.35 417.775 251.921 416.847 252.351 416.152C253.591 414.13 254.81 412.055 255.944 409.998C256.148 409.624 256.551 409.402 256.973 409.42C322.017 412.726 381.641 389.083 426.094 342.358C426.383 342.042 426.829 341.928 427.248 342.055C429.483 342.776 431.798 343.465 434.1 344.082C434.89 344.294 435.226 345.258 434.717 345.909C428.277 354.133 421.203 361.729 413.409 368.822C412.902 369.285 412.912 370.085 413.432 370.543C422.367 378.327 431.833 385.36 441.691 391.68C442.105 391.949 442.646 391.92 443.031 391.613C467.155 372.203 489.948 348.315 510.35 315.763C510.528 315.476 510.576 315.132 510.481 314.815C488.713 239.443 444.941 183.832 384.774 143.004C384.607 142.854 384.395 142.783 384.177 142.777ZM272.699 364.845C256.119 371.42 236.42 361.615 229.007 342.92C221.594 324.225 228.955 303.69 245.801 297.011C262.779 290.278 282.398 300.269 289.493 318.936C296.906 337.63 289.545 358.165 272.699 364.845ZM384.518 320.505C367.938 327.08 348.239 317.275 340.826 298.58C333.413 279.885 340.774 259.351 357.619 252.671C374.598 245.938 394.217 255.929 401.312 274.596C408.725 293.29 401.497 313.773 384.518 320.505Z" fill="url(#paint0_linear_4064_6577)"/>
</g>
<path d="M384.177 142.777C358.826 141.44 332.951 143.31 307.256 148.693C306.786 148.787 306.428 149.16 306.361 149.65C305.489 156.084 304.934 164.247 304.779 170.552C277.378 176.936 251.645 187.14 227.846 201.059C223.364 196.454 217.294 191.057 212.237 186.974C211.858 186.676 211.341 186.649 210.929 186.89C188.536 200.56 168.411 216.931 150.857 235.296C150.703 235.45 150.596 235.647 150.559 235.862C132.778 318.339 146.036 386.654 176.796 447.116C176.945 447.413 177.234 447.638 177.546 447.73C214.712 457.455 247.683 459.231 278.42 456.886C278.911 456.846 279.311 456.502 279.447 456.031C282.415 444.625 284.489 433.016 285.549 421.253C285.614 420.563 285.065 419.992 284.378 420.002C273.849 420.159 263.456 419.382 253.167 417.899C252.35 417.775 251.921 416.847 252.351 416.152C253.591 414.13 254.81 412.055 255.944 409.998C256.148 409.624 256.551 409.402 256.973 409.42C322.017 412.726 381.641 389.083 426.094 342.358C426.383 342.042 426.829 341.928 427.248 342.055C429.483 342.776 431.798 343.465 434.1 344.082C434.89 344.294 435.226 345.258 434.717 345.909C428.277 354.133 421.203 361.728 413.409 368.822C412.902 369.285 412.912 370.085 413.432 370.543C422.366 378.327 431.833 385.36 441.691 391.68C442.105 391.949 442.646 391.92 443.031 391.613C467.155 372.203 489.948 348.315 510.35 315.763C510.528 315.476 510.576 315.132 510.481 314.815C488.713 239.443 444.941 183.832 384.774 143.004C384.607 142.854 384.395 142.783 384.177 142.777ZM272.699 364.845C256.119 371.42 236.42 361.615 229.007 342.92C221.594 324.225 228.955 303.69 245.801 297.011C262.779 290.278 282.398 300.269 289.493 318.936C296.906 337.63 289.545 358.165 272.699 364.845ZM384.518 320.505C367.938 327.08 348.239 317.275 340.826 298.58C333.413 279.885 340.774 259.351 357.619 252.671C374.598 245.938 394.217 255.929 401.312 274.596C408.725 293.29 401.497 313.773 384.518 320.505Z" fill="black" fill-opacity="0.2" stroke="url(#paint1_linear_4064_6577)" stroke-width="3.3187"/>
<defs>
<filter id="filter0_f_4064_6577" x="0.969223" y="0.763901" width="651.158" height="598.647" filterUnits="userSpaceOnUse" color-interpolation-filters="sRGB">
<feFlood flood-opacity="0" result="BackgroundImageFix"/>
<feBlend mode="normal" in="SourceGraphic" in2="BackgroundImageFix" result="shape"/>
<feGaussianBlur stdDeviation="70.799" result="effect1_foregroundBlur_4064_6577"/>
</filter>
<linearGradient id="paint0_linear_4064_6577" x1="478.243" y1="229.287" x2="141.724" y2="362.728" gradientUnits="userSpaceOnUse">
<stop stop-color="#DBD633"/>
<stop offset="1" stop-color="#1CCDE6"/>
</linearGradient>
<linearGradient id="paint1_linear_4064_6577" x1="478.243" y1="229.287" x2="141.724" y2="362.728" gradientUnits="userSpaceOnUse">
<stop stop-color="#DBD633"/>
<stop offset="0.5" stop-color="#9ED473"/>
<stop offset="1" stop-color="#1CCDE6"/>
</linearGradient>
</defs>
</svg>
