<svg height="30" viewBox="0 0 34 27" xmlns="http://www.w3.org/2000/svg">
  <defs>
    <linearGradient id="discord-gradient-f" x2="1" y2="1" gradientTransform="rotate(45)">
      <stop offset="50%" stop-color="#00ffcc"></stop>
    </linearGradient>
  </defs>
  <path
    d="M27.8653 3.68279C27.8566 3.66609 27.8422 3.653 27.8247 3.64588C25.7994 2.72348 23.6622 2.06574 21.4664 1.68911C21.4465 1.68543 21.4258 1.68809 21.4075 1.6967C21.3892 1.70532 21.374 1.71945 21.3642 1.7371C21.0732 2.26143 20.809 2.80001 20.5727 3.35077C18.2058 2.99412 15.7982 2.99412 13.4313 3.35077C13.1934 2.79861 12.925 2.2599 12.6273 1.7371C12.617 1.71984 12.6018 1.70603 12.5836 1.69747C12.5654 1.68891 12.545 1.686 12.525 1.68911C10.3291 2.06495 8.19165 2.72274 6.16662 3.64593C6.14928 3.65322 6.13466 3.66568 6.12475 3.68158C2.07509 9.68475 0.965733 15.5403 1.50995 21.3234C1.51148 21.3376 1.51586 21.3513 1.52285 21.3637C1.52983 21.3762 1.53926 21.3871 1.55059 21.3959C3.90867 23.129 6.54621 24.452 9.35066 25.3082C9.37041 25.3141 9.3915 25.3138 9.4111 25.3075C9.43069 25.3011 9.44785 25.2889 9.46026 25.2726C10.0626 24.459 10.5963 23.5975 11.056 22.6969C11.0623 22.6845 11.0659 22.671 11.0666 22.6572C11.0672 22.6433 11.0649 22.6295 11.0598 22.6166C11.0547 22.6037 11.0469 22.592 11.0369 22.5823C11.0269 22.5727 11.015 22.5652 11.0018 22.5604C10.1602 22.2408 9.34542 21.8554 8.5651 21.408C8.55093 21.3998 8.53903 21.3881 8.53044 21.3742C8.52186 21.3603 8.51686 21.3445 8.51589 21.3282C8.51492 21.3119 8.518 21.2956 8.52487 21.2808C8.53174 21.266 8.54218 21.2531 8.55528 21.2432C8.71901 21.1214 8.88285 20.9947 9.03919 20.8668C9.05308 20.8555 9.06989 20.8482 9.08772 20.8458C9.10556 20.8434 9.12371 20.846 9.14013 20.8533C14.2523 23.1692 19.7869 23.1692 24.8386 20.8533C24.855 20.8455 24.8734 20.8426 24.8915 20.8448C24.9096 20.8469 24.9267 20.8542 24.9408 20.8656C25.0972 20.9935 25.261 21.1214 25.4259 21.2432C25.4391 21.253 25.4496 21.2658 25.4566 21.2806C25.4636 21.2953 25.4668 21.3116 25.4659 21.3279C25.4651 21.3442 25.4602 21.36 25.4517 21.374C25.4432 21.388 25.4314 21.3997 25.4173 21.408C24.6388 21.8592 23.8232 22.2443 22.9794 22.5592C22.9663 22.5642 22.9544 22.5718 22.9445 22.5816C22.9345 22.5915 22.9268 22.6033 22.9218 22.6163C22.9168 22.6293 22.9146 22.6432 22.9154 22.6571C22.9161 22.671 22.9199 22.6845 22.9263 22.6969C23.3936 23.5925 23.9266 24.4529 24.5208 25.2711C24.5328 25.2879 24.5499 25.3005 24.5696 25.3071C24.5892 25.3138 24.6105 25.3141 24.6304 25.3081C27.4398 24.4547 30.082 23.1317 32.443 21.3959C32.4545 21.3876 32.4641 21.3769 32.4711 21.3646C32.4781 21.3523 32.4824 21.3387 32.4837 21.3246C33.1352 14.6388 31.3929 8.83119 27.8653 3.68279ZM11.8194 17.8021C10.2803 17.8021 9.0121 16.4001 9.0121 14.6782C9.0121 12.9563 10.2557 11.5541 11.8194 11.5541C13.3954 11.5541 14.6513 12.9685 14.6267 14.6781C14.6267 16.4001 13.3831 17.8021 11.8194 17.8021ZM22.199 17.8021C20.6599 17.8021 19.3917 16.4001 19.3917 14.6782C19.3917 12.9563 20.6353 11.5541 22.199 11.5541C23.7751 11.5541 25.0309 12.9685 25.0063 14.6781C25.0063 16.4001 23.7751 17.8021 22.199 17.8021Z" fill="#00ffcc"></path>
</svg>