<svg width="101" height="100" viewBox="0 0 101 100" fill="none" xmlns="http://www.w3.org/2000/svg">
<path d="M58.6352 41.9333L42.4019 58.1667" stroke="url(#paint0_linear_1543_2749)" stroke-width="4.5" stroke-linecap="round" stroke-linejoin="round"/>
<path d="M40.4009 35.5332C38.0676 35.5332 36.2009 37.4332 36.2009 39.7332C36.2009 42.0665 38.1009 43.9332 40.4009 43.9332C42.7009 43.9332 44.6009 42.0332 44.6009 39.7332C44.6342 37.4332 42.7342 35.5332 40.4009 35.5332Z" fill="url(#paint1_linear_1543_2749)"/>
<path d="M60.9348 56.0332C58.6015 56.0332 56.7349 57.9332 56.7349 60.2332C56.7349 62.5665 58.6348 64.4332 60.9348 64.4332C63.2348 64.4332 65.1348 62.5332 65.1348 60.2332C65.1348 57.9332 63.2682 56.0332 60.9348 56.0332Z" fill="url(#paint2_linear_1543_2749)"/>
<path d="M78.7999 62.6665H78.7666C80.4999 58.7998 81.4999 54.4998 81.4999 49.9998C81.4999 32.9665 67.6999 19.1665 50.6666 19.1665C33.6333 19.1665 19.8333 32.9665 19.8333 49.9998C19.8333 67.0332 33.6333 80.8332 50.6666 80.8332C55.6999 80.8332 60.4666 79.5998 64.6666 77.4665L81.3333 79.9332L78.7999 62.6665Z" stroke="url(#paint3_linear_1543_2749)" stroke-width="4.5" stroke-linecap="round" stroke-linejoin="round"/>
<defs>
<linearGradient id="paint0_linear_1543_2749" x1="42.4019" y1="49.9418" x2="58.6085" y2="49.2837" gradientUnits="userSpaceOnUse">
<stop stop-color="#00FFCC"/>
<stop offset="0.182292" stop-color="#00FFCC" stop-opacity="0.81"/>
<stop offset="0.841669" stop-color="#00FFCC" stop-opacity="0.82"/>
<stop offset="1" stop-color="#00FFCC"/>
</linearGradient>
<linearGradient id="paint1_linear_1543_2749" x1="36.2009" y1="39.6772" x2="44.5875" y2="39.3366" gradientUnits="userSpaceOnUse">
<stop stop-color="#00FFCC"/>
<stop offset="0.182292" stop-color="#7EFFB2" stop-opacity="0.81"/>
<stop offset="0.841669" stop-color="#F4FF7A" stop-opacity="0.82"/>
<stop offset="1" stop-color="#00FFCC"/>
</linearGradient>
<linearGradient id="paint2_linear_1543_2749" x1="56.7349" y1="60.1772" x2="65.121" y2="59.8367" gradientUnits="userSpaceOnUse">
<stop stop-color="#00FFCC"/>
<stop offset="0.182292" stop-color="#7EFFB2" stop-opacity="0.81"/>
<stop offset="0.841669" stop-color="#F4FF7A" stop-opacity="0.82"/>
<stop offset="1" stop-color="#00FFCC"/>
</linearGradient>
<linearGradient id="paint3_linear_1543_2749" x1="19.8333" y1="49.5887" x2="81.3984" y2="47.0886" gradientUnits="userSpaceOnUse">
<stop stop-color="#00FFCC"/>
<stop offset="0.182292" stop-color="#00FFCC" stop-opacity="0.81"/>
<stop offset="0.841669" stop-color="#00FFCC" stop-opacity="0.82"/>
<stop offset="1" stop-color="#00FFCC"/>
</linearGradient>
</defs>
</svg>
