<svg width="33" height="32" viewBox="0 0 33 32" fill="none" xmlns="http://www.w3.org/2000/svg">
<path d="M14.4237 22.9122C13.8956 23.7672 13.1224 24.4713 12.104 25.0119C11.0793 25.5526 9.87224 25.8543 8.47033 25.9109V28.2657C8.47033 28.7535 8.07488 29.1489 7.58707 29.1489C7.09925 29.1489 6.7038 28.7535 6.7038 28.2657V25.8795C4.74868 25.716 3.17704 25.1314 1.9763 24.1255C0.775568 23.1197 0.140624 21.7555 0.0714719 20.0204H5.10073C5.21389 21.1268 5.74825 21.8372 6.7038 22.1515V17.7824C5.26418 17.4115 4.12002 17.0531 3.25876 16.7011C2.40379 16.349 1.6494 15.7895 1.00817 15.0163C0.360655 14.243 0.0400391 13.1806 0.0400391 11.8353C0.0400391 10.1567 0.66241 8.81142 1.90715 7.79928C3.15189 6.78715 4.74868 6.21507 6.7038 6.08305V3.73458C6.7038 3.24677 7.09925 2.85132 7.58707 2.85132C8.07488 2.85132 8.47033 3.24677 8.47033 3.73458V6.08934C10.4066 6.24022 11.9342 6.79972 13.0595 7.77414C14.1848 8.74856 14.8072 10.1065 14.9392 11.8353H9.87852C9.76536 10.842 9.30016 10.1945 8.47033 9.899V14.1864C9.99797 14.6076 11.1798 14.9911 12.0097 15.318C12.8395 15.6512 13.5813 16.1981 14.2351 16.9651C14.8889 17.7321 15.2158 18.7756 15.2158 20.1021C15.2158 21.1017 14.9455 22.0698 14.4237 22.9122ZM5.46535 12.7845C5.74825 13.0989 6.16316 13.3755 6.69752 13.6144V9.77327C6.18202 9.86757 5.77339 10.0624 5.48421 10.3705C5.18874 10.6722 5.04415 11.0934 5.04415 11.6278C5.03786 12.0804 5.18245 12.4702 5.46535 12.7845ZM9.77794 21.5732C10.0986 21.2211 10.262 20.7873 10.262 20.2718C10.262 19.7941 10.1111 19.4043 9.80308 19.0963C9.50133 18.7945 9.05498 18.5305 8.46404 18.3104V22.2333C9.01726 22.1452 9.45732 21.9252 9.77794 21.5732Z" fill="url(#paint0_linear_1827_5459)"/>
<defs>
<linearGradient id="paint0_linear_1827_5459" x1="7.62793" y1="3.85132" x2="7.62793" y2="28.1489" gradientUnits="userSpaceOnUse">
<stop stop-color="#1CD5FF"/>
<stop offset="1" stop-color="#0C00FF"/>
</linearGradient>
</defs>
</svg>
