<svg width="23" height="22" viewBox="0 0 23 22" fill="none" xmlns="http://www.w3.org/2000/svg">
<path d="M4.70212 10.7457C5.56718 12.1708 6.64459 13.5303 7.8673 14.7521C9.08895 15.9746 10.4483 17.0523 11.8731 17.9174L15.451 14.0788L22.3692 18.0189C21.3651 19.8831 18.957 22.2672 15.8976 21.6508C14.4518 21.3591 13.0251 20.8729 11.2997 19.8831C9.56317 18.8868 7.92353 17.6143 6.46676 16.1565C5.00892 14.6997 3.73238 13.056 2.73606 11.3194C1.7462 9.5941 1.26006 8.16735 0.968296 6.72156C0.351981 3.66214 2.73606 1.25408 4.60023 0.25L8.54031 7.16817L4.70212 10.7457Z" fill="#070707"/>
</svg>
