<svg width="100" height="100" viewBox="0 0 100 100" fill="none" xmlns="http://www.w3.org/2000/svg">
<g clip-path="url(#clip0_1543_2746)">
<path d="M26.4286 18.9286C26.4286 17.1474 24.9955 15.7144 23.2143 15.7144C21.433 15.7144 20 17.1474 20 18.9286V24.2858V62.6563V69.2858V81.0715C20 82.8527 21.433 84.2858 23.2143 84.2858C24.9955 84.2858 26.4286 82.8527 26.4286 81.0715V67.6786L37.183 64.9867C42.6875 63.6072 48.5134 64.2501 53.5893 66.7813C59.5089 69.7411 66.3795 70.1027 72.567 67.7724L77.2143 66.0313C78.8884 65.4019 80 63.8081 80 62.0135V24.567C80 21.4867 76.7589 19.4777 74 20.8572L72.7143 21.5001C66.5134 24.6072 59.2143 24.6072 53.0134 21.5001C48.3125 19.1429 42.9152 18.5536 37.8125 19.826L26.4286 22.6786V18.9286ZM26.4286 29.3081L39.3661 26.067C42.9821 25.1697 46.7991 25.5849 50.1339 27.2456C57.4866 30.9152 66.0312 31.2233 73.5714 28.1563V60.5402L70.3036 61.759C65.7902 63.4465 60.7679 63.192 56.4554 61.0358C50 57.8081 42.6205 57.0045 35.6161 58.7456L26.4286 61.0492V29.3081Z" fill="url(#paint0_linear_1543_2746)"/>
</g>
<defs>
<linearGradient id="paint0_linear_1543_2746" x1="20" y1="49.5429" x2="79.9243" y2="47.4136" gradientUnits="userSpaceOnUse">
<stop stop-color="#00FFCC"/>
<stop offset="0.182292" stop-color="#00FFCC" stop-opacity="0.81"/>
<stop offset="0.841669" stop-color="#00FFCC" stop-opacity="0.82"/>
<stop offset="1" stop-color="#00FFCC"/>
</linearGradient>
<clipPath id="clip0_1543_2746">
<rect width="60" height="68.5714" fill="white" transform="translate(20 15.7144)"/>
</clipPath>
</defs>
</svg>
