<svg width="35" height="35" viewBox="0 0 35 35" fill="none" xmlns="http://www.w3.org/2000/svg">
<rect x="0.5" y="0.0991211" width="34" height="34" fill="#3F3F3F" fill-opacity="0.9"/>
<rect width="20" height="20" transform="translate(7.5 7.09912)" fill="#3F3F3F" fill-opacity="0.9"/>
<path d="M17.4998 8.14111C18.8624 8.14114 19.9933 8.69416 20.9626 9.24072L21.7751 9.70557C22.7098 10.2325 23.5596 10.6381 24.5955 10.6382H25.0974L25.2058 11.1274C26.833 18.4311 23.5928 24.6785 17.6374 26.0259L17.4998 26.0571L17.3611 26.0259C11.406 24.6782 8.16649 18.4309 9.7937 11.1274L9.9021 10.6382H10.404C11.5897 10.638 12.5338 10.1081 13.6365 9.47314C14.6925 8.86485 15.9496 8.14111 17.4998 8.14111ZM18.5457 11.5112C18.2983 11.4217 18.0207 11.4966 17.8523 11.6987L13.6863 16.6987C13.5311 16.885 13.4976 17.1442 13.6003 17.3638C13.7032 17.5834 13.9242 17.7241 14.1667 17.7241H16.0417V21.2661C16.0419 21.5291 16.2065 21.7635 16.4539 21.853C16.7013 21.9425 16.9778 21.8677 17.1462 21.6655L21.3132 16.6655C21.4683 16.4792 21.502 16.22 21.3992 16.0005C21.2963 15.7809 21.0753 15.6411 20.8328 15.6411H18.9578V12.0991C18.9578 11.836 18.7931 11.6008 18.5457 11.5112Z" fill="white"/>
</svg>
