<svg width="35" height="35" viewBox="0 0 35 35" fill="none" xmlns="http://www.w3.org/2000/svg">
<rect x="0.5" y="0.0991211" width="34" height="34" fill="#3F3F3F" fill-opacity="0.9"/>
<rect width="20" height="20" transform="translate(7.5 7.09912)" fill="#3F3F3F" fill-opacity="0.9"/>
<path fill-rule="evenodd" clip-rule="evenodd" d="M14.1713 12.1443C13.3489 12.6759 12.986 13.3116 12.986 13.8888C12.986 14.2595 13.0564 14.5413 13.1753 14.7625C13.2921 14.9798 13.4807 15.185 13.7915 15.3685C14.4459 15.7547 15.598 16.0184 17.4999 16.0184C19.4813 16.0184 21.1214 16.2638 22.2884 16.9307C22.8887 17.2737 23.3714 17.7326 23.698 18.3236C24.0228 18.9113 24.1666 19.5811 24.1666 20.3085C24.1666 21.9122 23.285 23.0307 22.0128 23.7003C20.7869 24.3454 19.174 24.5986 17.4999 24.5986C15.7658 24.5986 14.1554 24.1838 12.9503 23.4697C11.7635 22.7664 10.8333 21.6759 10.8333 20.3085H12.4999C12.4999 20.8502 12.8755 21.4881 13.8 22.0359C14.7062 22.5729 16.0124 22.932 17.4999 22.932C19.0475 22.932 20.3513 22.6913 21.2366 22.2254C22.0756 21.7838 22.4999 21.174 22.4999 20.3085C22.4999 19.8013 22.4006 19.4217 22.2393 19.1298C22.0798 18.8412 21.8333 18.5902 21.4615 18.3777C20.684 17.9335 19.4074 17.6851 17.4999 17.6851C15.5129 17.6851 13.9915 17.4218 12.9444 16.8038C12.4046 16.4852 11.9855 16.069 11.7074 15.5518C11.4313 15.0384 11.3194 14.4726 11.3194 13.8888C11.3194 12.5567 12.1536 11.4641 13.2664 10.7446C14.3877 10.0197 15.8868 9.59863 17.4999 9.59863C19.113 9.59863 20.6121 10.0197 21.7334 10.7446C22.8463 11.4641 23.6805 12.5567 23.6805 13.8888H22.0138C22.0138 13.3116 21.651 12.6759 20.8286 12.1443C20.0145 11.618 18.84 11.2653 17.4999 11.2653C16.1598 11.2653 14.9853 11.618 14.1713 12.1443Z" fill="white"/>
<path fill-rule="evenodd" clip-rule="evenodd" d="M16.6667 25.4323V8.76562H18.3334V25.4323H16.6667Z" fill="white"/>
</svg>
