<svg width="40" height="40" viewBox="0 0 40 40" fill="none" xmlns="http://www.w3.org/2000/svg">
<path d="M20.3057 17.2729V23.0821H28.5432C28.1814 24.9503 27.096 26.5322 25.468 27.5958L30.4355 31.3731C33.3298 28.755 34.9995 24.9095 34.9995 20.3413C34.9995 19.2777 34.9022 18.2548 34.7212 17.2731L20.3057 17.2729Z" fill="#4285F4"/>
<path d="M6.64182 13.2773C5.59827 15.2955 5 17.5728 5 20C5 22.4273 5.59827 24.7046 6.64182 26.7227C6.64182 26.7362 11.7347 22.8499 11.7347 22.8499C11.4286 21.9499 11.2476 20.9955 11.2476 19.9999C11.2476 19.0043 11.4286 18.0498 11.7347 17.1498L6.64182 13.2773Z" fill="#FBBC05"/>
<path d="M20.3057 10.9728C22.56 10.9728 24.5637 11.7364 26.1638 13.2091L30.5469 8.91371C27.8892 6.48646 24.4385 5 20.3057 5C14.3225 5 9.16016 8.36819 6.6416 13.2773L11.7343 17.1501C12.9448 13.6046 16.3262 10.9728 20.3057 10.9728Z" fill="#EA4335"/>
<path d="M11.7277 22.8555L10.6074 23.6959L6.6416 26.7232C9.16016 31.6186 14.3221 35.0005 20.3054 35.0005C24.438 35.0005 27.9027 33.6641 30.4353 31.3733L25.4677 27.5959C24.1041 28.4959 22.3647 29.0415 20.3054 29.0415C16.3258 29.0415 12.9447 26.4096 11.734 22.8641L11.7277 22.8555Z" fill="#34A853"/>
</svg>
