<svg width="28" height="28" viewBox="0 0 28 28" fill="none" xmlns="http://www.w3.org/2000/svg">
<g opacity="0.6">
<path d="M4.55 5.25H23.45C23.7285 5.25 23.9956 5.36062 24.1925 5.55754C24.3894 5.75445 24.5 6.02152 24.5 6.3V21.7C24.5 21.9785 24.3894 22.2456 24.1925 22.4425C23.9956 22.6394 23.7285 22.75 23.45 22.75H4.55C4.27152 22.75 4.00445 22.6394 3.80754 22.4425C3.61062 22.2456 3.5 21.9785 3.5 21.7V6.3C3.5 6.02152 3.61062 5.75445 3.80754 5.55754C4.00445 5.36062 4.27152 5.25 4.55 5.25ZM22.4 9.6999L14.0756 17.1549L5.6 9.6768V20.65H22.4V9.6999ZM6.13655 7.35L14.064 14.3451L21.8771 7.35H6.13655Z" fill="white"/>
</g>
</svg>
