<svg width="33" height="25" viewBox="0 0 33 25" fill="none" xmlns="http://www.w3.org/2000/svg">
<path d="M3.64945 22.5775C1.79545 20.6083 0.800049 18.3997 0.800049 14.8195C0.800049 8.51945 5.22265 2.87285 11.654 0.0810547L13.2614 2.56145C7.25845 5.80865 6.08485 10.0225 5.61685 12.6793C6.58345 12.1789 7.84885 12.0043 9.08905 12.1195C12.3362 12.4201 14.8958 15.0859 14.8958 18.3997C14.8958 20.0705 14.2321 21.6729 13.0506 22.8544C11.8691 24.0359 10.2667 24.6997 8.59585 24.6997C6.66445 24.6997 4.81765 23.8177 3.64945 22.5775V22.5775ZM21.6494 22.5775C19.7954 20.6083 18.8 18.3997 18.8 14.8195C18.8 8.51945 23.2226 2.87285 29.654 0.0810547L31.2614 2.56145C25.2584 5.80865 24.0848 10.0225 23.6168 12.6793C24.5834 12.1789 25.8488 12.0043 27.089 12.1195C30.3362 12.4201 32.8958 15.0859 32.8958 18.3997C32.8958 20.0705 32.2321 21.6729 31.0506 22.8544C29.8691 24.0359 28.2667 24.6997 26.5958 24.6997C24.6644 24.6997 22.8176 23.8177 21.6494 22.5775V22.5775Z" fill="#010101"/>
</svg>
