<svg width="48" height="48" viewBox="0 0 48 48" fill="none" xmlns="http://www.w3.org/2000/svg">
<path d="M10.6494 33.5778C8.79545 31.6086 7.80005 29.4 7.80005 25.8198C7.80005 19.5198 12.2226 13.8732 18.654 11.0814L20.2614 13.5618C14.2584 16.809 13.0848 21.0228 12.6168 23.6796C13.5834 23.1792 14.8488 23.0046 16.089 23.1198C19.3362 23.4204 21.8958 26.0862 21.8958 29.4C21.8958 31.0709 21.2321 32.6733 20.0506 33.8548C18.8691 35.0362 17.2667 35.7 15.5958 35.7C13.6644 35.7 11.8176 34.818 10.6494 33.5778ZM28.6494 33.5778C26.7954 31.6086 25.8 29.4 25.8 25.8198C25.8 19.5198 30.2226 13.8732 36.654 11.0814L38.2614 13.5618C32.2584 16.809 31.0848 21.0228 30.6168 23.6796C31.5834 23.1792 32.8488 23.0046 34.089 23.1198C37.3362 23.4204 39.8958 26.0862 39.8958 29.4C39.8958 31.0709 39.2321 32.6733 38.0506 33.8548C36.8691 35.0362 35.2667 35.7 33.5958 35.7C31.6644 35.7 29.8176 34.818 28.6494 33.5778Z" fill="white"/>
</svg>
